<?xml version="1.0" encoding="UTF-8" standalone="no"?><!DOCTYPE svg PUBLIC "-//W3C//DTD SVG 1.1//EN" "http://www.w3.org/Graphics/SVG/1.1/DTD/svg11.dtd"><svg width="100%" height="100%" viewBox="0 0 13750 9167" version="1.1" xmlns="http://www.w3.org/2000/svg" xmlns:xlink="http://www.w3.org/1999/xlink" xml:space="preserve" xmlns:serif="http://www.serif.com/" style="fill-rule:evenodd;clip-rule:evenodd;"><g id="Notes"><rect id="artboard" x="0" y="0" width="13750" height="9166.67" style="fill:#fff;"/><path d="M1095.83,1216.67l11554.2,0" style="fill:none;fill-rule:nonzero;stroke:#000;stroke-width:2.08px;"/><text x="1095.83px" y="1341.67px" style="font-family:'SFProDisplay-Bold', 'SF Pro Display';font-weight:700;font-size:66.667px;">W<tspan x="1156.28px " y="1341.67px ">e</tspan>ight/Scale V<tspan x="1558.85px " y="1341.67px ">a</tspan>riations</text><text x="2205.47px" y="1341.67px" style="font-family:'SFProDisplay-Regular', 'SF Pro Display';font-size:66.667px;">Ultr<tspan x="2305.47px " y="1341.67px ">a</tspan>light</text><text x="3506.72px" y="1341.67px" style="font-family:'SFProDisplay-Regular', 'SF Pro Display';font-size:66.667px;">Thin</text><text x="4734.1px" y="1341.67px" style="font-family:'SFProDisplay-Regular', 'SF Pro Display';font-size:66.667px;">Light</text><text x="5934.28px" y="1341.67px" style="font-family:'SFProDisplay-Regular', 'SF Pro Display';font-size:66.667px;">Regular</text><text x="7162.96px" y="1341.67px" style="font-family:'SFProDisplay-Regular', 'SF Pro Display';font-size:66.667px;">Medium</text><text x="8381.77px" y="1341.67px" style="font-family:'SFProDisplay-Regular', 'SF Pro Display';font-size:66.667px;">Semibold</text><text x="9686.81px" y="1341.67px" style="font-family:'SFProDisplay-Regular', 'SF Pro Display';font-size:66.667px;">Bold</text><text x="10896.8px" y="1341.67px" style="font-family:'SFProDisplay-Regular', 'SF Pro Display';font-size:66.667px;">Heavy</text><text x="12145.9px" y="1341.67px" style="font-family:'SFProDisplay-Regular', 'SF Pro Display';font-size:66.667px;">Black</text><path d="M1095.83,7929.17l11554.2,0" style="fill:none;fill-rule:nonzero;stroke:#000;stroke-width:2.08px;"/><g><path d="M1134.37,8057.62c17.944,0 32.878,-14.892 32.878,-32.837c0,-17.944 -14.975,-32.836 -32.919,-32.836c-17.903,0 -32.796,14.892 -32.796,32.836c0,17.945 14.933,32.837 32.837,32.837Zm0,-6.185c-14.771,0 -26.571,-11.84 -26.571,-26.652c0,-14.811 11.76,-26.652 26.53,-26.652c14.812,0 26.652,11.841 26.693,26.652c0.041,14.812 -11.841,26.652 -26.652,26.652Zm-0.081,-11.556c1.953,0 3.092,-1.302 3.092,-3.458l0,-8.586l9.277,0c2.075,0 3.5,-1.058 3.5,-3.011c0,-1.994 -1.343,-3.092 -3.5,-3.092l-9.277,0l0,-9.278c0,-2.156 -1.139,-3.499 -3.092,-3.499c-1.954,0 -3.012,1.424 -3.012,3.499l0,9.278l-9.196,0c-2.156,0 -3.54,1.098 -3.54,3.092c0,1.953 1.465,3.011 3.54,3.011l9.196,0l0,8.586c0,2.075 1.058,3.458 3.012,3.458Z" style="fill-rule:nonzero;"/></g><g><path d="M1221.73,8066.29c22.705,0 41.504,-18.798 41.504,-41.504c0,-22.664 -18.84,-41.503 -41.545,-41.503c-22.664,0 -41.463,18.839 -41.463,41.503c0,22.706 18.84,41.504 41.504,41.504Zm0,-6.917c-19.206,0 -34.546,-15.381 -34.546,-34.587c0,-19.165 15.3,-34.586 34.505,-34.586c19.206,0 34.587,15.421 34.628,34.586c0.04,19.206 -15.381,34.587 -34.587,34.587Zm-0.081,-15.259c2.156,0 3.458,-1.505 3.458,-3.865l0,-12.045l12.736,0c2.279,0 3.866,-1.18 3.866,-3.336c0,-2.197 -1.506,-3.459 -3.866,-3.459l-12.736,0l0,-12.776c0,-2.401 -1.302,-3.866 -3.458,-3.866c-2.157,0 -3.378,1.546 -3.378,3.866l0,12.776l-12.695,0c-2.36,0 -3.906,1.262 -3.906,3.459c0,2.156 1.627,3.336 3.906,3.336l12.695,0l0,12.045c0,2.278 1.221,3.865 3.378,3.865Z" style="fill-rule:nonzero;"/></g><g><path d="M1332.89,8077.81c29.012,0 53.019,-23.967 53.019,-52.979c0,-29.012 -24.048,-52.979 -53.06,-52.979c-28.971,0 -52.938,23.967 -52.938,52.979c0,29.012 24.007,52.979 52.979,52.979Zm0,-7.569c-25.147,0 -45.37,-20.263 -45.37,-45.41c0,-25.146 20.182,-45.41 45.329,-45.41c25.187,0 45.41,20.264 45.451,45.41c0.04,25.147 -20.223,45.41 -45.41,45.41Zm-0.082,-20.508c2.36,0 3.825,-1.627 3.825,-4.15l0,-16.968l17.659,0c2.442,0 4.192,-1.383 4.192,-3.703c0,-2.4 -1.628,-3.824 -4.192,-3.824l-17.659,0l0,-17.701c0,-2.563 -1.465,-4.191 -3.825,-4.191c-2.36,0 -3.703,1.709 -3.703,4.191l0,17.701l-17.618,0c-2.564,0 -4.273,1.424 -4.273,3.824c0,2.32 1.79,3.703 4.273,3.703l17.618,0l0,16.968c0,2.441 1.343,4.15 3.703,4.15Z" style="fill-rule:nonzero;"/></g><text x="1095.83px" y="8137.5px" style="font-family:'SFProDisplay-Bold', 'SF Pro Display';font-weight:700;font-size:66.667px;">Design V<tspan x="1361.62px " y="8137.5px ">a</tspan>riations</text><text x="1095.83px" y="8212.5px" style="font-family:'SFProDisplay-Regular', 'SF Pro Display';font-size:66.667px;">Symbols ar<tspan x="1404.36px " y="8212.5px ">e</tspan> suppor<tspan x="1648.8px 1667.9px " y="8212.5px 8212.5px ">te</tspan>d in up t<tspan x="1919.56px " y="8212.5px ">o</tspan> nine weights and thr<tspan x="2527.18px " y="8212.5px ">e</tspan>e scales.</text><text x="1095.83px" y="8287.5px" style="font-family:'SFProDisplay-Regular', 'SF Pro Display';font-size:66.667px;">F<tspan x="1129.72px " y="8287.5px ">o</tspan>r optimal lay<tspan x="1497.82px " y="8287.5px ">o</tspan>ut with t<tspan x="1752.18px 1785.68px " y="8287.5px 8287.5px ">ex</tspan>t and other symbols,<tspan x="2377.28px 2390.95px 2422.17px 2456.32px 2478.16px " y="8287.5px 8287.5px 8287.5px 8287.5px 8287.5px "> vert</tspan>ically align</text><text x="1095.83px" y="8362.5px" style="font-family:'SFProDisplay-Regular', 'SF Pro Display';font-size:66.667px;">symbols with the adjacent t<tspan x="1851.27px 1884.77px " y="8362.5px 8362.5px ">ex</tspan>t.</text><rect x="3233.33" y="7995.83" width="12.5" height="58.333" style="fill:#00aeef;fill-opacity:0.4;"/><g><path d="M3289.7,8054.17l7.691,0l-21.647,-58.716l-7.243,0l-21.647,58.716l7.69,0l5.9,-16.805l23.356,0l5.9,16.805Zm-17.7,-49.805l0.244,0l9.4,26.774l-19.043,0l9.399,-26.774Z" style="fill-rule:nonzero;"/></g><rect x="3298.4" y="7995.83" width="12.5" height="58.333" style="fill:#00aeef;fill-opacity:0.4;"/><text x="3233.33px" y="8137.5px" style="font-family:'SFProDisplay-Bold', 'SF Pro Display';font-weight:700;font-size:66.667px;">M<tspan x="3290.17px 3326.66px 3349.77px " y="8137.5px 8137.5px 8137.5px ">arg</tspan>ins</text><text x="3233.33px" y="8212.5px" style="font-family:'SFProDisplay-Regular', 'SF Pro Display';font-size:66.667px;">L<tspan x="3267.32px " y="8212.5px ">e</tspan>ading and tr<tspan x="3630.01px " y="8212.5px ">a</tspan>iling mar<tspan x="3895.64px " y="8212.5px ">g</tspan>ins on the left and right side of each symbol</text><text x="3233.33px" y="8287.5px" style="font-family:'SFProDisplay-Regular', 'SF Pro Display';font-size:66.667px;">can be adjust<tspan x="3602.99px " y="8287.5px ">e</tspan>d b<tspan x="3723.7px " y="8287.5px ">y</tspan> modifying the width of the blue r<tspan x="4658.24px " y="8287.5px ">e</tspan>ct<tspan x="4745.22px " y="8287.5px ">a</tspan>ngles.</text><text x="3233.33px" y="8362.5px" style="font-family:'SFProDisplay-Regular', 'SF Pro Display';font-size:66.667px;">Modifications ar<tspan x="3676.63px " y="8362.5px ">e</tspan> aut<tspan x="3812.14px " y="8362.5px ">o</tspan>matically applied pr<tspan x="4382.59px " y="8362.5px ">o</tspan>por<tspan x="4511.82px " y="8362.5px ">t</tspan>ionally t<tspan x="4741.9px " y="8362.5px ">o</tspan> all</text><text x="3233.33px" y="8437.5px" style="font-family:'SFProDisplay-Regular', 'SF Pro Display';font-size:66.667px;">scales and weights.</text><g><path d="M5382.63,8067.15l6.43,6.429c3.54,3.459 7.568,3.174 11.189,-0.814l42.562,-46.346c1.791,1.221 3.418,1.18 5.371,0.773l4.354,-0.895l2.889,2.889l-0.203,2.157c-0.285,2.197 0.407,3.946 2.482,6.022l3.377,3.377c2.116,2.116 4.842,2.238 6.836,0.244l13.55,-13.55c1.993,-1.994 1.912,-4.72 -0.204,-6.836l-3.418,-3.418c-2.075,-2.075 -3.784,-2.807 -6.022,-2.482l-2.197,0.244l-2.727,-2.766l1.18,-4.761c0.611,-2.36 0,-4.314 -2.604,-6.836l-10.05,-9.969c-14.771,-14.689 -33.651,-14.242 -46.631,-1.18c-1.749,1.79 -1.953,4.231 -0.814,6.022c0.977,1.546 2.971,2.482 5.656,1.79c6.307,-1.587 12.614,-1.098 18.799,3.093l-2.604,6.591c-0.976,2.442 -0.895,4.436 0.081,6.267l-46.508,42.806c-3.907,3.621 -4.354,7.568 -0.774,11.149Zm32.675,-76.091c11.108,-8.301 24.902,-6.998 34.912,3.052l10.945,10.865c0.977,0.976 1.099,1.749 0.855,2.97l-1.587,6.51l6.551,6.551l4.029,-0.366c1.18,-0.122 1.546,-0.041 2.482,0.895l2.604,2.604l-11.475,11.434l-2.604,-2.563c-0.936,-0.936 -1.017,-1.343 -0.895,-2.523l0.366,-3.988l-6.511,-6.51l-6.754,1.302c-1.18,0.244 -1.791,0.244 -2.767,-0.773l-9.074,-9.074c-0.936,-0.977 -1.058,-1.546 -0.529,-2.889l3.947,-9.481c-6.673,-6.388 -15.462,-9.928 -23.966,-7.202c-0.367,0.122 -0.652,0.041 -0.774,-0.122c-0.122,-0.203 -0.122,-0.407 0.245,-0.692Zm-27.385,73.161c-2.034,-2.075 -1.302,-3.336 0.082,-4.598l45.654,-42.155l5.127,5.127l-42.318,45.532c-1.261,1.384 -2.848,1.791 -4.516,0.122l-4.029,-4.028Z" style="fill-rule:nonzero;"/></g><text x="5370.83px" y="8137.5px" style="font-family:'SFProDisplay-Bold', 'SF Pro Display';font-weight:700;font-size:66.667px;">Expor<tspan x="5547.36px " y="8137.5px ">t</tspan>ing</text><text x="5370.83px" y="8212.5px" style="font-family:'SFProDisplay-Regular', 'SF Pro Display';font-size:66.667px;">Symbols should be outlined when e<tspan x="6351.14px " y="8212.5px ">x</tspan>por<tspan x="6476.27px " y="8212.5px ">t</tspan>ing t<tspan x="6614.49px " y="8212.5px ">o</tspan> ensur<tspan x="6817.87px " y="8212.5px ">e</tspan> the</text><text x="5370.83px" y="8287.5px" style="font-family:'SFProDisplay-Regular', 'SF Pro Display';font-size:66.667px;">design is pr<tspan x="5685.78px " y="8287.5px ">e</tspan>serv<tspan x="5836.85px " y="8287.5px ">e</tspan>d when submitting t<tspan x="6416.7px " y="8287.5px ">o</tspan> X<tspan x="6505.79px " y="8287.5px ">c</tspan>ode.</text><text id="template-version" x="12256.1px" y="8054.17px" style="font-family:'SFProDisplay-Regular', 'SF Pro Display';font-size:66.667px;">T<tspan x="12286.1px " y="8054.17px ">e</tspan>mplat<tspan x="12476.6px " y="8054.17px ">e</tspan> v<tspan x="12551.7px 12564.7px 12592.6px " y="8054.17px 8054.17px 8054.17px ">.1.</tspan>0</text><text x="11915.3px" y="8129.17px" style="font-family:'SFProDisplay-Regular', 'SF Pro Display';font-size:66.667px;">Gener<tspan x="12085.7px 12119.2px 12138.3px " y="8129.17px 8129.17px 8129.17px ">ate</tspan>d fr<tspan x="12262.2px " y="8129.17px ">o</tspan>m triangle.fill</text><text x="12053.8px" y="8204.17px" style="font-family:'SFProDisplay-Regular', 'SF Pro Display';font-size:66.667px;">T<tspan x="12084.7px " y="8204.17px ">y</tspan>peset at 100 points</text><text x="1095.83px" y="3025px" style="font-family:'SFProDisplay-Regular', 'SF Pro Display';font-size:66.667px;">Small</text><text x="1095.83px" y="4816.67px" style="font-family:'SFProDisplay-Regular', 'SF Pro Display';font-size:66.667px;">Medium</text><text x="1095.83px" y="6608.33px" style="font-family:'SFProDisplay-Regular', 'SF Pro Display';font-size:66.667px;">Lar<tspan x="1183.17px " y="6608.33px ">g</tspan>e</text></g><g id="Guides"><g id="H-reference"><path d="M1641.38,2900l11.393,0l-112.915,-293.579l-10.376,0l-112.915,293.579l11.19,0l38.656,-101.929l136.515,0l38.452,101.929Zm-107.219,-279.541l1.018,0l64.086,168.254l-129.19,0l64.086,-168.254Z" style="fill:#27aae1;fill-rule:nonzero;"/></g><path id="Baseline-S" d="M1095.83,2900l11554.2,0" style="fill:none;fill-rule:nonzero;stroke:#27aae1;stroke-width:2.4px;"/><path id="Capline-S" d="M1095.83,2606.42l11554.2,0" style="fill:none;fill-rule:nonzero;stroke:#27aae1;stroke-width:2.4px;"/><g id="H-reference1" serif:id="H-reference"><path d="M1641.38,4691.67l11.393,0l-112.915,-293.579l-10.376,-0.001l-112.915,293.58l11.19,0l38.656,-101.929l136.515,0l38.452,101.929Zm-107.219,-279.541l1.018,0l64.086,168.253l-129.19,0l64.086,-168.253Z" style="fill:#27aae1;fill-rule:nonzero;"/></g><path id="Baseline-M" d="M1095.83,4691.67l11554.2,0" style="fill:none;fill-rule:nonzero;stroke:#27aae1;stroke-width:2.4px;"/><path id="Capline-M" d="M1095.83,4398.08l11554.2,0" style="fill:none;fill-rule:nonzero;stroke:#27aae1;stroke-width:2.4px;"/><g id="H-reference2" serif:id="H-reference"><path d="M1641.38,6483.33l11.393,0l-112.915,-293.579l-10.376,0l-112.915,293.579l11.19,0l38.656,-101.928l136.515,0l38.452,101.928Zm-107.219,-279.541l1.018,0.001l64.086,168.253l-129.19,0l64.086,-168.253Z" style="fill:#27aae1;fill-rule:nonzero;"/></g><path id="Baseline-L" d="M1095.83,6483.33l11554.2,0" style="fill:none;fill-rule:nonzero;stroke:#27aae1;stroke-width:2.4px;"/><path id="Capline-L" d="M1095.83,6189.75l11554.2,0" style="fill:none;fill-rule:nonzero;stroke:#27aae1;stroke-width:2.4px;"/><rect id="left-margin" x="5790.04" y="4294.96" width="41.504" height="497.233" style="fill:#00aeef;fill-opacity:0.4;"/><rect id="right-margin" x="6250.46" y="4294.96" width="41.504" height="497.233" style="fill:#00aeef;fill-opacity:0.4;"/></g><g id="Symbols"><g id="Black-L"><path d="M12427.5,6058.73l-410.157,0c-44.963,0 -75.888,35.401 -75.888,76.091c0,12.614 3.054,25.431 9.971,37.435l205.484,368.041c14.445,25.432 39.673,38.045 65.511,38.045c25.839,0 52.084,-12.613 65.715,-38.045l205.485,-368.448c6.917,-11.597 9.969,-24.414 9.969,-37.028c0,-40.69 -30.924,-76.091 -76.09,-76.091Z" style="fill-rule:nonzero;"/></g><g id="Heavy-L"><path d="M11191.5,6063.82l-410.767,0c-43.334,0 -72.834,33.772 -72.834,72.835c0.001,12.207 3.051,24.617 9.563,36.011l205.687,368.448c13.834,24.414 38.248,36.623 63.069,36.623c24.618,0 49.846,-12.209 63.07,-36.623l205.689,-368.652c6.713,-11.19 9.562,-23.6 9.562,-35.807c0,-39.063 -29.501,-72.835 -73.039,-72.835Z" style="fill-rule:nonzero;"/></g><g id="Bold-L"><path d="M9955.59,6069.52l-411.376,0c-41.708,0 -69.583,31.942 -69.583,69.784c0,11.596 2.85,23.193 9.158,34.179l206.094,368.856c13.021,23.194 36.418,34.994 60.018,34.994c23.397,0 47.404,-11.597 60.018,-34.994l206.095,-369.059c6.307,-10.783 9.156,-22.38 9.156,-33.976c0,-37.842 -27.873,-69.784 -69.58,-69.784Z" style="fill-rule:nonzero;"/></g><g id="Semibold-L"><path d="M8719.38,6073.38l-411.785,0c-40.487,0 -67.137,30.721 -67.137,67.342c0,11.19 2.846,22.583 8.95,33.163l206.3,369.059c12.41,22.583 34.994,33.976 57.78,33.976c22.787,0 45.776,-11.393 58.187,-33.976l206.095,-369.263c6.104,-10.376 8.952,-21.769 8.952,-32.959c0,-36.621 -26.652,-67.342 -67.342,-67.342Z" style="fill-rule:nonzero;"/></g><g id="Medium-L"><path d="M7483.29,6076.43l-412.191,0c-39.47,0 -65.308,29.703 -65.308,65.511c0,10.986 2.646,21.972 8.546,32.348l206.502,369.263c12.207,21.769 34.18,32.959 56.355,32.959c21.973,0 44.556,-10.986 56.56,-32.959l206.299,-369.67c6.103,-9.969 8.748,-20.955 8.748,-31.941c0,-35.808 -25.838,-65.511 -65.511,-65.511Z" style="fill-rule:nonzero;"/></g><g id="Regular-L"><path d="M6247.34,6080.3l-412.803,0c-38.246,0 -62.867,28.483 -62.867,63.273c0,10.376 2.442,21.159 8.142,31.128l206.704,369.466c11.8,20.955 33.163,31.942 54.321,31.942c21.363,0 43.132,-10.783 54.525,-31.942l206.706,-369.873c5.696,-9.766 8.341,-20.345 8.341,-30.721c0,-34.79 -24.821,-63.273 -63.069,-63.273Z" style="fill-rule:nonzero;"/></g><g id="Light-L"><path d="M5011.11,6083.55l-413.002,0c-37.03,0 -61.646,28.483 -61.646,61.849c0,10.376 2.441,20.752 8.137,30.721l206.908,369.67c11.394,20.345 32.349,30.924 53.101,30.924c20.752,0 42.114,-10.376 53.508,-30.924l206.909,-370.077c5.493,-9.359 7.934,-19.938 7.934,-30.314c0,-33.366 -24.821,-61.849 -61.849,-61.849Z" style="fill-rule:nonzero;"/></g><g id="Thin-L"><path d="M3775.03,6087.62l-413.413,0c-35.4,0 -59.812,28.686 -59.812,60.425c0,10.172 2.033,20.141 7.729,29.907l207.114,369.669c10.986,19.939 31.331,30.111 51.676,30.111c19.938,0 41.097,-9.969 51.88,-30.111l207.316,-370.279c5.493,-8.749 7.528,-19.125 7.528,-29.297c0,-31.739 -24.821,-60.425 -60.018,-60.425Z" style="fill-rule:nonzero;"/></g><g id="Ultralight-L"><path d="M2538.74,6089.86l-413.615,0c-34.383,0 -58.8,28.89 -58.8,59.611c0,9.969 1.834,19.938 7.53,29.5l207.113,369.67c10.986,19.531 30.924,29.5 50.862,29.5c19.735,0 40.69,-9.562 51.27,-29.5l207.52,-370.28c5.289,-8.545 7.324,-18.921 7.324,-28.89c0,-30.721 -24.822,-59.611 -59.204,-59.611Z" style="fill-rule:nonzero;"/></g><g id="Black-M"><path d="M12381.1,4324.44l-317.382,0c-36.217,0 -62.054,29.704 -62.054,62.256c0,10.58 2.237,20.956 8.137,30.925l158.896,284.831c12.004,20.752 32.552,30.924 53.711,30.924c21.159,0 42.725,-10.172 53.915,-30.924l158.894,-285.238c5.901,-9.359 8.138,-19.938 8.138,-30.518c0,-32.552 -25.838,-62.256 -62.255,-62.256Z" style="fill-rule:nonzero;"/></g><g id="Heavy-M"><path d="M11145,4329.12l-317.788,0c-34.792,0 -59.204,27.873 -59.204,59.407c0,9.766 2.442,19.735 7.729,29.094l159.303,285.237c11.19,19.939 30.924,29.704 51.066,29.704c20.142,0 40.69,-9.765 51.473,-29.704l159.098,-285.44c5.493,-8.952 7.731,-19.125 7.731,-28.891c0,-31.534 -24.21,-59.407 -59.408,-59.407Z" style="fill-rule:nonzero;"/></g><g id="Bold-M"><path d="M9909.1,4334.41l-318.603,0c-33.161,0 -55.744,25.838 -55.744,55.948c0,9.359 2.237,18.718 7.321,27.67l159.506,285.644c10.58,18.718 29.298,28.076 48.218,28.076c18.921,0 38.249,-9.358 48.422,-28.076l159.505,-285.848c5.086,-8.545 7.324,-18.107 7.324,-27.466c0,-30.11 -22.583,-55.948 -55.949,-55.948Z" style="fill-rule:nonzero;"/></g><g id="Semibold-M"><path d="M8673.02,4338.07l-318.806,0c-32.35,0 -53.712,24.414 -53.712,53.711c0,8.951 2.237,17.903 7.121,26.448l159.709,285.848c9.969,17.904 28.076,27.059 46.183,27.059c18.107,0 36.621,-9.155 46.387,-27.059l159.709,-286.051c4.883,-8.342 7.12,-17.294 7.12,-26.245c0,-29.297 -21.362,-53.711 -53.711,-53.711Z" style="fill-rule:nonzero;"/></g><g id="Medium-M"><path d="M7436.93,4340.92l-319.214,0c-31.536,0 -51.882,23.397 -51.882,52.083c0,8.545 2.038,17.294 6.717,25.432l159.911,286.051c9.766,17.497 27.262,26.245 44.759,26.245c17.497,0 35.4,-8.748 44.962,-26.245l159.709,-286.255c4.68,-7.934 6.918,-16.683 6.918,-25.228c0,-28.686 -20.346,-52.083 -51.88,-52.083Z" style="fill-rule:nonzero;"/></g><g id="Regular-M"><path d="M6200.81,4344.58l-319.621,0c-30.516,0 -49.641,21.973 -49.641,49.642c0,8.341 2.033,16.683 6.508,24.414l160.117,286.458c9.156,16.48 26.042,25.025 42.725,25.025c16.886,0 33.773,-8.545 42.928,-25.025l159.912,-286.661c4.476,-7.732 6.714,-15.87 6.714,-24.211c0,-27.669 -19.124,-49.642 -49.642,-49.642Z" style="fill-rule:nonzero;"/></g><g id="Light-M"><path d="M4964.75,4347.43l-320.028,0c-29.297,0 -48.422,21.973 -48.422,48.625c0,7.935 2.037,16.276 6.512,23.804l160.115,286.458c8.951,16.276 25.431,24.414 41.707,24.414c16.276,0 33.162,-8.138 41.911,-24.414l160.319,-286.662c4.272,-7.324 6.307,-15.665 6.307,-23.6c0,-26.652 -19.125,-48.625 -48.421,-48.625Z" style="fill-rule:nonzero;"/></g><g id="Thin-M"><path d="M3728.44,4351.09l-320.232,0c-27.668,0 -46.793,22.177 -46.793,47.201c0,7.731 1.83,15.666 6.105,23.193l160.521,286.459c8.544,15.665 24.414,23.6 40.283,23.6c15.666,0 32.145,-7.731 40.69,-23.6l160.522,-286.866c4.273,-6.917 5.901,-15.055 5.901,-22.786c0,-25.024 -19.125,-47.201 -46.997,-47.201Z" style="fill-rule:nonzero;"/></g><g id="Ultralight-M"><path d="M2492.24,4352.92l-320.435,0c-26.857,0 -45.978,22.176 -45.978,46.386c0,7.732 1.625,15.463 6.1,22.99l160.525,286.459c8.544,15.258 24.007,23.193 39.672,23.193c15.259,0 31.535,-7.528 39.877,-23.193l160.726,-286.866c4.068,-6.713 5.696,-14.851 5.696,-22.583c0,-24.21 -19.124,-46.386 -46.183,-46.386Z" style="fill-rule:nonzero;"/></g><g id="Black-S"><path d="M12346.7,2580.79l-248.617,0c-28.279,0 -48.421,23.194 -48.421,48.625c0,8.138 1.831,16.276 6.307,24.007l124.512,223.185c9.359,16.276 25.431,24.211 41.911,24.211c16.479,0 33.366,-7.935 42.114,-24.211l124.512,-223.388c4.476,-7.325 6.307,-15.666 6.307,-23.804c0,-25.431 -20.142,-48.625 -48.625,-48.625Z" style="fill-rule:nonzero;"/></g><g id="Heavy-S"><path d="M11110.7,2584.04l-249.024,0c-27.466,0 -46.387,21.769 -46.387,46.59c0,7.732 1.831,15.463 6.104,22.787l124.715,223.592c8.748,15.462 24.211,23.193 40.08,23.193c15.665,0 31.738,-7.731 40.079,-23.193l124.716,-223.796c4.272,-6.917 6.103,-14.851 6.103,-22.583c0,-24.821 -18.921,-46.59 -46.386,-46.59Z" style="fill-rule:nonzero;"/></g><g id="Bold-S"><path d="M9874.51,2587.91l-249.43,0c-26.245,0 -43.946,20.142 -43.946,43.946c0,7.324 1.832,14.851 5.901,21.769l124.918,223.795c8.342,14.648 22.99,21.973 37.842,21.973c15.055,0 30.111,-7.325 38.249,-21.973l124.715,-223.999c4.069,-6.714 5.9,-14.241 5.9,-21.565c0,-23.804 -17.7,-43.946 -44.149,-43.946Z" style="fill-rule:nonzero;"/></g><g id="Semibold-S"><path d="M8638.54,2590.35l-249.837,0c-25.635,0 -42.318,19.125 -42.318,42.521c0,6.918 1.831,14.039 5.493,20.752l125.122,224c7.935,14.038 22.177,21.362 36.622,21.362c14.241,0 28.89,-7.324 36.621,-21.362l124.918,-224.203c3.866,-6.51 5.697,-13.631 5.697,-20.549c0,-23.396 -16.683,-42.521 -42.318,-42.521Z" style="fill-rule:nonzero;"/></g><g id="Medium-S"><path d="M7402.32,2592.38l-250.041,0c-25.024,0 -41.097,18.31 -41.097,41.097c0,6.917 1.831,13.835 5.493,20.142l125.122,224.202c7.731,13.835 21.566,20.752 35.4,20.752c14.039,0 28.077,-6.917 35.604,-20.752l124.919,-224.202c3.866,-6.511 5.697,-13.225 5.697,-20.142c0,-22.787 -16.073,-41.097 -41.097,-41.097Z" style="fill-rule:nonzero;"/></g><g id="Regular-S"><path d="M6166.14,2594.82l-250.244,0c-24.413,0 -39.469,17.09 -39.469,39.47c0,6.51 1.628,13.02 5.086,19.124l125.529,224.406c7.121,13.224 20.549,20.141 33.976,20.141c13.225,0 26.652,-6.917 33.977,-20.141l125.122,-224.406c3.662,-6.104 5.493,-12.614 5.493,-19.124c0,-22.38 -15.055,-39.47 -39.47,-39.47Z" style="fill-rule:nonzero;"/></g><g id="Light-S"><path d="M4929.95,2597.27l-250.447,0c-23.398,0 -38.453,17.293 -38.453,38.452c0,6.307 1.628,12.817 5.087,18.921l125.528,224.406c7.121,12.817 19.939,19.531 32.96,19.531c13.02,0 26.245,-6.714 33.162,-19.531l125.529,-224.61c3.459,-5.9 5.086,-12.41 5.086,-18.717c0,-21.159 -15.055,-38.452 -38.452,-38.452Z" style="fill-rule:nonzero;"/></g><g id="Thin-S"><path d="M3693.85,2600.72l-250.854,0c-22.177,0 -37.028,17.497 -37.028,37.232c0,6.307 1.424,12.614 4.883,18.514l125.528,224.405c6.918,12.208 19.532,18.515 31.942,18.515c12.411,0 25.431,-6.104 32.146,-18.515l125.732,-224.812c3.255,-5.493 4.679,-11.8 4.679,-18.107c0,-19.735 -15.055,-37.232 -37.028,-37.232Z" style="fill-rule:nonzero;"/></g><g id="Ultralight-S"><path d="M2457.45,2602.35l-251.058,0c-21.159,0 -36.011,17.497 -36.011,36.621c0,6.104 1.221,12.207 4.68,18.107l125.732,224.406c6.714,12.207 18.921,18.311 31.128,18.311c12.207,0 25.025,-5.9 31.535,-18.311l125.936,-224.609c3.255,-5.493 4.476,-11.8 4.476,-17.904c0,-19.124 -15.056,-36.621 -36.418,-36.621Z" style="fill-rule:nonzero;"/></g></g></svg>