<?xml version="1.0" encoding="UTF-8" standalone="no"?><!DOCTYPE svg PUBLIC "-//W3C//DTD SVG 1.1//EN" "http://www.w3.org/Graphics/SVG/1.1/DTD/svg11.dtd"><svg width="100%" height="100%" viewBox="0 0 3300 2200" version="1.1" xmlns="http://www.w3.org/2000/svg" xmlns:xlink="http://www.w3.org/1999/xlink" xml:space="preserve" xmlns:serif="http://www.serif.com/" style="fill-rule:evenodd;clip-rule:evenodd;"><g id="Notes"><rect id="artboard" x="0" y="0" width="3300" height="2200" style="fill:#fff;"/><path d="M263,292l2773,0" style="fill:none;fill-rule:nonzero;stroke:#000;stroke-width:0.5px;"/><text x="263px" y="322px" style="font-family:'SFProDisplay-Bold', 'SF Pro Display';font-weight:700;font-size:16px;">W<tspan x="277.508px " y="322px ">e</tspan>ight/Scale V<tspan x="374.125px " y="322px ">a</tspan>riations</text><text x="529.313px" y="322px" style="font-family:'SFProDisplay-Regular', 'SF Pro Display';font-size:16px;">Ultr<tspan x="553.313px " y="322px ">a</tspan>light</text><text x="841.613px" y="322px" style="font-family:'SFProDisplay-Regular', 'SF Pro Display';font-size:16px;">Thin</text><text x="1136.18px" y="322px" style="font-family:'SFProDisplay-Regular', 'SF Pro Display';font-size:16px;">Light</text><text x="1424.23px" y="322px" style="font-family:'SFProDisplay-Regular', 'SF Pro Display';font-size:16px;">Regular</text><text x="1719.11px" y="322px" style="font-family:'SFProDisplay-Regular', 'SF Pro Display';font-size:16px;">Medium</text><text x="2011.62px" y="322px" style="font-family:'SFProDisplay-Regular', 'SF Pro Display';font-size:16px;">Semibold</text><text x="2324.84px" y="322px" style="font-family:'SFProDisplay-Regular', 'SF Pro Display';font-size:16px;">Bold</text><text x="2615.23px" y="322px" style="font-family:'SFProDisplay-Regular', 'SF Pro Display';font-size:16px;">Heavy</text><text x="2915.03px" y="322px" style="font-family:'SFProDisplay-Regular', 'SF Pro Display';font-size:16px;">Black</text><path d="M263,1903l2773,0" style="fill:none;fill-rule:nonzero;stroke:#000;stroke-width:0.5px;"/><g><path d="M272.248,1933.83c4.307,0 7.891,-3.574 7.891,-7.881c0,-4.306 -3.594,-7.881 -7.901,-7.881c-4.297,0 -7.871,3.575 -7.871,7.881c0,4.307 3.584,7.881 7.881,7.881Zm0,-1.484c-3.545,0 -6.377,-2.842 -6.377,-6.397c0,-3.554 2.822,-6.396 6.367,-6.396c3.555,0 6.397,2.841 6.406,6.396c0.01,3.555 -2.841,6.397 -6.396,6.397Zm-0.019,-2.774c0.468,0 0.742,-0.312 0.742,-0.83l0,-2.06l2.226,0c0.498,0 0.84,-0.254 0.84,-0.723c0,-0.479 -0.322,-0.742 -0.84,-0.742l-2.226,0l0,-2.227c0,-0.517 -0.274,-0.84 -0.742,-0.84c-0.469,0 -0.723,0.342 -0.723,0.84l0,2.227l-2.207,0c-0.518,0 -0.85,0.263 -0.85,0.742c0,0.469 0.352,0.723 0.85,0.723l2.207,0l0,2.06c0,0.498 0.254,0.83 0.723,0.83Z" style="fill-rule:nonzero;"/></g><g><path d="M293.215,1935.91c5.449,0 9.961,-4.512 9.961,-9.961c0,-5.439 -4.522,-9.961 -9.971,-9.961c-5.439,0 -9.951,4.522 -9.951,9.961c0,5.449 4.522,9.961 9.961,9.961Zm0,-1.66c-4.609,0 -8.291,-3.691 -8.291,-8.301c0,-4.599 3.672,-8.301 8.281,-8.301c4.61,0 8.301,3.702 8.311,8.301c0.009,4.61 -3.692,8.301 -8.301,8.301Zm-0.02,-3.662c0.518,0 0.83,-0.361 0.83,-0.928l0,-2.89l3.057,0c0.547,0 0.928,-0.284 0.928,-0.801c0,-0.528 -0.361,-0.83 -0.928,-0.83l-3.057,0l0,-3.067c0,-0.576 -0.312,-0.927 -0.83,-0.927c-0.517,0 -0.81,0.371 -0.81,0.927l0,3.067l-3.047,0c-0.566,0 -0.937,0.302 -0.937,0.83c0,0.517 0.39,0.801 0.937,0.801l3.047,0l0,2.89c0,0.547 0.293,0.928 0.81,0.928Z" style="fill-rule:nonzero;"/></g><g><path d="M319.895,1938.67c6.963,0 12.724,-5.752 12.724,-12.715c0,-6.963 -5.771,-12.715 -12.734,-12.715c-6.953,0 -12.705,5.752 -12.705,12.715c0,6.963 5.762,12.715 12.715,12.715Zm0,-1.817c-6.035,0 -10.889,-4.863 -10.889,-10.898c0,-6.035 4.844,-10.899 10.879,-10.899c6.045,0.001 10.898,4.864 10.908,10.899c0.01,6.035 -4.853,10.898 -10.898,10.898Zm-0.02,-4.921c0.567,0 0.918,-0.391 0.918,-0.997l0,-4.072l4.238,0c0.586,0 1.006,-0.332 1.006,-0.888c0,-0.577 -0.39,-0.918 -1.006,-0.918l-4.238,0l0,-4.248c0,-0.616 -0.351,-1.006 -0.918,-1.006c-0.566,0 -0.889,0.41 -0.889,1.006l0,4.248l-4.228,0c-0.615,0 -1.025,0.341 -1.025,0.918c0,0.556 0.429,0.888 1.025,0.888l4.228,0l0,4.072c0,0.586 0.323,0.997 0.889,0.997Z" style="fill-rule:nonzero;"/></g><text x="263px" y="1953px" style="font-family:'SFProDisplay-Bold', 'SF Pro Display';font-weight:700;font-size:16px;">Design V<tspan x="326.789px " y="1953px ">a</tspan>riations</text><text x="263px" y="1971px" style="font-family:'SFProDisplay-Regular', 'SF Pro Display';font-size:16px;">Symbols ar<tspan x="337.047px " y="1971px ">e</tspan> suppor<tspan x="395.711px 400.297px " y="1971px 1971px ">te</tspan>d in up t<tspan x="460.695px " y="1971px ">o</tspan> nine weights and thr<tspan x="606.523px " y="1971px ">e</tspan>e scales.</text><text x="263px" y="1989px" style="font-family:'SFProDisplay-Regular', 'SF Pro Display';font-size:16px;">F<tspan x="271.133px " y="1989px ">o</tspan>r optimal lay<tspan x="359.477px " y="1989px ">o</tspan>ut with t<tspan x="420.523px 428.563px " y="1989px 1989px ">ex</tspan>t and other symbols,<tspan x="570.547px 573.828px 581.32px 589.516px 594.758px " y="1989px 1989px 1989px 1989px 1989px "> vert</tspan>ically align</text><text x="263px" y="2007px" style="font-family:'SFProDisplay-Regular', 'SF Pro Display';font-size:16px;">symbols with the adjacent t<tspan x="444.305px 452.344px " y="2007px 2007px ">ex</tspan>t.</text><rect x="776" y="1919" width="3" height="14" style="fill:#00aeef;fill-opacity:0.4;"/><g><path d="M789.527,1933l1.846,0l-5.195,-14.092l-1.739,0l-5.195,14.092l1.846,0l1.416,-4.033l5.605,0l1.416,4.033Zm-4.248,-11.953l0.059,0l2.256,6.426l-4.571,0l2.256,-6.426Z" style="fill-rule:nonzero;"/></g><rect x="791.617" y="1919" width="3" height="14" style="fill:#00aeef;fill-opacity:0.4;"/><text x="776px" y="1953px" style="font-family:'SFProDisplay-Bold', 'SF Pro Display';font-weight:700;font-size:16px;">M<tspan x="789.641px 798.398px 803.945px " y="1953px 1953px 1953px ">arg</tspan>ins</text><text x="776px" y="1971px" style="font-family:'SFProDisplay-Regular', 'SF Pro Display';font-size:16px;">L<tspan x="784.156px " y="1971px ">e</tspan>ading and tr<tspan x="871.203px " y="1971px ">a</tspan>iling mar<tspan x="934.953px " y="1971px ">g</tspan>ins on the left and right side of each symbol</text><text x="776px" y="1989px" style="font-family:'SFProDisplay-Regular', 'SF Pro Display';font-size:16px;">can be adjust<tspan x="864.719px " y="1989px ">e</tspan>d b<tspan x="893.688px " y="1989px ">y</tspan> modifying the width of the blue r<tspan x="1117.98px " y="1989px ">e</tspan>ct<tspan x="1138.85px " y="1989px ">a</tspan>ngles.</text><text x="776px" y="2007px" style="font-family:'SFProDisplay-Regular', 'SF Pro Display';font-size:16px;">Modifications ar<tspan x="882.391px " y="2007px ">e</tspan> aut<tspan x="914.914px " y="2007px ">o</tspan>matically applied pr<tspan x="1051.82px " y="2007px ">o</tspan>por<tspan x="1082.84px " y="2007px ">t</tspan>ionally t<tspan x="1138.06px " y="2007px ">o</tspan> all</text><text x="776px" y="2025px" style="font-family:'SFProDisplay-Regular', 'SF Pro Display';font-size:16px;">scales and weights.</text><g><path d="M1291.83,1936.12l1.543,1.543c0.85,0.83 1.816,0.762 2.686,-0.195l10.214,-11.123c0.43,0.293 0.821,0.283 1.29,0.185l1.044,-0.214l0.694,0.693l-0.049,0.517c-0.068,0.528 0.098,0.948 0.596,1.446l0.81,0.81c0.508,0.508 1.162,0.537 1.641,0.059l3.252,-3.252c0.478,-0.479 0.459,-1.133 -0.049,-1.641l-0.82,-0.82c-0.498,-0.498 -0.909,-0.674 -1.446,-0.596l-0.527,0.059l-0.654,-0.664l0.283,-1.143c0.146,-0.566 0,-1.035 -0.625,-1.64l-2.412,-2.393c-3.545,-3.525 -8.076,-3.418 -11.192,-0.283c-0.42,0.43 -0.468,1.016 -0.195,1.445c0.234,0.371 0.713,0.596 1.357,0.43c1.514,-0.381 3.028,-0.264 4.512,0.742l-0.625,1.582c-0.234,0.586 -0.215,1.065 0.02,1.504l-11.162,10.273c-0.938,0.87 -1.045,1.817 -0.186,2.676Zm7.842,-18.261c2.666,-1.993 5.976,-1.68 8.379,0.732l2.627,2.607c0.234,0.235 0.263,0.42 0.205,0.713l-0.381,1.563l1.572,1.572l0.967,-0.088c0.283,-0.029 0.371,-0.01 0.596,0.215l0.625,0.625l-2.754,2.744l-0.625,-0.615c-0.225,-0.225 -0.244,-0.322 -0.215,-0.606l0.088,-0.957l-1.563,-1.562l-1.621,0.312c-0.283,0.059 -0.429,0.059 -0.664,-0.185l-2.178,-2.178c-0.224,-0.234 -0.253,-0.371 -0.126,-0.693l0.947,-2.276c-1.602,-1.533 -3.711,-2.382 -5.752,-1.728c-0.088,0.029 -0.156,0.01 -0.186,-0.029c-0.029,-0.049 -0.029,-0.098 0.059,-0.166Zm-6.572,17.558c-0.489,-0.498 -0.313,-0.801 0.019,-1.103l10.957,-10.118l1.231,1.231l-10.157,10.928c-0.302,0.332 -0.683,0.429 -1.084,0.029l-0.966,-0.967Z" style="fill-rule:nonzero;"/></g><text x="1289px" y="1953px" style="font-family:'SFProDisplay-Bold', 'SF Pro Display';font-weight:700;font-size:16px;">Expor<tspan x="1331.37px " y="1953px ">t</tspan>ing</text><text x="1289px" y="1971px" style="font-family:'SFProDisplay-Regular', 'SF Pro Display';font-size:16px;">Symbols should be outlined when e<tspan x="1524.27px " y="1971px ">x</tspan>por<tspan x="1554.31px " y="1971px ">t</tspan>ing t<tspan x="1587.48px " y="1971px ">o</tspan> ensur<tspan x="1636.29px " y="1971px ">e</tspan> the</text><text x="1289px" y="1989px" style="font-family:'SFProDisplay-Regular', 'SF Pro Display';font-size:16px;">design is pr<tspan x="1364.59px " y="1989px ">e</tspan>serv<tspan x="1400.84px " y="1989px ">e</tspan>d when submitting t<tspan x="1540.01px " y="1989px ">o</tspan> X<tspan x="1561.39px " y="1989px ">c</tspan>ode.</text><text id="template-version" x="2941.47px" y="1933px" style="font-family:'SFProDisplay-Regular', 'SF Pro Display';font-size:16px;">T<tspan x="2948.66px " y="1933px ">e</tspan>mplat<tspan x="2994.38px " y="1933px ">e</tspan> v<tspan x="3012.41px 3015.53px 3022.23px " y="1933px 1933px 1933px ">.1.</tspan>0</text><text x="2791.47px" y="1951px" style="font-family:'SFProDisplay-Regular', 'SF Pro Display';font-size:16px;">Gener<tspan x="2832.37px 2840.4px 2844.98px " y="1951px 1951px 1951px ">ate</tspan>d fr<tspan x="2874.72px " y="1951px ">o</tspan>m squar<tspan x="2936.58px " y="1951px ">e</tspan>.and.arr<tspan x="2995.72px 3004.21px 3014.72px " y="1951px 1951px 1951px ">ow.</tspan>up</text><text x="2892.91px" y="1969px" style="font-family:'SFProDisplay-Regular', 'SF Pro Display';font-size:16px;">T<tspan x="2900.34px " y="1969px ">y</tspan>peset at 100 points</text><text x="263px" y="726px" style="font-family:'SFProDisplay-Regular', 'SF Pro Display';font-size:16px;">Small</text><text x="263px" y="1156px" style="font-family:'SFProDisplay-Regular', 'SF Pro Display';font-size:16px;">Medium</text><text x="263px" y="1586px" style="font-family:'SFProDisplay-Regular', 'SF Pro Display';font-size:16px;">Lar<tspan x="283.961px " y="1586px ">g</tspan>e</text></g><g id="Guides"><g id="H-reference"><path d="M393.932,696l2.734,0l-27.1,-70.459l-2.49,0l-27.099,70.459l2.685,0l9.278,-24.463l32.763,0l9.229,24.463Zm-25.733,-67.09l0.244,0l15.381,40.381l-31.006,0l15.381,-40.381Z" style="fill:#27aae1;fill-rule:nonzero;"/></g><path id="Baseline-S" d="M263,696l2773,0" style="fill:none;fill-rule:nonzero;stroke:#27aae1;stroke-width:0.58px;"/><path id="Capline-S" d="M263,625.541l2773,0" style="fill:none;fill-rule:nonzero;stroke:#27aae1;stroke-width:0.58px;"/><g id="H-reference1" serif:id="H-reference"><path d="M393.932,1126l2.734,0l-27.1,-70.459l-2.49,0l-27.099,70.459l2.685,0l9.278,-24.463l32.763,0l9.229,24.463Zm-25.733,-67.09l0.244,0l15.381,40.381l-31.006,0l15.381,-40.381Z" style="fill:#27aae1;fill-rule:nonzero;"/></g><path id="Baseline-M" d="M263,1126l2773,0" style="fill:none;fill-rule:nonzero;stroke:#27aae1;stroke-width:0.58px;"/><path id="Capline-M" d="M263,1055.54l2773,0" style="fill:none;fill-rule:nonzero;stroke:#27aae1;stroke-width:0.58px;"/><g id="H-reference2" serif:id="H-reference"><path d="M393.932,1556l2.734,0l-27.1,-70.459l-2.49,0l-27.099,70.459l2.685,0l9.278,-24.463l32.763,0l9.229,24.463Zm-25.733,-67.09l0.244,0l15.381,40.381l-31.006,0l15.381,-40.381Z" style="fill:#27aae1;fill-rule:nonzero;"/></g><path id="Baseline-L" d="M263,1556l2773,0" style="fill:none;fill-rule:nonzero;stroke:#27aae1;stroke-width:0.58px;"/><path id="Capline-L" d="M263,1485.54l2773,0" style="fill:none;fill-rule:nonzero;stroke:#27aae1;stroke-width:0.58px;"/><rect id="left-margin" x="1394.06" y="1030.79" width="12.451" height="119.336" style="fill:#00aeef;fill-opacity:0.4;"/><rect id="right-margin" x="1493.18" y="1030.79" width="12.451" height="119.336" style="fill:#00aeef;fill-opacity:0.4;"/></g><g id="Symbols"><g id="Black-L"><g id="Heavy-L"><g id="Bold-L"><g id="Semibold-L"><g id="Medium-L"><g id="Regular-L"><g id="Light-L"><g id="Thin-L"><g id="Ultralight-L"><g id="Ultralight-M"><g id="Ultralight-S"><g><rect x="2875.3" y="1468.58" width="110.974" height="108.316" style="fill:none;stroke:#000;stroke-width:8px;stroke-linecap:round;stroke-linejoin:round;stroke-miterlimit:1.5;"/><rect x="2875.3" y="1491.09" width="110.974" height="65.003" style="fill:none;stroke:#000;stroke-width:8px;stroke-linecap:round;stroke-linejoin:round;stroke-miterlimit:1.5;"/></g></g></g></g></g></g></g></g></g></g></g></g><g id="Heavy-L1" serif:id="Heavy-L"><g id="Bold-L1" serif:id="Bold-L"><g id="Semibold-L1" serif:id="Semibold-L"><g id="Medium-L1" serif:id="Medium-L"><g id="Regular-L1" serif:id="Regular-L"><g id="Light-L1" serif:id="Light-L"><g id="Thin-L1" serif:id="Thin-L"><g id="Ultralight-L1" serif:id="Ultralight-L"><g id="Ultralight-M1" serif:id="Ultralight-M"><g id="Ultralight-S1" serif:id="Ultralight-S"><g><rect x="2581.3" y="1468.58" width="110.974" height="108.316" style="fill:none;stroke:#000;stroke-width:7px;stroke-linecap:round;stroke-linejoin:round;stroke-miterlimit:1.5;"/><rect x="2581.3" y="1491.09" width="110.974" height="65.003" style="fill:none;stroke:#000;stroke-width:7px;stroke-linecap:round;stroke-linejoin:round;stroke-miterlimit:1.5;"/></g></g></g></g></g></g></g></g></g></g></g><g id="Bold-L2" serif:id="Bold-L"><g id="Semibold-L2" serif:id="Semibold-L"><g id="Medium-L2" serif:id="Medium-L"><g id="Regular-L2" serif:id="Regular-L"><g id="Light-L2" serif:id="Light-L"><g id="Thin-L2" serif:id="Thin-L"><g id="Ultralight-L2" serif:id="Ultralight-L"><g id="Ultralight-M2" serif:id="Ultralight-M"><g id="Ultralight-S2" serif:id="Ultralight-S"><g><rect x="2283.3" y="1468.58" width="110.974" height="108.316" style="fill:none;stroke:#000;stroke-width:6px;stroke-linecap:round;stroke-linejoin:round;stroke-miterlimit:1.5;"/><rect x="2283.3" y="1491.09" width="110.974" height="65.003" style="fill:none;stroke:#000;stroke-width:6px;stroke-linecap:round;stroke-linejoin:round;stroke-miterlimit:1.5;"/></g></g></g></g></g></g></g></g></g></g><g id="Semibold-L3" serif:id="Semibold-L"><g id="Medium-L3" serif:id="Medium-L"><g id="Regular-L3" serif:id="Regular-L"><g id="Light-L3" serif:id="Light-L"><g id="Thin-L3" serif:id="Thin-L"><g id="Ultralight-L3" serif:id="Ultralight-L"><g id="Ultralight-M3" serif:id="Ultralight-M"><g id="Ultralight-S3" serif:id="Ultralight-S"><g><rect x="1987.3" y="1468.58" width="110.974" height="108.316" style="fill:none;stroke:#000;stroke-width:5px;stroke-linecap:round;stroke-linejoin:round;stroke-miterlimit:1.5;"/><rect x="1987.3" y="1491.09" width="110.974" height="65.003" style="fill:none;stroke:#000;stroke-width:5px;stroke-linecap:round;stroke-linejoin:round;stroke-miterlimit:1.5;"/></g></g></g></g></g></g></g></g></g><g id="Medium-L4" serif:id="Medium-L"><g id="Regular-L4" serif:id="Regular-L"><g id="Light-L4" serif:id="Light-L"><g id="Thin-L4" serif:id="Thin-L"><g id="Ultralight-L4" serif:id="Ultralight-L"><g id="Ultralight-M4" serif:id="Ultralight-M"><g id="Ultralight-S4" serif:id="Ultralight-S"><g><rect x="1688.3" y="1468.58" width="110.974" height="108.316" style="fill:none;stroke:#000;stroke-width:4px;stroke-linecap:round;stroke-linejoin:round;stroke-miterlimit:1.5;"/><rect x="1688.3" y="1491.09" width="110.974" height="65.003" style="fill:none;stroke:#000;stroke-width:4px;stroke-linecap:round;stroke-linejoin:round;stroke-miterlimit:1.5;"/></g></g></g></g></g></g></g></g><g id="Regular-L5" serif:id="Regular-L"><g id="Light-L5" serif:id="Light-L"><g id="Thin-L5" serif:id="Thin-L"><g id="Ultralight-L5" serif:id="Ultralight-L"><g id="Ultralight-M5" serif:id="Ultralight-M"><g id="Ultralight-S5" serif:id="Ultralight-S"><g><rect x="1395.28" y="1468.58" width="110.974" height="108.316" style="fill:none;stroke:#000;stroke-width:3px;stroke-linecap:round;stroke-linejoin:round;stroke-miterlimit:1.5;"/><rect x="1395.28" y="1491.09" width="110.974" height="65.003" style="fill:none;stroke:#000;stroke-width:3px;stroke-linecap:round;stroke-linejoin:round;stroke-miterlimit:1.5;"/></g></g></g></g></g></g></g><g id="Light-L6" serif:id="Light-L"><g id="Thin-L6" serif:id="Thin-L"><g id="Ultralight-L6" serif:id="Ultralight-L"><g id="Ultralight-M6" serif:id="Ultralight-M"><g id="Ultralight-S6" serif:id="Ultralight-S"><g><rect x="1098.75" y="1468.58" width="110.974" height="108.316" style="fill:none;stroke:#000;stroke-width:2px;stroke-linecap:round;stroke-linejoin:round;stroke-miterlimit:1.5;"/><rect x="1098.75" y="1491.09" width="110.974" height="65.003" style="fill:none;stroke:#000;stroke-width:2px;stroke-linecap:round;stroke-linejoin:round;stroke-miterlimit:1.5;"/></g></g></g></g></g></g><g id="Thin-L7" serif:id="Thin-L"><g id="Ultralight-L7" serif:id="Ultralight-L"><g id="Ultralight-M7" serif:id="Ultralight-M"><g id="Ultralight-S7" serif:id="Ultralight-S"><g><rect x="802.745" y="1468.58" width="110.974" height="108.316" style="fill:none;stroke:#000;stroke-width:1px;stroke-linecap:round;stroke-linejoin:round;stroke-miterlimit:1.5;"/><rect x="802.745" y="1491.09" width="110.974" height="65.003" style="fill:none;stroke:#000;stroke-width:1px;stroke-linecap:round;stroke-linejoin:round;stroke-miterlimit:1.5;"/></g></g></g></g></g><g id="Ultralight-L8" serif:id="Ultralight-L"><g id="Ultralight-M8" serif:id="Ultralight-M"><g id="Ultralight-S8" serif:id="Ultralight-S"><g><rect x="504.745" y="1468.58" width="110.974" height="108.316" style="fill:none;stroke:#000;stroke-width:0.7px;stroke-linecap:round;stroke-linejoin:round;stroke-miterlimit:1.5;"/><rect x="504.745" y="1491.09" width="110.974" height="65.003" style="fill:none;stroke:#000;stroke-width:0.7px;stroke-linecap:round;stroke-linejoin:round;stroke-miterlimit:1.5;"/></g></g></g></g><g id="Black-M"><g id="Heavy-M"><g id="Semibold-M"><g id="Medium-M"><g id="Regular-M"><g id="Thin-M"><g id="Ultralight-M9" serif:id="Ultralight-M"><g id="Ultralight-S9" serif:id="Ultralight-S"><g><rect x="2884.49" y="1044.65" width="94.974" height="92.699" style="fill:none;stroke:#000;stroke-width:8px;stroke-linecap:round;stroke-linejoin:round;stroke-miterlimit:1.5;"/><rect x="2884.49" y="1063.91" width="94.974" height="55.631" style="fill:none;stroke:#000;stroke-width:8px;stroke-linecap:round;stroke-linejoin:round;stroke-miterlimit:1.5;"/></g></g></g></g></g></g></g></g></g><g id="Heavy-M1" serif:id="Heavy-M"><g id="Semibold-M1" serif:id="Semibold-M"><g id="Medium-M1" serif:id="Medium-M"><g id="Regular-M1" serif:id="Regular-M"><g id="Thin-M1" serif:id="Thin-M"><g id="Ultralight-M10" serif:id="Ultralight-M"><g id="Ultralight-S10" serif:id="Ultralight-S"><g><rect x="2589.49" y="1044.65" width="94.974" height="92.699" style="fill:none;stroke:#000;stroke-width:7px;stroke-linecap:round;stroke-linejoin:round;stroke-miterlimit:1.5;"/><rect x="2589.49" y="1063.91" width="94.974" height="55.631" style="fill:none;stroke:#000;stroke-width:7px;stroke-linecap:round;stroke-linejoin:round;stroke-miterlimit:1.5;"/></g></g></g></g></g></g></g></g><g id="Bold-M"><g id="Semibold-M2" serif:id="Semibold-M"><g id="Medium-M2" serif:id="Medium-M"><g id="Regular-M2" serif:id="Regular-M"><g id="Thin-M2" serif:id="Thin-M"><g id="Ultralight-M11" serif:id="Ultralight-M"><g id="Ultralight-S11" serif:id="Ultralight-S"><g><rect x="2292.49" y="1044.65" width="94.974" height="92.699" style="fill:none;stroke:#000;stroke-width:6px;stroke-linecap:round;stroke-linejoin:round;stroke-miterlimit:1.5;"/><rect x="2292.49" y="1063.91" width="94.974" height="55.631" style="fill:none;stroke:#000;stroke-width:6px;stroke-linecap:round;stroke-linejoin:round;stroke-miterlimit:1.5;"/></g></g></g></g></g></g></g></g><g id="Semibold-M3" serif:id="Semibold-M"><g id="Medium-M3" serif:id="Medium-M"><g id="Regular-M3" serif:id="Regular-M"><g id="Thin-M3" serif:id="Thin-M"><g id="Ultralight-M12" serif:id="Ultralight-M"><g id="Ultralight-S12" serif:id="Ultralight-S"><g><rect x="1995.78" y="1044.65" width="94.974" height="92.699" style="fill:none;stroke:#000;stroke-width:5px;stroke-linecap:round;stroke-linejoin:round;stroke-miterlimit:1.5;"/><rect x="1995.78" y="1063.91" width="94.974" height="55.631" style="fill:none;stroke:#000;stroke-width:5px;stroke-linecap:round;stroke-linejoin:round;stroke-miterlimit:1.5;"/></g></g></g></g></g></g></g><g id="Medium-M4" serif:id="Medium-M"><g id="Regular-M4" serif:id="Regular-M"><g id="Thin-M4" serif:id="Thin-M"><g id="Ultralight-M13" serif:id="Ultralight-M"><g id="Ultralight-S13" serif:id="Ultralight-S"><g><rect x="1402.43" y="1044.65" width="94.974" height="92.699" style="fill:none;stroke:#000;stroke-width:3px;stroke-linecap:round;stroke-linejoin:round;stroke-miterlimit:1.5;"/><rect x="1402.43" y="1063.91" width="94.974" height="55.631" style="fill:none;stroke:#000;stroke-width:3px;stroke-linecap:round;stroke-linejoin:round;stroke-miterlimit:1.5;"/></g></g></g></g></g></g><g id="Regular-M5" serif:id="Regular-M"><g id="Thin-M5" serif:id="Thin-M"><g id="Ultralight-M14" serif:id="Ultralight-M"><g id="Ultralight-S14" serif:id="Ultralight-S"><g><rect x="1697.4" y="1044.65" width="94.974" height="92.699" style="fill:none;stroke:#000;stroke-width:4px;stroke-linecap:round;stroke-linejoin:round;stroke-miterlimit:1.5;"/><rect x="1697.4" y="1063.91" width="94.974" height="55.631" style="fill:none;stroke:#000;stroke-width:4px;stroke-linecap:round;stroke-linejoin:round;stroke-miterlimit:1.5;"/></g></g></g></g></g><g id="Light-M"><g id="Thin-M6" serif:id="Thin-M"><g id="Ultralight-M15" serif:id="Ultralight-M"><g id="Ultralight-S15" serif:id="Ultralight-S"><g><rect x="1104.27" y="1044.65" width="94.974" height="92.699" style="fill:none;stroke:#000;stroke-width:2px;stroke-linecap:round;stroke-linejoin:round;stroke-miterlimit:1.5;"/><rect x="1104.27" y="1063.91" width="94.974" height="55.631" style="fill:none;stroke:#000;stroke-width:2px;stroke-linecap:round;stroke-linejoin:round;stroke-miterlimit:1.5;"/></g></g></g></g></g><g id="Thin-M7" serif:id="Thin-M"><g id="Ultralight-M16" serif:id="Ultralight-M"><g id="Ultralight-S16" serif:id="Ultralight-S"><g><rect x="808.935" y="1044.65" width="94.974" height="92.699" style="fill:none;stroke:#000;stroke-width:1px;stroke-linecap:round;stroke-linejoin:round;stroke-miterlimit:1.5;"/><rect x="808.935" y="1063.91" width="94.974" height="55.631" style="fill:none;stroke:#000;stroke-width:1px;stroke-linecap:round;stroke-linejoin:round;stroke-miterlimit:1.5;"/></g></g></g></g><g id="Ultralight-M17" serif:id="Ultralight-M"><g id="Ultralight-S17" serif:id="Ultralight-S"><g><rect x="512.248" y="1044.65" width="94.974" height="92.699" style="fill:none;stroke:#000;stroke-width:0.6px;stroke-linecap:round;stroke-linejoin:round;stroke-miterlimit:1.5;"/><rect x="512.248" y="1063.91" width="94.974" height="55.631" style="fill:none;stroke:#000;stroke-width:0.6px;stroke-linecap:round;stroke-linejoin:round;stroke-miterlimit:1.5;"/></g></g></g><g id="Black-S"><g id="Heavy-S"><g id="Bold-S"><g id="Semibold-S"><g id="Medium-S"><g id="Regular-S"><g id="Light-S"><g id="Thin-S"><g id="Ultralight-S18" serif:id="Ultralight-S"><g><rect x="2893.78" y="620.421" width="78.974" height="77.083" style="fill:none;stroke:#000;stroke-width:8px;stroke-linecap:round;stroke-linejoin:round;stroke-miterlimit:1.5;"/><rect x="2893.78" y="636.438" width="78.974" height="46.259" style="fill:none;stroke:#000;stroke-width:8px;stroke-linecap:round;stroke-linejoin:round;stroke-miterlimit:1.5;"/></g></g></g></g></g></g></g></g></g></g><g id="Heavy-S1" serif:id="Heavy-S"><g id="Bold-S1" serif:id="Bold-S"><g id="Semibold-S1" serif:id="Semibold-S"><g id="Medium-S1" serif:id="Medium-S"><g id="Regular-S1" serif:id="Regular-S"><g id="Light-S1" serif:id="Light-S"><g id="Thin-S1" serif:id="Thin-S"><g id="Ultralight-S19" serif:id="Ultralight-S"><g><rect x="2597.78" y="620.421" width="78.974" height="77.083" style="fill:none;stroke:#000;stroke-width:7px;stroke-linecap:round;stroke-linejoin:round;stroke-miterlimit:1.5;"/><rect x="2597.78" y="636.438" width="78.974" height="46.259" style="fill:none;stroke:#000;stroke-width:7px;stroke-linecap:round;stroke-linejoin:round;stroke-miterlimit:1.5;"/></g></g></g></g></g></g></g></g></g><g id="Bold-S2" serif:id="Bold-S"><g id="Semibold-S2" serif:id="Semibold-S"><g id="Medium-S2" serif:id="Medium-S"><g id="Regular-S2" serif:id="Regular-S"><g id="Light-S2" serif:id="Light-S"><g id="Thin-S2" serif:id="Thin-S"><g id="Ultralight-S20" serif:id="Ultralight-S"><g><rect x="2300.93" y="620.421" width="78.974" height="77.083" style="fill:none;stroke:#000;stroke-width:6px;stroke-linecap:round;stroke-linejoin:round;stroke-miterlimit:1.5;"/><rect x="2300.93" y="636.438" width="78.974" height="46.259" style="fill:none;stroke:#000;stroke-width:6px;stroke-linecap:round;stroke-linejoin:round;stroke-miterlimit:1.5;"/></g></g></g></g></g></g></g></g><g id="Semibold-S3" serif:id="Semibold-S"><g id="Medium-S3" serif:id="Medium-S"><g id="Regular-S3" serif:id="Regular-S"><g id="Light-S3" serif:id="Light-S"><g id="Thin-S3" serif:id="Thin-S"><g id="Ultralight-S21" serif:id="Ultralight-S"><g><rect x="2002.93" y="620.421" width="78.974" height="77.083" style="fill:none;stroke:#000;stroke-width:5px;stroke-linecap:round;stroke-linejoin:round;stroke-miterlimit:1.5;"/><rect x="2002.93" y="636.438" width="78.974" height="46.259" style="fill:none;stroke:#000;stroke-width:5px;stroke-linecap:round;stroke-linejoin:round;stroke-miterlimit:1.5;"/></g></g></g></g></g></g></g><g id="Medium-S4" serif:id="Medium-S"><g id="Regular-S4" serif:id="Regular-S"><g id="Light-S4" serif:id="Light-S"><g id="Thin-S4" serif:id="Thin-S"><g id="Ultralight-S22" serif:id="Ultralight-S"><g><rect x="1706.93" y="620.421" width="78.974" height="77.083" style="fill:none;stroke:#000;stroke-width:4px;stroke-linecap:round;stroke-linejoin:round;stroke-miterlimit:1.5;"/><rect x="1706.93" y="636.438" width="78.974" height="46.259" style="fill:none;stroke:#000;stroke-width:4px;stroke-linecap:round;stroke-linejoin:round;stroke-miterlimit:1.5;"/></g></g></g></g></g></g><g id="Regular-S5" serif:id="Regular-S"><g id="Light-S5" serif:id="Light-S"><g id="Thin-S5" serif:id="Thin-S"><g id="Ultralight-S23" serif:id="Ultralight-S"><g><rect x="1410.93" y="620.421" width="78.974" height="77.083" style="fill:none;stroke:#000;stroke-width:3px;stroke-linecap:round;stroke-linejoin:round;stroke-miterlimit:1.5;"/><rect x="1410.93" y="636.438" width="78.974" height="46.259" style="fill:none;stroke:#000;stroke-width:3px;stroke-linecap:round;stroke-linejoin:round;stroke-miterlimit:1.5;"/></g></g></g></g></g><g id="Light-S6" serif:id="Light-S"><g id="Thin-S6" serif:id="Thin-S"><g id="Ultralight-S24" serif:id="Ultralight-S"><g><rect x="1113.93" y="620.421" width="78.974" height="77.083" style="fill:none;stroke:#000;stroke-width:2px;stroke-linecap:round;stroke-linejoin:round;stroke-miterlimit:1.5;"/><rect x="1113.93" y="636.438" width="78.974" height="46.259" style="fill:none;stroke:#000;stroke-width:2px;stroke-linecap:round;stroke-linejoin:round;stroke-miterlimit:1.5;"/></g></g></g></g><g id="Thin-S7" serif:id="Thin-S"><g id="Ultralight-S25" serif:id="Ultralight-S"><g><rect x="816.935" y="620.421" width="78.974" height="77.083" style="fill:none;stroke:#000;stroke-width:1px;stroke-linecap:round;stroke-linejoin:round;stroke-miterlimit:1.5;"/><rect x="816.935" y="636.438" width="78.974" height="46.259" style="fill:none;stroke:#000;stroke-width:1px;stroke-linecap:round;stroke-linejoin:round;stroke-miterlimit:1.5;"/></g></g></g><g id="Ultralight-S26" serif:id="Ultralight-S"><g><rect x="519.745" y="620.421" width="78.974" height="77.083" style="fill:none;stroke:#000;stroke-width:0.5px;stroke-linecap:round;stroke-linejoin:round;stroke-miterlimit:1.5;"/><rect x="519.745" y="636.438" width="78.974" height="46.259" style="fill:none;stroke:#000;stroke-width:0.5px;stroke-linecap:round;stroke-linejoin:round;stroke-miterlimit:1.5;"/></g></g></g></svg>