<?xml version="1.0" encoding="UTF-8" standalone="no"?><!DOCTYPE svg PUBLIC "-//W3C//DTD SVG 1.1//EN" "http://www.w3.org/Graphics/SVG/1.1/DTD/svg11.dtd"><svg width="100%" height="100%" viewBox="0 0 13750 9167" version="1.1" xmlns="http://www.w3.org/2000/svg" xmlns:xlink="http://www.w3.org/1999/xlink" xml:space="preserve" xmlns:serif="http://www.serif.com/" style="fill-rule:evenodd;clip-rule:evenodd;"><g id="Notes"><rect id="artboard" x="0" y="0" width="13750" height="9166.67" style="fill:#fff;"/><path d="M1095.83,1216.67l11554.2,0" style="fill:none;fill-rule:nonzero;stroke:#000;stroke-width:2.08px;"/><text x="1095.83px" y="1341.67px" style="font-family:'SFProDisplay-Bold', 'SF Pro Display';font-weight:700;font-size:66.667px;">W<tspan x="1156.28px " y="1341.67px ">e</tspan>ight/Scale V<tspan x="1558.85px " y="1341.67px ">a</tspan>riations</text><text x="2205.47px" y="1341.67px" style="font-family:'SFProDisplay-Regular', 'SF Pro Display';font-size:66.667px;">Ultr<tspan x="2305.47px " y="1341.67px ">a</tspan>light</text><text x="3506.72px" y="1341.67px" style="font-family:'SFProDisplay-Regular', 'SF Pro Display';font-size:66.667px;">Thin</text><text x="4734.1px" y="1341.67px" style="font-family:'SFProDisplay-Regular', 'SF Pro Display';font-size:66.667px;">Light</text><text x="5934.28px" y="1341.67px" style="font-family:'SFProDisplay-Regular', 'SF Pro Display';font-size:66.667px;">Regular</text><text x="7162.96px" y="1341.67px" style="font-family:'SFProDisplay-Regular', 'SF Pro Display';font-size:66.667px;">Medium</text><text x="8381.77px" y="1341.67px" style="font-family:'SFProDisplay-Regular', 'SF Pro Display';font-size:66.667px;">Semibold</text><text x="9686.81px" y="1341.67px" style="font-family:'SFProDisplay-Regular', 'SF Pro Display';font-size:66.667px;">Bold</text><text x="10896.8px" y="1341.67px" style="font-family:'SFProDisplay-Regular', 'SF Pro Display';font-size:66.667px;">Heavy</text><text x="12145.9px" y="1341.67px" style="font-family:'SFProDisplay-Regular', 'SF Pro Display';font-size:66.667px;">Black</text><path d="M1095.83,7929.17l11554.2,0" style="fill:none;fill-rule:nonzero;stroke:#000;stroke-width:2.08px;"/><g><path d="M1134.37,8057.62c17.944,0 32.878,-14.892 32.878,-32.837c0,-17.944 -14.975,-32.836 -32.919,-32.836c-17.903,0 -32.796,14.892 -32.796,32.836c0,17.945 14.933,32.837 32.837,32.837Zm0,-6.185c-14.771,0 -26.571,-11.84 -26.571,-26.652c0,-14.811 11.76,-26.652 26.53,-26.652c14.812,0 26.652,11.841 26.693,26.652c0.041,14.812 -11.841,26.652 -26.652,26.652Zm-0.081,-11.556c1.953,0 3.092,-1.302 3.092,-3.458l0,-8.586l9.277,0c2.075,0 3.5,-1.058 3.5,-3.011c0,-1.994 -1.343,-3.092 -3.5,-3.092l-9.277,0l0,-9.278c0,-2.156 -1.139,-3.499 -3.092,-3.499c-1.954,0 -3.012,1.424 -3.012,3.499l0,9.278l-9.196,0c-2.156,0 -3.54,1.098 -3.54,3.092c0,1.953 1.465,3.011 3.54,3.011l9.196,0l0,8.586c0,2.075 1.058,3.458 3.012,3.458Z" style="fill-rule:nonzero;"/></g><g><path d="M1221.73,8066.29c22.705,0 41.504,-18.798 41.504,-41.504c0,-22.664 -18.84,-41.503 -41.545,-41.503c-22.664,0 -41.463,18.839 -41.463,41.503c0,22.706 18.84,41.504 41.504,41.504Zm0,-6.917c-19.206,0 -34.546,-15.381 -34.546,-34.587c0,-19.165 15.3,-34.586 34.505,-34.586c19.206,0 34.587,15.421 34.628,34.586c0.04,19.206 -15.381,34.587 -34.587,34.587Zm-0.081,-15.259c2.156,0 3.458,-1.505 3.458,-3.865l0,-12.045l12.736,0c2.279,0 3.866,-1.18 3.866,-3.336c0,-2.197 -1.506,-3.459 -3.866,-3.459l-12.736,0l0,-12.776c0,-2.401 -1.302,-3.866 -3.458,-3.866c-2.157,0 -3.378,1.546 -3.378,3.866l0,12.776l-12.695,0c-2.36,0 -3.906,1.262 -3.906,3.459c0,2.156 1.627,3.336 3.906,3.336l12.695,0l0,12.045c0,2.278 1.221,3.865 3.378,3.865Z" style="fill-rule:nonzero;"/></g><g><path d="M1332.89,8077.81c29.012,0 53.019,-23.967 53.019,-52.979c0,-29.012 -24.048,-52.979 -53.06,-52.979c-28.971,0 -52.938,23.967 -52.938,52.979c0,29.012 24.007,52.979 52.979,52.979Zm0,-7.569c-25.147,0 -45.37,-20.263 -45.37,-45.41c0,-25.146 20.182,-45.41 45.329,-45.41c25.187,0 45.41,20.264 45.451,45.41c0.04,25.147 -20.223,45.41 -45.41,45.41Zm-0.082,-20.508c2.36,0 3.825,-1.627 3.825,-4.15l0,-16.968l17.659,0c2.442,0 4.192,-1.383 4.192,-3.703c0,-2.4 -1.628,-3.824 -4.192,-3.824l-17.659,0l0,-17.701c0,-2.563 -1.465,-4.191 -3.825,-4.191c-2.36,0 -3.703,1.709 -3.703,4.191l0,17.701l-17.618,0c-2.564,0 -4.273,1.424 -4.273,3.824c0,2.32 1.79,3.703 4.273,3.703l17.618,0l0,16.968c0,2.441 1.343,4.15 3.703,4.15Z" style="fill-rule:nonzero;"/></g><text x="1095.83px" y="8137.5px" style="font-family:'SFProDisplay-Bold', 'SF Pro Display';font-weight:700;font-size:66.667px;">Design V<tspan x="1361.62px " y="8137.5px ">a</tspan>riations</text><text x="1095.83px" y="8212.5px" style="font-family:'SFProDisplay-Regular', 'SF Pro Display';font-size:66.667px;">Symbols ar<tspan x="1404.36px " y="8212.5px ">e</tspan> suppor<tspan x="1648.8px 1667.9px " y="8212.5px 8212.5px ">te</tspan>d in up t<tspan x="1919.56px " y="8212.5px ">o</tspan> nine weights and thr<tspan x="2527.18px " y="8212.5px ">e</tspan>e scales.</text><text x="1095.83px" y="8287.5px" style="font-family:'SFProDisplay-Regular', 'SF Pro Display';font-size:66.667px;">F<tspan x="1129.72px " y="8287.5px ">o</tspan>r optimal lay<tspan x="1497.82px " y="8287.5px ">o</tspan>ut with t<tspan x="1752.18px 1785.68px " y="8287.5px 8287.5px ">ex</tspan>t and other symbols,<tspan x="2377.28px 2390.95px 2422.17px 2456.32px 2478.16px " y="8287.5px 8287.5px 8287.5px 8287.5px 8287.5px "> vert</tspan>ically align</text><text x="1095.83px" y="8362.5px" style="font-family:'SFProDisplay-Regular', 'SF Pro Display';font-size:66.667px;">symbols with the adjacent t<tspan x="1851.27px 1884.77px " y="8362.5px 8362.5px ">ex</tspan>t.</text><rect x="3233.33" y="7995.83" width="12.5" height="58.333" style="fill:#00aeef;fill-opacity:0.4;"/><g><path d="M3289.7,8054.17l7.691,0l-21.647,-58.716l-7.243,0l-21.647,58.716l7.69,0l5.9,-16.805l23.356,0l5.9,16.805Zm-17.7,-49.805l0.244,0l9.4,26.774l-19.043,0l9.399,-26.774Z" style="fill-rule:nonzero;"/></g><rect x="3298.4" y="7995.83" width="12.5" height="58.333" style="fill:#00aeef;fill-opacity:0.4;"/><text x="3233.33px" y="8137.5px" style="font-family:'SFProDisplay-Bold', 'SF Pro Display';font-weight:700;font-size:66.667px;">M<tspan x="3290.17px 3326.66px 3349.77px " y="8137.5px 8137.5px 8137.5px ">arg</tspan>ins</text><text x="3233.33px" y="8212.5px" style="font-family:'SFProDisplay-Regular', 'SF Pro Display';font-size:66.667px;">L<tspan x="3267.32px " y="8212.5px ">e</tspan>ading and tr<tspan x="3630.01px " y="8212.5px ">a</tspan>iling mar<tspan x="3895.64px " y="8212.5px ">g</tspan>ins on the left and right side of each symbol</text><text x="3233.33px" y="8287.5px" style="font-family:'SFProDisplay-Regular', 'SF Pro Display';font-size:66.667px;">can be adjust<tspan x="3602.99px " y="8287.5px ">e</tspan>d b<tspan x="3723.7px " y="8287.5px ">y</tspan> modifying the width of the blue r<tspan x="4658.24px " y="8287.5px ">e</tspan>ct<tspan x="4745.22px " y="8287.5px ">a</tspan>ngles.</text><text x="3233.33px" y="8362.5px" style="font-family:'SFProDisplay-Regular', 'SF Pro Display';font-size:66.667px;">Modifications ar<tspan x="3676.63px " y="8362.5px ">e</tspan> aut<tspan x="3812.14px " y="8362.5px ">o</tspan>matically applied pr<tspan x="4382.59px " y="8362.5px ">o</tspan>por<tspan x="4511.82px " y="8362.5px ">t</tspan>ionally t<tspan x="4741.9px " y="8362.5px ">o</tspan> all</text><text x="3233.33px" y="8437.5px" style="font-family:'SFProDisplay-Regular', 'SF Pro Display';font-size:66.667px;">scales and weights.</text><g><path d="M5382.63,8067.15l6.43,6.429c3.54,3.459 7.568,3.174 11.189,-0.814l42.562,-46.346c1.791,1.221 3.418,1.18 5.371,0.773l4.354,-0.895l2.889,2.889l-0.203,2.157c-0.285,2.197 0.407,3.946 2.482,6.022l3.377,3.377c2.116,2.116 4.842,2.238 6.836,0.244l13.55,-13.55c1.993,-1.994 1.912,-4.72 -0.204,-6.836l-3.418,-3.418c-2.075,-2.075 -3.784,-2.807 -6.022,-2.482l-2.197,0.244l-2.727,-2.766l1.18,-4.761c0.611,-2.36 0,-4.314 -2.604,-6.836l-10.05,-9.969c-14.771,-14.689 -33.651,-14.242 -46.631,-1.18c-1.749,1.79 -1.953,4.231 -0.814,6.022c0.977,1.546 2.971,2.482 5.656,1.79c6.307,-1.587 12.614,-1.098 18.799,3.093l-2.604,6.591c-0.976,2.442 -0.895,4.436 0.081,6.267l-46.508,42.806c-3.907,3.621 -4.354,7.568 -0.774,11.149Zm32.675,-76.091c11.108,-8.301 24.902,-6.998 34.912,3.052l10.945,10.865c0.977,0.976 1.099,1.749 0.855,2.97l-1.587,6.51l6.551,6.551l4.029,-0.366c1.18,-0.122 1.546,-0.041 2.482,0.895l2.604,2.604l-11.475,11.434l-2.604,-2.563c-0.936,-0.936 -1.017,-1.343 -0.895,-2.523l0.366,-3.988l-6.511,-6.51l-6.754,1.302c-1.18,0.244 -1.791,0.244 -2.767,-0.773l-9.074,-9.074c-0.936,-0.977 -1.058,-1.546 -0.529,-2.889l3.947,-9.481c-6.673,-6.388 -15.462,-9.928 -23.966,-7.202c-0.367,0.122 -0.652,0.041 -0.774,-0.122c-0.122,-0.203 -0.122,-0.407 0.245,-0.692Zm-27.385,73.161c-2.034,-2.075 -1.302,-3.336 0.082,-4.598l45.654,-42.155l5.127,5.127l-42.318,45.532c-1.261,1.384 -2.848,1.791 -4.516,0.122l-4.029,-4.028Z" style="fill-rule:nonzero;"/></g><text x="5370.83px" y="8137.5px" style="font-family:'SFProDisplay-Bold', 'SF Pro Display';font-weight:700;font-size:66.667px;">Expor<tspan x="5547.36px " y="8137.5px ">t</tspan>ing</text><text x="5370.83px" y="8212.5px" style="font-family:'SFProDisplay-Regular', 'SF Pro Display';font-size:66.667px;">Symbols should be outlined when e<tspan x="6351.14px " y="8212.5px ">x</tspan>por<tspan x="6476.27px " y="8212.5px ">t</tspan>ing t<tspan x="6614.49px " y="8212.5px ">o</tspan> ensur<tspan x="6817.87px " y="8212.5px ">e</tspan> the</text><text x="5370.83px" y="8287.5px" style="font-family:'SFProDisplay-Regular', 'SF Pro Display';font-size:66.667px;">design is pr<tspan x="5685.78px " y="8287.5px ">e</tspan>serv<tspan x="5836.85px " y="8287.5px ">e</tspan>d when submitting t<tspan x="6416.7px " y="8287.5px ">o</tspan> X<tspan x="6505.79px " y="8287.5px ">c</tspan>ode.</text><text id="template-version" x="12256.1px" y="8054.17px" style="font-family:'SFProDisplay-Regular', 'SF Pro Display';font-size:66.667px;">T<tspan x="12286.1px " y="8054.17px ">e</tspan>mplat<tspan x="12476.6px " y="8054.17px ">e</tspan> v<tspan x="12551.7px 12564.7px 12592.6px " y="8054.17px 8054.17px 8054.17px ">.1.</tspan>0</text><text x="11993.3px" y="8129.17px" style="font-family:'SFProDisplay-Regular', 'SF Pro Display';font-size:66.667px;">Gener<tspan x="12163.7px 12197.2px 12216.3px " y="8129.17px 8129.17px 8129.17px ">ate</tspan>d fr<tspan x="12340.2px " y="8129.17px ">o</tspan>m triangle</text><text x="12053.8px" y="8204.17px" style="font-family:'SFProDisplay-Regular', 'SF Pro Display';font-size:66.667px;">T<tspan x="12084.7px " y="8204.17px ">y</tspan>peset at 100 points</text><text x="1095.83px" y="3025px" style="font-family:'SFProDisplay-Regular', 'SF Pro Display';font-size:66.667px;">Small</text><text x="1095.83px" y="4816.67px" style="font-family:'SFProDisplay-Regular', 'SF Pro Display';font-size:66.667px;">Medium</text><text x="1095.83px" y="6608.33px" style="font-family:'SFProDisplay-Regular', 'SF Pro Display';font-size:66.667px;">Lar<tspan x="1183.17px " y="6608.33px ">g</tspan>e</text></g><g id="Guides"><g id="H-reference"><path d="M1641.38,2900l11.393,0l-112.915,-293.579l-10.376,0l-112.915,293.579l11.19,0l38.656,-101.929l136.515,0l38.452,101.929Zm-107.219,-279.541l1.018,0l64.086,168.254l-129.19,0l64.086,-168.254Z" style="fill:#27aae1;fill-rule:nonzero;"/></g><path id="Baseline-S" d="M1095.83,2900l11554.2,0" style="fill:none;fill-rule:nonzero;stroke:#27aae1;stroke-width:2.4px;"/><path id="Capline-S" d="M1095.83,2606.42l11554.2,0" style="fill:none;fill-rule:nonzero;stroke:#27aae1;stroke-width:2.4px;"/><g id="H-reference1" serif:id="H-reference"><path d="M1641.38,4691.67l11.393,0l-112.915,-293.579l-10.376,-0.001l-112.915,293.58l11.19,0l38.656,-101.929l136.515,0l38.452,101.929Zm-107.219,-279.541l1.018,0l64.086,168.253l-129.19,0l64.086,-168.253Z" style="fill:#27aae1;fill-rule:nonzero;"/></g><path id="Baseline-M" d="M1095.83,4691.67l11554.2,0" style="fill:none;fill-rule:nonzero;stroke:#27aae1;stroke-width:2.4px;"/><path id="Capline-M" d="M1095.83,4398.08l11554.2,0" style="fill:none;fill-rule:nonzero;stroke:#27aae1;stroke-width:2.4px;"/><g id="H-reference2" serif:id="H-reference"><path d="M1641.38,6483.33l11.393,0l-112.915,-293.579l-10.376,0l-112.915,293.579l11.19,0l38.656,-101.928l136.515,0l38.452,101.928Zm-107.219,-279.541l1.018,0.001l64.086,168.253l-129.19,0l64.086,-168.253Z" style="fill:#27aae1;fill-rule:nonzero;"/></g><path id="Baseline-L" d="M1095.83,6483.33l11554.2,0" style="fill:none;fill-rule:nonzero;stroke:#27aae1;stroke-width:2.4px;"/><path id="Capline-L" d="M1095.83,6189.75l11554.2,0" style="fill:none;fill-rule:nonzero;stroke:#27aae1;stroke-width:2.4px;"/><rect id="left-margin" x="5786.79" y="4294.96" width="41.504" height="497.233" style="fill:#00aeef;fill-opacity:0.4;"/><rect id="right-margin" x="6253.71" y="4294.96" width="41.504" height="497.233" style="fill:#00aeef;fill-opacity:0.4;"/></g><g id="Symbols"><g id="Black-L"><path d="M12422.9,6079.89l-401.002,0c-50.454,0 -85.041,39.876 -85.041,85.449c0,14.242 3.458,28.687 10.987,42.114l200.805,350.749c16.683,28.89 44.759,42.928 73.649,42.928c29.093,0 57.78,-14.648 73.853,-42.928l200.805,-350.952c7.528,-13.428 11.19,-27.669 11.19,-41.911c0,-45.573 -34.587,-85.449 -85.246,-85.449Zm-18.921,78.939c9.766,0 16.276,8.138 16.276,17.09c0,2.238 -0.61,5.9 -1.831,8.544l-182.088,321.046c-2.848,5.086 -8.748,7.12 -14.038,7.12c-5.29,0 -10.783,-2.441 -13.631,-7.324l-182.294,-321.452c-1.22,-2.645 -1.829,-5.9 -1.829,-7.934c0,-8.952 6.509,-17.09 16.275,-17.09l363.16,0Z" style="fill-rule:nonzero;"/></g><g id="Heavy-L"><path d="M11187.2,6081.93l-402.222,0c-48.421,0 -81.38,37.842 -81.38,81.788c0,13.427 3.255,27.465 10.58,40.283l201.415,351.766c15.869,27.466 42.725,41.097 70.394,41.097c27.669,0 55.339,-14.038 70.597,-41.097l201.62,-351.97c7.121,-12.817 10.579,-26.652 10.579,-40.079c0,-43.946 -32.959,-81.788 -81.583,-81.788Zm-14.445,68.767c12.003,0 20.141,9.969 20.141,20.955c0,3.052 -0.407,7.121 -2.238,10.58l-186.971,329.386c-3.662,6.307 -10.783,9.155 -17.7,9.155c-6.714,0 -13.428,-2.848 -17.293,-9.358l-186.971,-329.59c-1.833,-3.459 -2.645,-7.325 -2.645,-10.173c0,-10.986 8.341,-20.955 20.55,-20.955l373.127,0Z" style="fill-rule:nonzero;"/></g><g id="Bold-L"><path d="M9951.51,6083.96l-403.441,0c-46.592,0 -77.312,35.604 -77.312,77.718c0,12.817 3.05,26.042 10.17,38.249l202.028,353.19c14.852,25.838 40.487,39.062 66.732,39.062c26.245,0 52.49,-13.427 66.935,-39.062l202.23,-353.394c6.917,-12.207 10.173,-25.228 10.173,-38.045c0,-42.114 -30.925,-77.718 -77.515,-77.718Zm-9.562,57.17c14.852,0 24.821,12.206 24.821,25.838c0,3.662 -0.61,8.545 -2.848,12.817l-192.465,338.338c-4.679,8.138 -13.427,11.8 -21.769,11.8c-8.341,0 -16.683,-3.662 -21.159,-12.003l-192.667,-338.542c-2.238,-4.069 -3.255,-8.748 -3.255,-12.41c0,-13.632 10.375,-25.838 25.025,-25.838l384.317,0Z" style="fill-rule:nonzero;"/></g><g id="Semibold-L"><path d="M8715.76,6085.59l-404.461,0c-44.962,0 -74.462,34.18 -74.462,74.87c0,12.411 3.05,25.025 9.766,36.825l202.636,354.004c14.242,24.821 39.063,37.638 64.291,37.638c25.228,0 50.252,-12.817 64.493,-37.638l202.637,-354.208c6.511,-11.596 9.766,-24.21 9.766,-36.621c0,-40.69 -29.704,-74.87 -74.666,-74.87Zm-6.307,49.235c16.886,0 28.076,13.835 28.076,29.094c0,4.272 -0.611,9.359 -3.256,14.445l-196.329,344.645c-5.29,9.155 -14.852,13.428 -24.414,13.428c-9.562,0 -18.718,-4.273 -24.007,-13.632l-196.332,-344.848c-2.642,-4.679 -3.658,-9.766 -3.658,-14.038c0,-15.259 11.391,-29.094 28.075,-29.094l391.845,0Z" style="fill-rule:nonzero;"/></g><g id="Medium-L"><path d="M7479.75,6086.61l-405.069,0c-43.946,0 -72.429,32.755 -72.429,72.632c0,12.003 3.254,24.21 9.766,35.604l202.84,354.817c13.834,24.007 37.841,36.621 62.459,36.621c24.414,0 48.828,-12.614 62.46,-36.621l203.043,-355.021c6.511,-11.19 9.562,-23.397 9.562,-35.4c0,-39.877 -28.686,-72.632 -72.632,-72.632Zm-3.662,43.131c18.311,0 30.518,14.852 30.518,31.332c0,4.679 -0.814,10.376 -3.459,15.665l-199.381,349.325c-5.697,10.172 -16.073,14.852 -26.449,14.852c-10.376,0 -20.345,-4.68 -26.245,-14.852l-199.179,-349.528c-2.846,-5.086 -4.066,-10.783 -4.066,-15.462c0,-16.48 12.612,-31.332 30.72,-31.332l397.541,0Z" style="fill-rule:nonzero;"/></g><g id="Regular-L"><path d="M6243.96,6088.23l-406.089,0c-42.316,0 -69.579,31.127 -69.579,69.783c0,11.393 3.054,23.397 9.358,34.383l203.452,355.429c13.021,23.193 36.214,35.196 59.815,35.196c23.6,0 46.997,-12.003 60.018,-35.196l203.653,-355.836c6.104,-10.783 9.156,-22.583 9.156,-33.976c0,-38.656 -27.263,-69.783 -69.784,-69.783Zm-0.203,35.197c20.141,0 33.569,16.479 33.569,34.586c0,5.086 -1.017,11.19 -3.866,17.293l-203.247,355.429c-6.307,11.189 -17.903,16.479 -29.296,16.479c-11.394,0 -22.38,-5.086 -28.89,-16.479l-202.839,-355.632c-3.258,-5.697 -4.479,-11.8 -4.479,-17.09c0,-18.107 13.837,-34.586 33.775,-34.586l405.273,0Z" style="fill-rule:nonzero;"/></g><g id="Light-L"><path d="M5009.07,6089.66l-408.934,0c-39.675,0 -65.717,30.314 -65.717,66.121c0,10.986 2.646,22.176 8.75,32.756l204.67,359.496c12.411,21.77 34.383,33.163 56.763,33.163c22.176,0 44.555,-11.393 56.966,-33.163l204.874,-359.903c5.9,-10.173 8.545,-21.363 8.545,-32.349c0,-35.807 -26.245,-66.121 -65.917,-66.121Zm-0.408,27.262c22.787,0 38.046,18.514 38.046,38.859c0,5.9 -1.018,12.614 -4.273,19.735l-204.671,359.497c-7.121,12.614 -20.141,18.717 -33.162,18.717c-13.021,0 -25.432,-5.9 -32.756,-18.717l-204.264,-359.701c-3.459,-6.51 -5.088,-13.427 -5.088,-19.531c0,-20.345 15.667,-38.859 38.046,-38.859l408.123,0Z" style="fill-rule:nonzero;"/></g><g id="Thin-L"><path d="M3774.42,6091.49l-412.396,0c-35.804,0 -60.625,29.094 -60.625,61.239c0,10.173 2.034,20.549 7.934,30.314l206.501,364.787c11.394,20.345 31.739,30.721 52.49,30.721c20.142,0 41.301,-10.376 52.694,-30.721l206.909,-365.397c5.087,-9.155 7.528,-19.531 7.528,-29.704c0,-32.145 -25.024,-61.239 -61.035,-61.239Zm-0.204,16.48c26.245,0 43.946,21.159 43.946,44.759c0,6.714 -1.221,14.242 -5.086,22.583l-206.706,364.787c-8.138,14.649 -22.99,21.769 -38.046,21.769c-15.258,0 -29.5,-6.917 -38.045,-21.769l-205.892,-364.787c-4.067,-7.527 -6.104,-15.462 -6.104,-22.583c0,-23.6 18.108,-44.759 43.946,-44.759l411.987,0Z" style="fill-rule:nonzero;"/></g><g id="Ultralight-L"><path d="M2539.14,6092.51l-414.428,0c-33.975,0 -57.984,28.483 -57.984,58.797c0,9.766 1.83,19.735 7.525,29.297l207.522,367.432c10.783,19.327 30.517,29.297 50.048,29.297c19.328,0 39.877,-9.97 50.66,-29.297l207.926,-368.246c4.883,-8.748 7.121,-18.717 7.121,-28.483c0,-30.314 -24.414,-58.797 -58.39,-58.797Zm-0.407,10.986c28.076,0 46.997,22.583 46.997,47.811c0,7.324 -1.221,15.056 -5.493,24.211l-207.52,367.432c-8.545,15.665 -24.617,23.193 -40.894,23.193c-16.275,0 -31.331,-7.121 -40.282,-23.193l-206.908,-367.432c-4.48,-7.935 -6.513,-16.683 -6.513,-24.211c0,-25.228 19.329,-47.811 46.996,-47.811l413.617,0Z" style="fill-rule:nonzero;"/></g><g id="Black-M"><path d="M12377.7,4344.17l-310.668,0c-40.079,0 -68.766,33.163 -68.766,69.377c0,11.393 2.645,23.193 8.745,34.18l155.642,272.42c13.631,23.397 36.214,34.586 59.611,34.586c23.6,0 46.997,-11.596 60.018,-34.586l155.64,-272.827c5.9,-10.58 8.748,-22.38 8.748,-33.773c0,-36.214 -28.686,-69.377 -68.97,-69.377Zm-20.548,71.004c5.493,0 9.359,4.476 9.359,9.766c0,1.221 -0.204,3.662 -1.018,5.086l-135.091,240.072c-1.424,2.645 -5.086,3.662 -8.138,3.662c-3.052,0 -6.307,-1.221 -7.731,-4.069l-135.294,-240.275c-0.814,-1.424 -1.018,-3.459 -1.018,-4.476c0,-5.29 3.662,-9.766 9.359,-9.766l269.572,0Z" style="fill-rule:nonzero;"/></g><g id="Heavy-M"><path d="M11141.5,4345.8l-311.074,0c-38.859,0 -65.717,31.128 -65.717,66.121c0,10.986 2.442,22.176 8.546,32.552l155.843,272.827c12.817,22.176 34.586,33.163 56.966,33.163c22.38,0 44.759,-11.394 57.169,-33.163l155.844,-273.03c5.697,-10.173 8.545,-21.363 8.545,-32.349c0,-34.993 -27.059,-66.121 -66.122,-66.121Zm-15.665,61.645c7.731,0 12.817,6.307 12.817,13.224c0,1.832 -0.407,4.68 -1.424,6.714l-140.177,247.803c-2.239,4.069 -6.918,5.697 -10.987,5.697c-4.273,0 -8.545,-1.832 -10.783,-5.9l-140.381,-248.007c-1.017,-2.034 -1.424,-4.679 -1.424,-6.307c0,-6.917 5.086,-13.224 12.614,-13.224l279.745,0Z" style="fill-rule:nonzero;"/></g><g id="Bold-M"><path d="M9905.77,4347.84l-311.89,0c-37.231,0 -62.46,28.89 -62.46,62.663c0,10.376 2.645,20.956 8.341,30.925l156.048,272.827c12.207,20.955 32.755,31.535 54.118,31.535c21.158,0 42.317,-10.783 54.117,-31.535l156.25,-273.031c5.493,-9.765 8.138,-20.345 8.138,-30.721c0,-33.773 -25.227,-62.663 -62.662,-62.663Zm-10.376,51.27c9.968,0 16.479,8.138 16.479,17.09c0,2.441 -0.407,5.9 -1.831,8.545l-145.874,256.754c-3.052,5.29 -8.748,7.528 -14.241,7.528c-5.494,0 -10.987,-2.442 -14.039,-7.731l-145.873,-256.755c-1.425,-2.848 -2.037,-5.9 -2.037,-8.341c0,-8.952 6.716,-17.09 16.481,-17.09l290.935,0Z" style="fill-rule:nonzero;"/></g><g id="Semibold-M"><path d="M8669.77,4349.26l-312.296,0c-36.416,0 -60.22,27.466 -60.22,60.425c0,9.969 2.642,20.345 7.933,29.703l156.454,273.031c11.596,20.141 31.534,30.314 51.879,30.314c20.346,0 40.691,-10.376 52.083,-30.314l156.454,-273.234c5.29,-9.359 7.935,-19.531 7.935,-29.5c0,-32.959 -23.804,-60.425 -60.222,-60.425Zm-6.714,44.352c11.394,0 18.921,9.359 18.921,19.735c0,2.848 -0.406,6.51 -2.034,9.765l-149.943,262.858c-3.459,6.104 -10.173,8.952 -16.48,8.952c-6.307,0 -12.614,-2.848 -16.276,-9.155l-149.74,-262.858c-1.625,-3.255 -2.442,-6.714 -2.442,-9.562c0,-10.376 7.734,-19.735 19.126,-19.735l298.868,0Z" style="fill-rule:nonzero;"/></g><g id="Medium-M"><path d="M7433.48,4350.28l-312.5,0c-35.602,0 -58.39,26.245 -58.39,58.593c0,9.766 2.442,19.735 7.729,28.89l156.659,273.031c10.986,19.531 30.517,29.5 50.252,29.5c19.735,0 39.469,-10.172 50.456,-29.5l156.657,-273.234c5.289,-9.155 7.731,-18.921 7.731,-28.687c0,-32.348 -22.99,-58.593 -58.594,-58.593Zm-3.866,39.062c12.615,0 20.956,10.376 20.956,21.566c0,3.255 -0.407,7.324 -2.441,10.986l-152.588,267.131c-4.069,6.917 -11.19,10.172 -18.311,10.172c-7.121,0 -14.038,-3.255 -17.903,-10.172l-152.791,-267.538c-1.833,-3.458 -2.646,-7.324 -2.646,-10.579c0,-11.19 8.546,-21.566 21.159,-21.566l304.565,0Z" style="fill-rule:nonzero;"/></g><g id="Regular-M"><path d="M6197.56,4351.5l-313.11,0c-34.588,0 -56.154,24.822 -56.154,56.153c0,9.359 2.441,18.921 7.529,27.669l156.861,273.234c10.579,18.514 29.296,28.483 48.217,28.483c19.125,0 37.842,-9.969 48.421,-28.483l156.861,-273.437c5.086,-8.749 7.527,-18.107 7.527,-27.466c0,-31.331 -21.565,-56.153 -56.152,-56.153Zm-0.203,31.942c14.038,0 23.396,11.597 23.396,24.211c0,3.662 -0.61,7.935 -2.645,12.207l-156.656,273.234c-4.476,7.731 -12.614,11.393 -20.549,11.393c-7.935,0 -15.665,-3.459 -20.141,-11.393l-156.454,-273.437c-2.237,-4.069 -3.254,-8.342 -3.254,-12.004c0,-12.614 9.767,-24.211 23.803,-24.211l312.5,0Z" style="fill-rule:nonzero;"/></g><g id="Light-M"><path d="M4962.42,4352.92l-315.552,0c-31.943,0 -52.693,24.007 -52.693,53.1c0,8.545 2.237,17.7 7.12,26.042l158.081,276.692c9.969,17.497 27.466,26.652 45.369,26.652c17.7,0 35.604,-9.155 45.37,-26.652l158.284,-277.099c4.68,-8.138 6.918,-17.09 6.918,-25.635c0,-29.093 -20.752,-53.1 -52.897,-53.1Zm-0.204,24.82c16.479,0 27.466,13.428 27.466,28.28c0,4.069 -0.611,8.952 -3.052,14.038l-158.081,276.896c-5.086,9.156 -14.445,13.428 -23.804,13.428c-9.358,0 -18.514,-4.272 -23.803,-13.428l-157.676,-277.099c-2.441,-4.476 -3.662,-9.562 -3.662,-13.835c0,-14.852 11.396,-28.28 27.671,-28.28l314.941,0Z" style="fill-rule:nonzero;"/></g><g id="Thin-M"><path d="M3727.73,4354.55l-318.807,0c-28.685,0 -48.218,22.787 -48.218,48.421c0,8.138 1.829,16.276 6.512,24.008l159.707,281.779c8.952,15.868 25.228,24.21 41.504,24.21c16.073,0 32.756,-8.342 41.707,-24.21l159.912,-282.186c4.07,-7.325 6.104,-15.463 6.104,-23.601c0,-25.634 -19.735,-48.421 -48.421,-48.421Zm-0.204,15.055c19.531,0 32.959,15.87 32.959,33.366c0,5.087 -1.017,10.783 -3.865,16.887l-159.709,281.575c-6.104,10.987 -17.293,16.276 -28.483,16.276c-11.393,0 -21.973,-5.086 -28.28,-16.276l-159.301,-281.575c-3.05,-5.493 -4.475,-11.597 -4.475,-16.887c0,-17.496 13.425,-33.366 32.754,-33.366l318.4,0Z" style="fill-rule:nonzero;"/></g><g id="Ultralight-M"><path d="M2492.35,4355.57l-320.638,0c-26.857,0 -45.778,22.38 -45.778,46.387c0,7.731 1.629,15.462 5.9,22.99l160.525,284.017c8.544,15.259 24.21,22.99 39.672,22.99c15.259,0 31.332,-7.731 39.877,-22.99l160.726,-284.627c3.865,-6.918 5.696,-14.649 5.696,-22.38c0,-24.007 -19.124,-46.387 -45.98,-46.387Zm-0.407,10.376c21.159,0 35.604,16.887 35.604,36.011c0,5.493 -1.017,11.393 -4.069,18.311l-160.726,284.016c-6.51,11.801 -18.514,17.497 -30.721,17.497c-12.41,0 -23.803,-5.493 -30.517,-17.497l-160.117,-284.016c-3.459,-6.104 -4.88,-12.614 -4.88,-18.311c0,-19.124 14.442,-36.011 35.399,-36.011l320.027,0Z" style="fill-rule:nonzero;"/></g><g id="Black-S"><path d="M12344,2596.05l-243.327,0c-31.331,0 -53.711,25.838 -53.711,54.118c0,8.952 2.035,18.107 6.917,26.652l121.868,213.42c10.579,18.31 28.279,27.058 46.59,27.058c18.31,0 36.621,-9.155 46.793,-27.058l121.867,-213.624c4.68,-8.341 6.917,-17.496 6.917,-26.448c0,-28.28 -22.379,-54.118 -53.914,-54.118Zm-15.666,54.932c4.476,0 7.528,3.662 7.528,7.934c0,1.017 -0.203,2.849 -0.814,4.069l-106.201,188.599c-1.22,2.238 -4.069,3.052 -6.51,3.052c-2.442,0 -5.087,-1.018 -6.307,-3.256l-106.405,-188.802c-0.61,-1.221 -0.814,-2.848 -0.814,-3.662c0,-4.272 3.052,-7.934 7.528,-7.934l211.995,0Z" style="fill-rule:nonzero;"/></g><g id="Heavy-S"><path d="M11108,2597.27l-243.53,0c-30.721,0 -51.88,24.414 -51.88,52.083c0,8.545 2.035,17.497 6.714,25.635l122.07,213.216c9.969,17.497 27.059,26.042 44.759,26.042c17.7,0 35.197,-8.952 44.963,-26.042l122.07,-213.42c4.476,-8.138 6.714,-16.886 6.714,-25.431c0,-27.669 -21.159,-52.083 -51.88,-52.083Zm-12.003,48.624c5.696,0 9.562,4.68 9.562,10.173c0,1.424 -0.203,3.459 -1.018,5.086l-110.066,194.092c-1.628,3.052 -5.087,4.273 -8.342,4.273c-3.051,0 -6.51,-1.425 -8.137,-4.273l-110.068,-194.499c-0.813,-1.627 -1.22,-3.458 -1.22,-4.679c0,-5.493 4.069,-10.173 9.765,-10.173l219.524,0Z" style="fill-rule:nonzero;"/></g><g id="Bold-S"><path d="M9871.68,2598.49l-243.734,0c-29.704,0 -49.642,22.787 -49.642,49.846c0,8.341 2.238,16.683 6.51,24.617l122.07,212.809c9.766,16.683 26.042,25.228 42.929,25.228c16.886,0 33.569,-8.748 43.131,-25.228l122.07,-213.013c4.476,-7.73 6.511,-16.072 6.511,-24.413c0,-27.059 -19.938,-49.846 -49.845,-49.846Zm-7.935,41.708c7.324,0 12.004,6.103 12.004,12.614c0,1.83 -0.204,4.272 -1.221,6.307l-114.136,200.398c-2.238,3.866 -6.51,5.493 -10.579,5.493c-3.866,0 -7.935,-1.627 -10.173,-5.493l-114.136,-200.805c-1.22,-2.035 -1.627,-4.273 -1.627,-5.9c0,-6.511 4.882,-12.614 12.207,-12.614l227.661,0Z" style="fill-rule:nonzero;"/></g><g id="Semibold-S"><path d="M8635.58,2599.5l-243.937,0c-29.297,0 -48.218,21.769 -48.218,48.421c0,7.935 2.238,16.276 6.51,23.804l122.071,212.606c9.359,16.072 25.228,24.413 41.504,24.413c16.479,0 32.552,-8.341 41.707,-24.413l122.071,-212.81c4.475,-7.527 6.51,-15.665 6.51,-23.6c0,-26.652 -18.921,-48.421 -48.218,-48.421Zm-5.086,37.028c8.138,0 13.631,6.714 13.631,14.241c0,2.035 -0.407,4.68 -1.627,7.121l-116.985,204.671c-2.644,4.476 -7.324,6.511 -12.003,6.511c-4.476,0 -8.952,-2.035 -11.597,-6.511l-116.984,-205.078c-1.221,-2.238 -1.831,-4.679 -1.831,-6.714c0,-7.527 5.697,-14.241 13.835,-14.241l233.561,0Z" style="fill-rule:nonzero;"/></g><g id="Medium-S"><path d="M7399.19,2600.11l-243.938,0c-28.89,0 -46.997,20.955 -46.997,47.2c0,7.731 2.035,15.87 6.307,23.194l122.07,212.402c9.156,15.666 24.618,24.007 40.69,24.007c15.87,0 31.535,-8.341 40.487,-24.007l122.274,-212.606c4.272,-7.324 6.307,-15.259 6.307,-22.99c0,-26.245 -18.31,-47.2 -47.2,-47.2Zm-2.849,33.366c8.952,0 14.852,7.324 14.852,15.462c0,2.238 -0.407,5.086 -1.831,7.527l-119.222,208.13c-2.645,4.883 -7.935,7.121 -12.818,7.121c-5.086,0 -9.968,-2.238 -12.817,-7.121l-119.222,-208.333c-1.424,-2.441 -1.831,-5.086 -1.831,-7.324c0,-8.138 6.104,-15.462 15.055,-15.462l237.834,0Z" style="fill-rule:nonzero;"/></g><g id="Regular-S"><path d="M6163.18,2601.13l-244.141,0c-28.28,0 -45.777,19.938 -45.777,45.777c0,7.324 2.238,15.258 6.308,22.379l122.273,212.199c8.545,15.259 23.804,23.193 39.266,23.193c15.463,0 30.518,-7.934 39.063,-23.193l122.273,-212.199c4.273,-7.324 6.307,-15.055 6.307,-22.379c0,-25.839 -17.293,-45.777 -45.572,-45.777Zm-0.204,28.687c9.766,0 16.479,8.138 16.479,17.09c0,2.441 -0.406,5.696 -2.034,8.341l-122.07,212.402c-3.052,5.494 -8.749,8.138 -14.242,8.138c-5.493,0 -10.986,-2.644 -14.241,-8.138l-122.071,-212.605c-1.424,-2.645 -2.034,-5.697 -2.034,-8.138c0,-8.952 6.714,-17.09 16.683,-17.09l243.53,0Z" style="fill-rule:nonzero;"/></g><g id="Light-S"><path d="M4927.83,2602.35l-246.175,0c-26.042,0 -42.725,19.124 -42.725,42.725c0,6.917 1.831,14.241 5.696,20.955l123.495,215.454c7.935,14.242 22.176,21.566 36.621,21.566c14.445,0 28.686,-7.324 36.621,-21.566l123.495,-215.657c3.865,-6.511 5.696,-13.835 5.696,-20.752c0,-23.601 -16.683,-42.725 -42.724,-42.725Zm-0.204,22.176c12.004,0 20.142,9.766 20.142,20.549c0,3.051 -0.61,6.714 -2.442,10.172l-123.087,215.658c-3.866,6.714 -10.783,9.766 -17.497,9.766c-6.714,0 -13.428,-3.052 -17.293,-9.766l-123.088,-215.658c-1.831,-3.458 -2.645,-7.121 -2.645,-10.172c0,-10.783 8.342,-20.549 20.142,-20.549l245.768,0Z" style="fill-rule:nonzero;"/></g><g id="Thin-S"><path d="M3693.04,2603.78l-249.227,0c-23.194,0 -38.656,18.107 -38.656,38.859c0,6.51 1.424,13.021 5.087,19.124l124.918,219.727c7.121,12.817 20.142,19.531 33.162,19.531c13.021,0 26.245,-6.714 33.57,-19.531l124.918,-219.93c3.256,-5.9 4.883,-12.411 4.883,-18.921c0,-20.752 -15.666,-38.859 -38.655,-38.859Zm-0.204,13.631c14.649,0 24.618,12.004 24.618,25.228c0,3.866 -0.611,8.138 -2.849,12.614l-124.715,219.727c-4.679,8.138 -13.021,12.206 -21.566,12.206c-8.545,0 -16.479,-3.865 -21.158,-12.206l-124.512,-219.727c-2.238,-4.069 -3.459,-8.748 -3.459,-12.614c0,-13.224 10.173,-25.228 24.821,-25.228l248.82,0Z" style="fill-rule:nonzero;"/></g><g id="Ultralight-S"><path d="M2457.45,2604.59l-250.854,0c-21.362,0 -36.418,17.497 -36.418,36.825c0,6.103 1.221,12.41 4.68,18.31l125.732,221.965c6.714,12.003 19.124,18.31 31.535,18.31c12.004,0 24.821,-6.307 31.535,-18.31l125.936,-222.372c3.051,-5.493 4.476,-11.8 4.476,-17.903c0,-19.328 -15.259,-36.825 -36.622,-36.825Zm-0.203,9.359c16.072,0 27.059,13.021 27.059,27.466c0,4.272 -0.814,8.748 -3.255,14.038l-125.529,221.761c-4.883,8.951 -14.038,13.427 -23.397,13.427c-9.359,0 -18.311,-4.272 -23.397,-13.427l-125.122,-221.761c-2.645,-4.68 -3.866,-9.563 -3.866,-14.038c0,-14.445 11.19,-27.466 27.059,-27.466l250.448,0Z" style="fill-rule:nonzero;"/></g></g></svg>