<?xml version="1.0" encoding="UTF-8" standalone="no"?><!DOCTYPE svg PUBLIC "-//W3C//DTD SVG 1.1//EN" "http://www.w3.org/Graphics/SVG/1.1/DTD/svg11.dtd"><svg width="100%" height="100%" viewBox="0 0 13750 9167" version="1.1" xmlns="http://www.w3.org/2000/svg" xmlns:xlink="http://www.w3.org/1999/xlink" xml:space="preserve" xmlns:serif="http://www.serif.com/" style="fill-rule:evenodd;clip-rule:evenodd;"><g id="Notes"><rect id="artboard" x="0" y="0" width="13750" height="9166.67" style="fill:#fff;"/><path d="M1095.83,1216.67l11554.2,0" style="fill:none;fill-rule:nonzero;stroke:#000;stroke-width:2.08px;"/><text x="1095.83px" y="1341.67px" style="font-family:'SFProDisplay-Bold', 'SF Pro Display';font-weight:700;font-size:66.667px;">W<tspan x="1156.28px " y="1341.67px ">e</tspan>ight/Scale V<tspan x="1558.85px " y="1341.67px ">a</tspan>riations</text><text x="2205.47px" y="1341.67px" style="font-family:'SFProDisplay-Regular', 'SF Pro Display';font-size:66.667px;">Ultr<tspan x="2305.47px " y="1341.67px ">a</tspan>light</text><text x="3506.72px" y="1341.67px" style="font-family:'SFProDisplay-Regular', 'SF Pro Display';font-size:66.667px;">Thin</text><text x="4734.1px" y="1341.67px" style="font-family:'SFProDisplay-Regular', 'SF Pro Display';font-size:66.667px;">Light</text><text x="5934.28px" y="1341.67px" style="font-family:'SFProDisplay-Regular', 'SF Pro Display';font-size:66.667px;">Regular</text><text x="7162.96px" y="1341.67px" style="font-family:'SFProDisplay-Regular', 'SF Pro Display';font-size:66.667px;">Medium</text><text x="8381.77px" y="1341.67px" style="font-family:'SFProDisplay-Regular', 'SF Pro Display';font-size:66.667px;">Semibold</text><text x="9686.81px" y="1341.67px" style="font-family:'SFProDisplay-Regular', 'SF Pro Display';font-size:66.667px;">Bold</text><text x="10896.8px" y="1341.67px" style="font-family:'SFProDisplay-Regular', 'SF Pro Display';font-size:66.667px;">Heavy</text><text x="12145.9px" y="1341.67px" style="font-family:'SFProDisplay-Regular', 'SF Pro Display';font-size:66.667px;">Black</text><path d="M1095.83,7929.17l11554.2,0" style="fill:none;fill-rule:nonzero;stroke:#000;stroke-width:2.08px;"/><g><path d="M1134.37,8057.62c17.944,0 32.878,-14.892 32.878,-32.837c0,-17.944 -14.975,-32.836 -32.919,-32.836c-17.903,0 -32.796,14.892 -32.796,32.836c0,17.945 14.933,32.837 32.837,32.837Zm0,-6.185c-14.771,0 -26.571,-11.84 -26.571,-26.652c0,-14.811 11.76,-26.652 26.53,-26.652c14.812,0 26.652,11.841 26.693,26.652c0.041,14.812 -11.841,26.652 -26.652,26.652Zm-0.081,-11.556c1.953,0 3.092,-1.302 3.092,-3.458l0,-8.586l9.277,0c2.075,0 3.5,-1.058 3.5,-3.011c0,-1.994 -1.343,-3.092 -3.5,-3.092l-9.277,0l0,-9.278c0,-2.156 -1.139,-3.499 -3.092,-3.499c-1.954,0 -3.012,1.424 -3.012,3.499l0,9.278l-9.196,0c-2.156,0 -3.54,1.098 -3.54,3.092c0,1.953 1.465,3.011 3.54,3.011l9.196,0l0,8.586c0,2.075 1.058,3.458 3.012,3.458Z" style="fill-rule:nonzero;"/></g><g><path d="M1221.73,8066.29c22.705,0 41.504,-18.798 41.504,-41.504c0,-22.664 -18.84,-41.503 -41.545,-41.503c-22.664,0 -41.463,18.839 -41.463,41.503c0,22.706 18.84,41.504 41.504,41.504Zm0,-6.917c-19.206,0 -34.546,-15.381 -34.546,-34.587c0,-19.165 15.3,-34.586 34.505,-34.586c19.206,0 34.587,15.421 34.628,34.586c0.04,19.206 -15.381,34.587 -34.587,34.587Zm-0.081,-15.259c2.156,0 3.458,-1.505 3.458,-3.865l0,-12.045l12.736,0c2.279,0 3.866,-1.18 3.866,-3.336c0,-2.197 -1.506,-3.459 -3.866,-3.459l-12.736,0l0,-12.776c0,-2.401 -1.302,-3.866 -3.458,-3.866c-2.157,0 -3.378,1.546 -3.378,3.866l0,12.776l-12.695,0c-2.36,0 -3.906,1.262 -3.906,3.459c0,2.156 1.627,3.336 3.906,3.336l12.695,0l0,12.045c0,2.278 1.221,3.865 3.378,3.865Z" style="fill-rule:nonzero;"/></g><g><path d="M1332.89,8077.81c29.012,0 53.019,-23.967 53.019,-52.979c0,-29.012 -24.048,-52.979 -53.06,-52.979c-28.971,0 -52.938,23.967 -52.938,52.979c0,29.012 24.007,52.979 52.979,52.979Zm0,-7.569c-25.147,0 -45.37,-20.263 -45.37,-45.41c0,-25.146 20.182,-45.41 45.329,-45.41c25.187,0 45.41,20.264 45.451,45.41c0.04,25.147 -20.223,45.41 -45.41,45.41Zm-0.082,-20.508c2.36,0 3.825,-1.627 3.825,-4.15l0,-16.968l17.659,0c2.442,0 4.192,-1.383 4.192,-3.703c0,-2.4 -1.628,-3.824 -4.192,-3.824l-17.659,0l0,-17.701c0,-2.563 -1.465,-4.191 -3.825,-4.191c-2.36,0 -3.703,1.709 -3.703,4.191l0,17.701l-17.618,0c-2.564,0 -4.273,1.424 -4.273,3.824c0,2.32 1.79,3.703 4.273,3.703l17.618,0l0,16.968c0,2.441 1.343,4.15 3.703,4.15Z" style="fill-rule:nonzero;"/></g><text x="1095.83px" y="8137.5px" style="font-family:'SFProDisplay-Bold', 'SF Pro Display';font-weight:700;font-size:66.667px;">Design V<tspan x="1361.62px " y="8137.5px ">a</tspan>riations</text><text x="1095.83px" y="8212.5px" style="font-family:'SFProDisplay-Regular', 'SF Pro Display';font-size:66.667px;">Symbols ar<tspan x="1404.36px " y="8212.5px ">e</tspan> suppor<tspan x="1648.8px 1667.9px " y="8212.5px 8212.5px ">te</tspan>d in up t<tspan x="1919.56px " y="8212.5px ">o</tspan> nine weights and thr<tspan x="2527.18px " y="8212.5px ">e</tspan>e scales.</text><text x="1095.83px" y="8287.5px" style="font-family:'SFProDisplay-Regular', 'SF Pro Display';font-size:66.667px;">F<tspan x="1129.72px " y="8287.5px ">o</tspan>r optimal lay<tspan x="1497.82px " y="8287.5px ">o</tspan>ut with t<tspan x="1752.18px 1785.68px " y="8287.5px 8287.5px ">ex</tspan>t and other symbols,<tspan x="2377.28px 2390.95px 2422.17px 2456.32px 2478.16px " y="8287.5px 8287.5px 8287.5px 8287.5px 8287.5px "> vert</tspan>ically align</text><text x="1095.83px" y="8362.5px" style="font-family:'SFProDisplay-Regular', 'SF Pro Display';font-size:66.667px;">symbols with the adjacent t<tspan x="1851.27px 1884.77px " y="8362.5px 8362.5px ">ex</tspan>t.</text><rect x="3233.33" y="7995.83" width="12.5" height="58.333" style="fill:#00aeef;fill-opacity:0.4;"/><g><path d="M3289.7,8054.17l7.691,0l-21.647,-58.716l-7.243,0l-21.647,58.716l7.69,0l5.9,-16.805l23.356,0l5.9,16.805Zm-17.7,-49.805l0.244,0l9.4,26.774l-19.043,0l9.399,-26.774Z" style="fill-rule:nonzero;"/></g><rect x="3298.4" y="7995.83" width="12.5" height="58.333" style="fill:#00aeef;fill-opacity:0.4;"/><text x="3233.33px" y="8137.5px" style="font-family:'SFProDisplay-Bold', 'SF Pro Display';font-weight:700;font-size:66.667px;">M<tspan x="3290.17px 3326.66px 3349.77px " y="8137.5px 8137.5px 8137.5px ">arg</tspan>ins</text><text x="3233.33px" y="8212.5px" style="font-family:'SFProDisplay-Regular', 'SF Pro Display';font-size:66.667px;">L<tspan x="3267.32px " y="8212.5px ">e</tspan>ading and tr<tspan x="3630.01px " y="8212.5px ">a</tspan>iling mar<tspan x="3895.64px " y="8212.5px ">g</tspan>ins on the left and right side of each symbol</text><text x="3233.33px" y="8287.5px" style="font-family:'SFProDisplay-Regular', 'SF Pro Display';font-size:66.667px;">can be adjust<tspan x="3602.99px " y="8287.5px ">e</tspan>d b<tspan x="3723.7px " y="8287.5px ">y</tspan> modifying the width of the blue r<tspan x="4658.24px " y="8287.5px ">e</tspan>ct<tspan x="4745.22px " y="8287.5px ">a</tspan>ngles.</text><text x="3233.33px" y="8362.5px" style="font-family:'SFProDisplay-Regular', 'SF Pro Display';font-size:66.667px;">Modifications ar<tspan x="3676.63px " y="8362.5px ">e</tspan> aut<tspan x="3812.14px " y="8362.5px ">o</tspan>matically applied pr<tspan x="4382.59px " y="8362.5px ">o</tspan>por<tspan x="4511.82px " y="8362.5px ">t</tspan>ionally t<tspan x="4741.9px " y="8362.5px ">o</tspan> all</text><text x="3233.33px" y="8437.5px" style="font-family:'SFProDisplay-Regular', 'SF Pro Display';font-size:66.667px;">scales and weights.</text><g><path d="M5382.63,8067.15l6.43,6.429c3.54,3.459 7.568,3.174 11.189,-0.814l42.562,-46.346c1.791,1.221 3.418,1.18 5.371,0.773l4.354,-0.895l2.889,2.889l-0.203,2.157c-0.285,2.197 0.407,3.946 2.482,6.022l3.377,3.377c2.116,2.116 4.842,2.238 6.836,0.244l13.55,-13.55c1.993,-1.994 1.912,-4.72 -0.204,-6.836l-3.418,-3.418c-2.075,-2.075 -3.784,-2.807 -6.022,-2.482l-2.197,0.244l-2.727,-2.766l1.18,-4.761c0.611,-2.36 0,-4.314 -2.604,-6.836l-10.05,-9.969c-14.771,-14.689 -33.651,-14.242 -46.631,-1.18c-1.749,1.79 -1.953,4.231 -0.814,6.022c0.977,1.546 2.971,2.482 5.656,1.79c6.307,-1.587 12.614,-1.098 18.799,3.093l-2.604,6.591c-0.976,2.442 -0.895,4.436 0.081,6.267l-46.508,42.806c-3.907,3.621 -4.354,7.568 -0.774,11.149Zm32.675,-76.091c11.108,-8.301 24.902,-6.998 34.912,3.052l10.945,10.865c0.977,0.976 1.099,1.749 0.855,2.97l-1.587,6.51l6.551,6.551l4.029,-0.366c1.18,-0.122 1.546,-0.041 2.482,0.895l2.604,2.604l-11.475,11.434l-2.604,-2.563c-0.936,-0.936 -1.017,-1.343 -0.895,-2.523l0.366,-3.988l-6.511,-6.51l-6.754,1.302c-1.18,0.244 -1.791,0.244 -2.767,-0.773l-9.074,-9.074c-0.936,-0.977 -1.058,-1.546 -0.529,-2.889l3.947,-9.481c-6.673,-6.388 -15.462,-9.928 -23.966,-7.202c-0.367,0.122 -0.652,0.041 -0.774,-0.122c-0.122,-0.203 -0.122,-0.407 0.245,-0.692Zm-27.385,73.161c-2.034,-2.075 -1.302,-3.336 0.082,-4.598l45.654,-42.155l5.127,5.127l-42.318,45.532c-1.261,1.384 -2.848,1.791 -4.516,0.122l-4.029,-4.028Z" style="fill-rule:nonzero;"/></g><text x="5370.83px" y="8137.5px" style="font-family:'SFProDisplay-Bold', 'SF Pro Display';font-weight:700;font-size:66.667px;">Expor<tspan x="5547.36px " y="8137.5px ">t</tspan>ing</text><text x="5370.83px" y="8212.5px" style="font-family:'SFProDisplay-Regular', 'SF Pro Display';font-size:66.667px;">Symbols should be outlined when e<tspan x="6351.14px " y="8212.5px ">x</tspan>por<tspan x="6476.27px " y="8212.5px ">t</tspan>ing t<tspan x="6614.49px " y="8212.5px ">o</tspan> ensur<tspan x="6817.87px " y="8212.5px ">e</tspan> the</text><text x="5370.83px" y="8287.5px" style="font-family:'SFProDisplay-Regular', 'SF Pro Display';font-size:66.667px;">design is pr<tspan x="5685.78px " y="8287.5px ">e</tspan>serv<tspan x="5836.85px " y="8287.5px ">e</tspan>d when submitting t<tspan x="6416.7px " y="8287.5px ">o</tspan> X<tspan x="6505.79px " y="8287.5px ">c</tspan>ode.</text><text id="template-version" x="12256.1px" y="8054.17px" style="font-family:'SFProDisplay-Regular', 'SF Pro Display';font-size:66.667px;">T<tspan x="12286.1px " y="8054.17px ">e</tspan>mplat<tspan x="12476.6px " y="8054.17px ">e</tspan> v<tspan x="12551.7px 12564.7px 12592.6px " y="8054.17px 8054.17px 8054.17px ">.1.</tspan>0</text><text x="12011.2px" y="8129.17px" style="font-family:'SFProDisplay-Regular', 'SF Pro Display';font-size:66.667px;">Gener<tspan x="12181.6px 12215.1px 12234.2px " y="8129.17px 8129.17px 8129.17px ">ate</tspan>d fr<tspan x="12358.1px " y="8129.17px ">o</tspan>m squar<tspan x="12615.9px " y="8129.17px ">e</tspan></text><text x="12053.8px" y="8204.17px" style="font-family:'SFProDisplay-Regular', 'SF Pro Display';font-size:66.667px;">T<tspan x="12084.7px " y="8204.17px ">y</tspan>peset at 100 points</text><text x="1095.83px" y="3025px" style="font-family:'SFProDisplay-Regular', 'SF Pro Display';font-size:66.667px;">Small</text><text x="1095.83px" y="4816.67px" style="font-family:'SFProDisplay-Regular', 'SF Pro Display';font-size:66.667px;">Medium</text><text x="1095.83px" y="6608.33px" style="font-family:'SFProDisplay-Regular', 'SF Pro Display';font-size:66.667px;">Lar<tspan x="1183.17px " y="6608.33px ">g</tspan>e</text></g><g id="Guides"><g id="H-reference"><path d="M1641.38,2900l11.393,0l-112.915,-293.579l-10.376,0l-112.915,293.579l11.19,0l38.656,-101.929l136.515,0l38.452,101.929Zm-107.219,-279.541l1.018,0l64.086,168.254l-129.19,0l64.086,-168.254Z" style="fill:#27aae1;fill-rule:nonzero;"/></g><path id="Baseline-S" d="M1095.83,2900l11554.2,0" style="fill:none;fill-rule:nonzero;stroke:#27aae1;stroke-width:2.4px;"/><path id="Capline-S" d="M1095.83,2606.42l11554.2,0" style="fill:none;fill-rule:nonzero;stroke:#27aae1;stroke-width:2.4px;"/><g id="H-reference1" serif:id="H-reference"><path d="M1641.38,4691.67l11.393,0l-112.915,-293.579l-10.376,-0.001l-112.915,293.58l11.19,0l38.656,-101.929l136.515,0l38.452,101.929Zm-107.219,-279.541l1.018,0l64.086,168.253l-129.19,0l64.086,-168.253Z" style="fill:#27aae1;fill-rule:nonzero;"/></g><path id="Baseline-M" d="M1095.83,4691.67l11554.2,0" style="fill:none;fill-rule:nonzero;stroke:#27aae1;stroke-width:2.4px;"/><path id="Capline-M" d="M1095.83,4398.08l11554.2,0" style="fill:none;fill-rule:nonzero;stroke:#27aae1;stroke-width:2.4px;"/><g id="H-reference2" serif:id="H-reference"><path d="M1641.38,6483.33l11.393,0l-112.915,-293.579l-10.376,0l-112.915,293.579l11.19,0l38.656,-101.928l136.515,0l38.452,101.928Zm-107.219,-279.541l1.018,0.001l64.086,168.253l-129.19,0l64.086,-168.253Z" style="fill:#27aae1;fill-rule:nonzero;"/></g><path id="Baseline-L" d="M1095.83,6483.33l11554.2,0" style="fill:none;fill-rule:nonzero;stroke:#27aae1;stroke-width:2.4px;"/><path id="Capline-L" d="M1095.83,6189.75l11554.2,0" style="fill:none;fill-rule:nonzero;stroke:#27aae1;stroke-width:2.4px;"/><rect id="left-margin" x="5801.88" y="4294.96" width="51.88" height="497.233" style="fill:#00aeef;fill-opacity:0.4;"/><rect id="right-margin" x="6228.29" y="4294.96" width="51.88" height="497.233" style="fill:#00aeef;fill-opacity:0.4;"/></g><g id="Symbols"><g id="Black-L"><path d="M12292.9,6629.86l222.697,-222.697c44.887,-44.886 45.029,-95.956 0.289,-140.697l-223.273,-223.273c-44.741,-44.74 -95.667,-44.454 -140.553,0.433l-222.697,222.696c-44.885,44.885 -45.172,95.812 -0.431,140.553l223.272,223.272c44.741,44.741 95.812,44.597 140.696,-0.287Zm-51.646,-67.471c-12.372,12.372 -24.312,13.091 -37.691,-0.288l-206.441,-206.441c-13.38,-13.379 -12.66,-25.32 -0.288,-37.692l206.729,-206.729c12.516,-12.516 24.455,-13.234 37.834,0.146l206.441,206.44c13.379,13.38 12.661,25.319 0.145,37.835l-206.729,206.729Z" style="fill-rule:nonzero;"/></g><g id="Heavy-L"><path d="M11053.2,6627.28l223.559,-223.56c43.16,-43.16 43.302,-90.777 0.432,-133.647l-224.28,-224.28c-42.87,-42.871 -90.487,-42.728 -133.647,0.432l-223.56,223.56c-43.014,43.014 -43.302,90.776 -0.431,133.647l224.28,224.279c42.87,42.871 90.632,42.583 133.647,-0.431Zm-45.317,-57.689c-14.242,14.243 -28.34,14.818 -43.446,-0.287l-210.757,-210.757c-15.105,-15.105 -14.529,-29.204 -0.287,-43.446l211.045,-211.045c14.242,-14.242 28.484,-14.961 43.589,0.144l210.757,210.757c15.106,15.105 14.386,29.347 0.144,43.59l-211.045,211.044Z" style="fill-rule:nonzero;"/></g><g id="Bold-L"><path d="M9813.07,6624.47l224.568,-224.568c41.001,-41 41.143,-85.164 0.43,-125.877l-225.286,-225.287c-40.713,-40.712 -85.021,-40.714 -126.021,0.286l-224.568,224.569c-40.857,40.856 -41.145,85.165 -0.288,126.022l225.287,225.287c40.712,40.712 85.021,40.425 125.878,-0.432Zm-38.267,-46.898c-16.256,16.256 -32.944,16.831 -49.92,-0.144l-215.504,-215.504c-17.119,-17.12 -16.544,-33.808 -0.288,-50.064l215.937,-215.936c16.113,-16.113 32.943,-16.831 50.063,0.288l215.504,215.504c16.975,16.976 16.257,33.806 0.144,49.919l-215.936,215.937Z" style="fill-rule:nonzero;"/></g><g id="Semibold-L"><path d="M8574.19,6622.46l225.143,-225.142c39.707,-39.707 39.706,-81.427 0.432,-120.701l-226.006,-226.006c-39.13,-39.13 -80.993,-39.274 -120.7,0.433l-225.143,225.142c-39.562,39.562 -39.705,81.426 -0.432,120.699l226.007,226.007c39.417,39.417 81.137,39.13 120.699,-0.432Zm-33.376,-39.13c-17.551,17.551 -36.109,17.982 -54.523,-0.432l-218.813,-218.813c-18.27,-18.27 -17.839,-36.828 -0.288,-54.379l219.39,-219.39c17.406,-17.407 36.107,-17.981 54.377,0.29l218.813,218.813c18.415,18.414 17.841,37.115 0.434,54.521l-219.39,219.39Z" style="fill-rule:nonzero;"/></g><g id="Medium-L"><path d="M7335.78,6621.05l225.575,-225.574c38.699,-38.7 38.699,-78.693 0.576,-116.816l-226.582,-226.581c-37.979,-37.98 -77.972,-37.98 -116.671,0.719l-225.575,225.575c-38.411,38.411 -38.699,78.404 -0.575,116.527l226.581,226.582c38.267,38.267 78.26,37.979 116.671,-0.432Zm-29.779,-33.52c-18.702,18.703 -38.411,19.134 -57.832,-0.287l-221.259,-221.259c-19.421,-19.421 -19.133,-39.274 -0.431,-57.976l221.833,-221.833c18.414,-18.415 38.7,-19.136 58.122,0.286l221.258,221.258c19.422,19.422 18.557,39.564 0.143,57.978l-221.834,221.833Z" style="fill-rule:nonzero;"/></g><g id="Regular-L"><path d="M6096.9,6619.03l226.149,-226.148c37.261,-37.262 37.403,-74.808 0.719,-111.493l-227.301,-227.301c-36.684,-36.684 -74.231,-36.542 -111.492,0.72l-226.149,226.148c-37.116,37.117 -37.404,74.52 -0.575,111.349l227.3,227.301c36.829,36.828 74.233,36.541 111.349,-0.576Zm-24.888,-26.039c-20.141,20.141 -41.72,20.429 -62.292,-0.143l-224.711,-224.712c-20.572,-20.572 -20.285,-42.151 -0.144,-62.292l225.143,-225.143c19.708,-19.707 41.72,-20.428 62.292,0.144l224.711,224.711c20.573,20.572 19.852,42.585 0.144,62.292l-225.143,225.143Z" style="fill-rule:nonzero;"/></g><g id="Light-L"><path d="M4857.66,6617.34l227.443,-227.443c34.961,-34.961 34.671,-71.212 0.289,-105.595l-228.02,-228.02c-34.527,-34.527 -70.635,-34.672 -105.595,0.288l-227.444,227.444c-34.958,34.958 -35.102,70.779 -0.287,105.594l228.02,228.02c34.814,34.814 70.636,34.67 105.594,-0.288Zm-19.134,-19.997c-22.01,22.011 -45.46,22.155 -67.902,-0.288l-226.006,-226.005c-22.586,-22.587 -22.299,-45.892 -0.288,-67.903l226.437,-226.437c21.579,-21.579 45.462,-22.444 68.048,0.142l226.006,226.006c22.442,22.442 21.721,46.47 0.142,68.048l-226.437,226.437Z" style="fill-rule:nonzero;"/></g><g id="Thin-L"><path d="M3617.34,6614.99l228.884,-228.884c32.079,-32.079 31.649,-66.463 0.143,-97.968l-229.027,-229.028c-31.65,-31.649 -65.889,-31.936 -97.968,0.143l-228.885,228.885c-32.081,32.081 -32.081,65.744 0,97.825l229.027,229.027c32.081,32.081 65.745,32.082 97.826,0Zm-11.222,-12.084c-24.744,24.744 -50.782,24.888 -75.67,0l-227.877,-227.876c-25.031,-25.032 -24.887,-51.071 -0.143,-75.815l228.019,-228.02c24.024,-24.024 50.784,-24.888 75.816,0.143l227.876,227.877c24.888,24.888 24.023,51.647 -0.001,75.671l-228.02,228.02Z" style="fill-rule:nonzero;"/></g><g id="Ultralight-L"><path d="M2378.95,6613.63l229.746,-229.747c30.497,-30.497 30.067,-63.73 0,-93.797l-229.602,-229.603c-30.067,-30.067 -63.301,-30.497 -93.798,0l-229.746,229.747c-30.643,30.642 -30.643,63.155 0,93.797l229.602,229.603c30.643,30.642 63.155,30.642 93.798,0Zm-7.05,-7.913c-26.326,26.327 -53.372,26.327 -79.555,0.144l-228.883,-228.883c-26.183,-26.183 -26.327,-53.373 0,-79.699l228.74,-228.741c25.318,-25.317 53.516,-26.181 79.698,0.002l228.884,228.883c26.182,26.183 25.174,54.237 -0.143,79.554l-228.741,228.74Z" style="fill-rule:nonzero;"/></g><g id="Black-M"><path d="M12280,4774.83l172.202,-172.202c36.11,-36.11 36.109,-78.98 0,-115.089l-172.202,-172.202c-36.109,-36.109 -78.978,-36.11 -115.089,0l-172.202,172.202c-36.109,36.109 -36.109,78.98 0,115.089l172.202,172.202c36.109,36.109 78.98,36.109 115.089,0Zm-45.316,-62.579c-8.344,8.343 -15.393,9.063 -24.457,0l-154.938,-154.939c-9.064,-9.063 -8.488,-16.256 -0.144,-24.6l154.939,-154.939c8.343,-8.344 15.536,-8.919 24.6,0.144l154.938,154.938c9.064,9.064 8.344,16.113 0,24.457l-154.938,154.939Z" style="fill-rule:nonzero;"/></g><g id="Heavy-M"><path d="M11040.9,4772.28l172.777,-172.777c34.671,-34.671 34.67,-74.376 0.143,-108.902l-173.065,-173.065c-34.527,-34.527 -74.375,-34.672 -109.046,-0.001l-172.777,172.777c-34.671,34.671 -34.815,74.52 -0.144,109.191l173.065,173.065c34.527,34.527 74.376,34.383 109.047,-0.288Zm-39.994,-53.229c-9.782,9.783 -18.989,10.359 -29.347,0.001l-159.255,-159.255c-10.502,-10.502 -9.926,-19.709 -0.143,-29.491l159.398,-159.398c9.782,-9.783 18.989,-10.359 29.491,0.143l159.255,159.255c10.358,10.358 9.782,19.565 0,29.347l-159.399,159.398Z" style="fill-rule:nonzero;"/></g><g id="Bold-M"><path d="M9801.28,4769.79l173.353,-173.352c33.088,-33.089 33.087,-69.628 0.287,-102.429l-173.929,-173.928c-32.944,-32.944 -69.339,-32.801 -102.428,0.287l-173.352,173.353c-33.089,33.088 -33.232,69.485 -0.288,102.429l173.928,173.928c32.944,32.944 69.341,32.801 102.429,-0.288Zm-34.095,-43.014c-11.365,11.365 -22.73,11.797 -34.67,-0.144l-164.146,-164.146c-12.085,-12.084 -11.509,-23.305 -0.144,-34.67l164.433,-164.434c11.222,-11.221 22.587,-11.94 34.671,0.144l164.146,164.146c11.94,11.94 11.365,23.449 0.143,34.671l-164.433,164.433Z" style="fill-rule:nonzero;"/></g><g id="Semibold-M"><path d="M8562.67,4768.07l173.784,-173.784c32.081,-32.081 32.081,-66.32 0.432,-97.969l-174.648,-174.648c-31.649,-31.649 -65.744,-31.506 -97.825,0.575l-173.785,173.784c-31.937,31.938 -32.08,66.033 -0.431,97.682l174.647,174.648c31.794,31.793 65.889,31.649 97.826,-0.288Zm-29.923,-35.965c-12.516,12.516 -25.464,12.804 -38.555,-0.288l-167.454,-167.454c-13.092,-13.092 -12.66,-25.895 -0.144,-38.411l167.886,-167.886c12.228,-12.229 25.319,-12.948 38.411,0.144l167.454,167.454c13.092,13.091 12.516,26.327 0.288,38.555l-167.886,167.886Z" style="fill-rule:nonzero;"/></g><g id="Medium-M"><path d="M7324.63,4766.63l174.216,-174.216c31.218,-31.218 31.218,-63.443 0.432,-94.229l-175.079,-175.079c-30.786,-30.787 -63.011,-30.786 -94.229,0.431l-174.216,174.217c-31.074,31.073 -31.362,63.298 -0.432,94.228l175.079,175.08c30.787,30.786 63.155,30.642 94.229,-0.432Zm-26.758,-30.499c-13.235,13.236 -27.477,13.667 -41.432,-0.287l-169.9,-169.901c-13.954,-13.954 -13.523,-28.196 -0.288,-41.432l170.476,-170.475c13.091,-13.092 27.477,-13.667 41.432,0.288l169.9,169.9c13.954,13.954 13.379,28.34 0.288,41.432l-170.476,170.475Z" style="fill-rule:nonzero;"/></g><g id="Regular-M"><path d="M6086.2,4764.76l174.503,-174.504c30.211,-30.21 30.212,-60.134 0.577,-89.77l-175.655,-175.654c-29.635,-29.636 -59.559,-29.635 -89.77,0.576l-174.504,174.503c-30.067,30.067 -30.355,59.99 -0.575,89.77l175.654,175.654c29.78,29.78 59.703,29.492 89.77,-0.575Zm-22.874,-23.449c-14.386,14.386 -29.923,14.674 -44.885,-0.288l-173.353,-173.353c-14.961,-14.961 -14.674,-30.498 -0.287,-44.885l173.928,-173.928c14.242,-14.242 29.923,-14.673 44.885,0.288l173.352,173.353c14.962,14.961 14.53,30.642 0.288,44.884l-173.928,173.929Z" style="fill-rule:nonzero;"/></g><g id="Light-M"><path d="M4847.17,4763.17l175.654,-175.654c28.053,-28.053 28.053,-56.826 0.432,-84.447l-176.374,-176.374c-27.765,-27.765 -56.538,-27.765 -84.591,0.288l-175.654,175.655c-28.053,28.053 -28.197,56.681 -0.288,84.59l176.374,176.374c27.765,27.765 56.394,27.621 84.447,-0.432Zm-17.552,-18.126c-16.112,16.112 -33.375,16.4 -50.063,-0.288l-174.504,-174.504c-16.544,-16.544 -16.4,-33.951 -0.288,-50.063l174.936,-174.935c15.968,-15.969 33.663,-16.401 50.207,0.143l174.504,174.504c16.688,16.688 16.112,34.239 0.144,50.208l-174.936,174.935Z" style="fill-rule:nonzero;"/></g><g id="Thin-M"><path d="M3607.27,4760.97l177.093,-177.093c25.464,-25.463 25.176,-52.222 0.144,-77.254l-177.381,-177.381c-25.032,-25.031 -51.934,-25.463 -77.397,0.001l-177.093,177.093c-25.464,25.463 -25.608,52.077 -0.144,77.541l177.381,177.381c25.319,25.32 51.933,25.176 77.397,-0.288Zm-10.358,-10.933c-18.702,18.702 -38.267,18.702 -56.969,0l-176.23,-176.23c-18.846,-18.846 -18.846,-38.411 -0.144,-57.113l176.374,-176.374c18.126,-18.126 38.267,-18.702 57.113,0.144l176.23,176.23c18.702,18.702 18.126,38.843 0,56.969l-176.374,176.374Z" style="fill-rule:nonzero;"/></g><g id="Ultralight-M"><path d="M2369.03,4760l177.812,-177.813c24.025,-24.024 23.881,-50.063 0,-73.944l-177.668,-177.669c-23.882,-23.881 -49.92,-24.025 -73.945,0l-177.813,177.813c-24.168,24.168 -24.168,49.776 0,73.944l177.669,177.669c24.169,24.169 49.776,24.169 73.945,0Zm-6.762,-7.337c-19.853,19.853 -40.569,19.853 -60.421,0l-177.093,-177.093c-19.997,-19.997 -19.854,-40.569 -0.001,-60.422l177.093,-177.093c19.278,-19.277 40.569,-20.141 60.566,-0.144l177.093,177.093c19.853,19.853 19.134,41.289 -0.144,60.566l-177.093,177.093Z" style="fill-rule:nonzero;"/></g><g id="Black-S"><path d="M12267.4,2933.14l134.942,-134.942c28.197,-28.197 28.197,-61.573 0,-89.77l-134.942,-134.942c-28.196,-28.196 -61.572,-28.196 -89.769,0.001l-134.942,134.942c-28.197,28.196 -28.197,61.572 0,89.769l134.942,134.942c28.197,28.197 61.573,28.197 89.769,0Zm-35.102,-48.338c-6.618,6.618 -12.372,7.193 -19.565,0l-121.707,-121.706c-7.193,-7.193 -6.617,-12.948 0,-19.565l121.707,-121.707c6.618,-6.618 12.372,-7.193 19.565,0l121.707,121.707c7.193,7.193 6.617,12.947 0,19.565l-121.707,121.706Z" style="fill-rule:nonzero;"/></g><g id="Heavy-S"><path d="M11029.3,2931.48l135.23,-135.229c27.333,-27.334 27.189,-58.552 0,-85.742l-135.518,-135.517c-27.189,-27.19 -58.407,-27.333 -85.741,0l-135.23,135.23c-27.333,27.333 -27.333,58.695 -0.143,85.885l135.517,135.517c27.19,27.19 58.551,27.19 85.885,-0.144Zm-31.793,-41.863c-7.481,7.481 -14.53,7.912 -22.587,-0.144l-124.871,-124.872c-8.057,-8.056 -7.625,-15.105 -0.144,-22.586l125.016,-125.015c7.48,-7.481 14.673,-8.057 22.729,0l124.872,124.871c8.056,8.056 7.481,15.25 0,22.73l-125.015,125.016Z" style="fill-rule:nonzero;"/></g><g id="Bold-S"><path d="M9790.78,2929.69l135.517,-135.517c26.471,-26.471 26.471,-55.243 0.288,-81.426l-136.093,-136.092c-26.183,-26.183 -54.955,-26.183 -81.425,0.287l-135.518,135.518c-26.326,26.326 -26.47,55.242 -0.287,81.425l136.092,136.093c26.183,26.183 55.099,26.039 81.426,-0.288Zm-27.765,-34.671c-8.488,8.488 -17.264,8.92 -26.327,-0.143l-128.324,-128.324c-9.064,-9.064 -8.632,-17.839 -0.144,-26.327l128.612,-128.612c8.488,-8.488 17.263,-8.92 26.327,0.144l128.324,128.324c9.063,9.063 8.631,17.839 0.143,26.327l-128.611,128.611Z" style="fill-rule:nonzero;"/></g><g id="Semibold-S"><path d="M8552.82,2928.46l135.805,-135.805c25.751,-25.751 26.039,-52.797 0.575,-78.26l-136.668,-136.668c-25.463,-25.464 -52.509,-25.176 -78.26,0.575l-135.806,135.805c-25.607,25.607 -25.895,52.653 -0.431,78.117l136.668,136.668c25.463,25.463 52.509,25.176 78.117,-0.432Zm-25.032,-29.635c-9.207,9.207 -18.846,9.351 -28.485,-0.288l-130.914,-130.914c-9.638,-9.638 -9.494,-19.277 -0.287,-28.484l131.201,-131.202c9.207,-9.207 18.99,-9.495 28.629,0.144l130.913,130.914c9.639,9.639 9.351,19.421 0.144,28.628l-131.201,131.202Z" style="fill-rule:nonzero;"/></g><g id="Medium-S"><path d="M7315.42,2927.53l136.093,-136.093c25.176,-25.175 25.319,-50.926 0.431,-75.814l-136.956,-136.956c-24.888,-24.888 -50.639,-24.744 -75.814,0.431l-136.093,136.093c-25.032,25.032 -25.32,50.927 -0.432,75.815l136.956,136.956c24.888,24.888 50.783,24.6 75.815,-0.432Zm-23.018,-25.895c-9.638,9.639 -20.284,9.927 -30.498,-0.288l-132.64,-132.64c-10.214,-10.214 -9.927,-20.86 -0.288,-30.499l133.215,-133.215c9.639,-9.639 20.285,-9.926 30.499,0.288l132.64,132.64c10.214,10.214 9.927,20.86 0.288,30.499l-133.216,133.215Z" style="fill-rule:nonzero;"/></g><g id="Regular-S"><path d="M6077.78,2926.3l136.237,-136.236c24.6,-24.6 24.6,-48.769 0.431,-72.938l-137.243,-137.244c-24.169,-24.168 -48.338,-24.168 -72.938,0.432l-136.236,136.237c-24.457,24.456 -24.601,48.769 -0.432,72.937l137.244,137.244c24.168,24.169 48.481,24.025 72.937,-0.432Zm-20.572,-21.147c-10.358,10.358 -21.723,10.789 -32.656,-0.144l-135.23,-135.23c-10.789,-10.789 -10.502,-22.298 -0.144,-32.656l135.662,-135.661c10.357,-10.358 21.867,-10.646 32.656,0.143l135.23,135.23c10.933,10.933 10.501,22.299 0.143,32.656l-135.661,135.662Z" style="fill-rule:nonzero;"/></g><g id="Light-S"><path d="M4838.98,2924.8l137.244,-137.244c22.874,-22.874 22.874,-45.604 0.432,-68.046l-137.963,-137.963c-22.443,-22.442 -45.317,-22.586 -68.19,0.287l-137.244,137.244c-22.73,22.73 -22.874,45.604 -0.288,68.19l137.963,137.963c22.442,22.443 45.317,22.299 68.046,-0.431Zm-15.68,-16.257c-11.941,11.941 -24.888,12.229 -37.26,-0.143l-136.237,-136.237c-12.372,-12.372 -12.228,-25.464 -0.288,-37.404l136.668,-136.668c11.797,-11.797 25.032,-12.084 37.404,0.288l136.237,136.236c12.372,12.372 11.94,25.464 0.144,37.26l-136.668,136.668Z" style="fill-rule:nonzero;"/></g><g id="Thin-S"><path d="M3599.5,2923.03l138.539,-138.538c20.428,-20.428 20.284,-41.864 0.143,-62.004l-138.682,-138.683c-20.284,-20.284 -41.72,-20.428 -62.148,0l-138.538,138.539c-20.429,20.428 -20.429,41.72 0,62.148l138.682,138.682c20.428,20.429 41.576,20.285 62.004,-0.144Zm-9.495,-10.07c-14.098,14.098 -28.916,14.242 -43.302,-0.144l-137.675,-137.675c-14.243,-14.242 -14.243,-29.204 -0.144,-43.302l137.963,-137.963c13.667,-13.667 29.06,-14.098 43.302,0.144l137.675,137.675c14.386,14.386 13.811,29.635 0.144,43.302l-137.963,137.963Z" style="fill-rule:nonzero;"/></g><g id="Ultralight-S"><path d="M2361.62,2921.98l139.114,-139.114c19.278,-19.277 18.846,-39.849 0,-58.695l-139.258,-139.258c-18.989,-18.989 -39.417,-19.277 -58.695,0l-139.114,139.114c-19.277,19.277 -19.277,39.706 -0.144,58.839l139.258,139.258c19.134,19.134 39.562,19.134 58.839,-0.144Zm-6.186,-6.761c-15.393,15.393 -31.218,15.393 -46.611,0l-138.394,-138.395c-15.393,-15.393 -15.393,-31.218 0,-46.611l138.538,-138.538c14.674,-14.674 31.074,-15.25 46.467,0.143l138.395,138.395c15.393,15.393 14.817,31.793 0.144,46.467l-138.539,138.539Z" style="fill-rule:nonzero;"/></g></g></svg>