<?xml version="1.0" encoding="UTF-8" standalone="no"?><!DOCTYPE svg PUBLIC "-//W3C//DTD SVG 1.1//EN" "http://www.w3.org/Graphics/SVG/1.1/DTD/svg11.dtd"><svg width="100%" height="100%" viewBox="0 0 3300 2200" version="1.1" xmlns="http://www.w3.org/2000/svg" xmlns:xlink="http://www.w3.org/1999/xlink" xml:space="preserve" xmlns:serif="http://www.serif.com/" style="fill-rule:evenodd;clip-rule:evenodd;"><g id="Notes"><rect id="artboard" x="0" y="0" width="3300" height="2200" style="fill:#fff;"/><path d="M263,292l2773,0" style="fill:none;fill-rule:nonzero;stroke:#000;stroke-width:0.5px;"/><text x="263px" y="322px" style="font-family:'SFProDisplay-Bold', 'SF Pro Display';font-weight:700;font-size:16px;">W<tspan x="277.508px " y="322px ">e</tspan>ight/Scale V<tspan x="374.125px " y="322px ">a</tspan>riations</text><text x="529.313px" y="322px" style="font-family:'SFProDisplay-Regular', 'SF Pro Display';font-size:16px;">Ultr<tspan x="553.313px " y="322px ">a</tspan>light</text><text x="841.613px" y="322px" style="font-family:'SFProDisplay-Regular', 'SF Pro Display';font-size:16px;">Thin</text><text x="1136.18px" y="322px" style="font-family:'SFProDisplay-Regular', 'SF Pro Display';font-size:16px;">Light</text><text x="1424.23px" y="322px" style="font-family:'SFProDisplay-Regular', 'SF Pro Display';font-size:16px;">Regular</text><text x="1719.11px" y="322px" style="font-family:'SFProDisplay-Regular', 'SF Pro Display';font-size:16px;">Medium</text><text x="2011.62px" y="322px" style="font-family:'SFProDisplay-Regular', 'SF Pro Display';font-size:16px;">Semibold</text><text x="2324.84px" y="322px" style="font-family:'SFProDisplay-Regular', 'SF Pro Display';font-size:16px;">Bold</text><text x="2615.23px" y="322px" style="font-family:'SFProDisplay-Regular', 'SF Pro Display';font-size:16px;">Heavy</text><text x="2915.03px" y="322px" style="font-family:'SFProDisplay-Regular', 'SF Pro Display';font-size:16px;">Black</text><path d="M263,1903l2773,0" style="fill:none;fill-rule:nonzero;stroke:#000;stroke-width:0.5px;"/><g><path d="M272.248,1933.83c4.307,0 7.891,-3.574 7.891,-7.881c0,-4.306 -3.594,-7.881 -7.901,-7.881c-4.297,0 -7.871,3.575 -7.871,7.881c0,4.307 3.584,7.881 7.881,7.881Zm0,-1.484c-3.545,0 -6.377,-2.842 -6.377,-6.397c0,-3.554 2.822,-6.396 6.367,-6.396c3.555,0 6.397,2.841 6.406,6.396c0.01,3.555 -2.841,6.397 -6.396,6.397Zm-0.019,-2.774c0.468,0 0.742,-0.312 0.742,-0.83l0,-2.06l2.226,0c0.498,0 0.84,-0.254 0.84,-0.723c0,-0.479 -0.322,-0.742 -0.84,-0.742l-2.226,0l0,-2.227c0,-0.517 -0.274,-0.84 -0.742,-0.84c-0.469,0 -0.723,0.342 -0.723,0.84l0,2.227l-2.207,0c-0.518,0 -0.85,0.263 -0.85,0.742c0,0.469 0.352,0.723 0.85,0.723l2.207,0l0,2.06c0,0.498 0.254,0.83 0.723,0.83Z" style="fill-rule:nonzero;"/></g><g><path d="M293.215,1935.91c5.449,0 9.961,-4.512 9.961,-9.961c0,-5.439 -4.522,-9.961 -9.971,-9.961c-5.439,0 -9.951,4.522 -9.951,9.961c0,5.449 4.522,9.961 9.961,9.961Zm0,-1.66c-4.609,0 -8.291,-3.691 -8.291,-8.301c0,-4.599 3.672,-8.301 8.281,-8.301c4.61,0 8.301,3.702 8.311,8.301c0.009,4.61 -3.692,8.301 -8.301,8.301Zm-0.02,-3.662c0.518,0 0.83,-0.361 0.83,-0.928l0,-2.89l3.057,0c0.547,0 0.928,-0.284 0.928,-0.801c0,-0.528 -0.361,-0.83 -0.928,-0.83l-3.057,0l0,-3.067c0,-0.576 -0.312,-0.927 -0.83,-0.927c-0.517,0 -0.81,0.371 -0.81,0.927l0,3.067l-3.047,0c-0.566,0 -0.937,0.302 -0.937,0.83c0,0.517 0.39,0.801 0.937,0.801l3.047,0l0,2.89c0,0.547 0.293,0.928 0.81,0.928Z" style="fill-rule:nonzero;"/></g><g><path d="M319.895,1938.67c6.963,0 12.724,-5.752 12.724,-12.715c0,-6.963 -5.771,-12.715 -12.734,-12.715c-6.953,0 -12.705,5.752 -12.705,12.715c0,6.963 5.762,12.715 12.715,12.715Zm0,-1.817c-6.035,0 -10.889,-4.863 -10.889,-10.898c0,-6.035 4.844,-10.899 10.879,-10.899c6.045,0.001 10.898,4.864 10.908,10.899c0.01,6.035 -4.853,10.898 -10.898,10.898Zm-0.02,-4.921c0.567,0 0.918,-0.391 0.918,-0.997l0,-4.072l4.238,0c0.586,0 1.006,-0.332 1.006,-0.888c0,-0.577 -0.39,-0.918 -1.006,-0.918l-4.238,0l0,-4.248c0,-0.616 -0.351,-1.006 -0.918,-1.006c-0.566,0 -0.889,0.41 -0.889,1.006l0,4.248l-4.228,0c-0.615,0 -1.025,0.341 -1.025,0.918c0,0.556 0.429,0.888 1.025,0.888l4.228,0l0,4.072c0,0.586 0.323,0.997 0.889,0.997Z" style="fill-rule:nonzero;"/></g><text x="263px" y="1953px" style="font-family:'SFProDisplay-Bold', 'SF Pro Display';font-weight:700;font-size:16px;">Design V<tspan x="326.789px " y="1953px ">a</tspan>riations</text><text x="263px" y="1971px" style="font-family:'SFProDisplay-Regular', 'SF Pro Display';font-size:16px;">Symbols ar<tspan x="337.047px " y="1971px ">e</tspan> suppor<tspan x="395.711px 400.297px " y="1971px 1971px ">te</tspan>d in up t<tspan x="460.695px " y="1971px ">o</tspan> nine weights and thr<tspan x="606.523px " y="1971px ">e</tspan>e scales.</text><text x="263px" y="1989px" style="font-family:'SFProDisplay-Regular', 'SF Pro Display';font-size:16px;">F<tspan x="271.133px " y="1989px ">o</tspan>r optimal lay<tspan x="359.477px " y="1989px ">o</tspan>ut with t<tspan x="420.523px 428.563px " y="1989px 1989px ">ex</tspan>t and other symbols,<tspan x="570.547px 573.828px 581.32px 589.516px 594.758px " y="1989px 1989px 1989px 1989px 1989px "> vert</tspan>ically align</text><text x="263px" y="2007px" style="font-family:'SFProDisplay-Regular', 'SF Pro Display';font-size:16px;">symbols with the adjacent t<tspan x="444.305px 452.344px " y="2007px 2007px ">ex</tspan>t.</text><rect x="776" y="1919" width="3" height="14" style="fill:#00aeef;fill-opacity:0.4;"/><g><path d="M789.527,1933l1.846,0l-5.195,-14.092l-1.739,0l-5.195,14.092l1.846,0l1.416,-4.033l5.605,0l1.416,4.033Zm-4.248,-11.953l0.059,0l2.256,6.426l-4.571,0l2.256,-6.426Z" style="fill-rule:nonzero;"/></g><rect x="791.617" y="1919" width="3" height="14" style="fill:#00aeef;fill-opacity:0.4;"/><text x="776px" y="1953px" style="font-family:'SFProDisplay-Bold', 'SF Pro Display';font-weight:700;font-size:16px;">M<tspan x="789.641px 798.398px 803.945px " y="1953px 1953px 1953px ">arg</tspan>ins</text><text x="776px" y="1971px" style="font-family:'SFProDisplay-Regular', 'SF Pro Display';font-size:16px;">L<tspan x="784.156px " y="1971px ">e</tspan>ading and tr<tspan x="871.203px " y="1971px ">a</tspan>iling mar<tspan x="934.953px " y="1971px ">g</tspan>ins on the left and right side of each symbol</text><text x="776px" y="1989px" style="font-family:'SFProDisplay-Regular', 'SF Pro Display';font-size:16px;">can be adjust<tspan x="864.719px " y="1989px ">e</tspan>d b<tspan x="893.688px " y="1989px ">y</tspan> modifying the width of the blue r<tspan x="1117.98px " y="1989px ">e</tspan>ct<tspan x="1138.85px " y="1989px ">a</tspan>ngles.</text><text x="776px" y="2007px" style="font-family:'SFProDisplay-Regular', 'SF Pro Display';font-size:16px;">Modifications ar<tspan x="882.391px " y="2007px ">e</tspan> aut<tspan x="914.914px " y="2007px ">o</tspan>matically applied pr<tspan x="1051.82px " y="2007px ">o</tspan>por<tspan x="1082.84px " y="2007px ">t</tspan>ionally t<tspan x="1138.06px " y="2007px ">o</tspan> all</text><text x="776px" y="2025px" style="font-family:'SFProDisplay-Regular', 'SF Pro Display';font-size:16px;">scales and weights.</text><g><path d="M1291.83,1936.12l1.543,1.543c0.85,0.83 1.816,0.762 2.686,-0.195l10.214,-11.123c0.43,0.293 0.821,0.283 1.29,0.185l1.044,-0.214l0.694,0.693l-0.049,0.517c-0.068,0.528 0.098,0.948 0.596,1.446l0.81,0.81c0.508,0.508 1.162,0.537 1.641,0.059l3.252,-3.252c0.478,-0.479 0.459,-1.133 -0.049,-1.641l-0.82,-0.82c-0.498,-0.498 -0.909,-0.674 -1.446,-0.596l-0.527,0.059l-0.654,-0.664l0.283,-1.143c0.146,-0.566 0,-1.035 -0.625,-1.64l-2.412,-2.393c-3.545,-3.525 -8.076,-3.418 -11.192,-0.283c-0.42,0.43 -0.468,1.016 -0.195,1.445c0.234,0.371 0.713,0.596 1.357,0.43c1.514,-0.381 3.028,-0.264 4.512,0.742l-0.625,1.582c-0.234,0.586 -0.215,1.065 0.02,1.504l-11.162,10.273c-0.938,0.87 -1.045,1.817 -0.186,2.676Zm7.842,-18.261c2.666,-1.993 5.976,-1.68 8.379,0.732l2.627,2.607c0.234,0.235 0.263,0.42 0.205,0.713l-0.381,1.563l1.572,1.572l0.967,-0.088c0.283,-0.029 0.371,-0.01 0.596,0.215l0.625,0.625l-2.754,2.744l-0.625,-0.615c-0.225,-0.225 -0.244,-0.322 -0.215,-0.606l0.088,-0.957l-1.563,-1.562l-1.621,0.312c-0.283,0.059 -0.429,0.059 -0.664,-0.185l-2.178,-2.178c-0.224,-0.234 -0.253,-0.371 -0.126,-0.693l0.947,-2.276c-1.602,-1.533 -3.711,-2.382 -5.752,-1.728c-0.088,0.029 -0.156,0.01 -0.186,-0.029c-0.029,-0.049 -0.029,-0.098 0.059,-0.166Zm-6.572,17.558c-0.489,-0.498 -0.313,-0.801 0.019,-1.103l10.957,-10.118l1.231,1.231l-10.157,10.928c-0.302,0.332 -0.683,0.429 -1.084,0.029l-0.966,-0.967Z" style="fill-rule:nonzero;"/></g><text x="1289px" y="1953px" style="font-family:'SFProDisplay-Bold', 'SF Pro Display';font-weight:700;font-size:16px;">Expor<tspan x="1331.37px " y="1953px ">t</tspan>ing</text><text x="1289px" y="1971px" style="font-family:'SFProDisplay-Regular', 'SF Pro Display';font-size:16px;">Symbols should be outlined when e<tspan x="1524.27px " y="1971px ">x</tspan>por<tspan x="1554.31px " y="1971px ">t</tspan>ing t<tspan x="1587.48px " y="1971px ">o</tspan> ensur<tspan x="1636.29px " y="1971px ">e</tspan> the</text><text x="1289px" y="1989px" style="font-family:'SFProDisplay-Regular', 'SF Pro Display';font-size:16px;">design is pr<tspan x="1364.59px " y="1989px ">e</tspan>serv<tspan x="1400.84px " y="1989px ">e</tspan>d when submitting t<tspan x="1540.01px " y="1989px ">o</tspan> X<tspan x="1561.39px " y="1989px ">c</tspan>ode.</text><text id="template-version" x="2941.47px" y="1933px" style="font-family:'SFProDisplay-Regular', 'SF Pro Display';font-size:16px;">T<tspan x="2948.66px " y="1933px ">e</tspan>mplat<tspan x="2994.38px " y="1933px ">e</tspan> v<tspan x="3012.41px 3015.53px 3022.23px " y="1933px 1933px 1933px ">.1.</tspan>0</text><text x="2791.47px" y="1951px" style="font-family:'SFProDisplay-Regular', 'SF Pro Display';font-size:16px;">Gener<tspan x="2832.37px 2840.4px 2844.98px " y="1951px 1951px 1951px ">ate</tspan>d fr<tspan x="2874.72px " y="1951px ">o</tspan>m squar<tspan x="2936.58px " y="1951px ">e</tspan>.and.arr<tspan x="2995.72px 3004.21px 3014.72px " y="1951px 1951px 1951px ">ow.</tspan>up</text><text x="2892.91px" y="1969px" style="font-family:'SFProDisplay-Regular', 'SF Pro Display';font-size:16px;">T<tspan x="2900.34px " y="1969px ">y</tspan>peset at 100 points</text><text x="263px" y="726px" style="font-family:'SFProDisplay-Regular', 'SF Pro Display';font-size:16px;">Small</text><text x="263px" y="1156px" style="font-family:'SFProDisplay-Regular', 'SF Pro Display';font-size:16px;">Medium</text><text x="263px" y="1586px" style="font-family:'SFProDisplay-Regular', 'SF Pro Display';font-size:16px;">Lar<tspan x="283.961px " y="1586px ">g</tspan>e</text></g><g id="Guides"><g id="H-reference"><path d="M393.932,696l2.734,0l-27.1,-70.459l-2.49,0l-27.099,70.459l2.685,0l9.278,-24.463l32.763,0l9.229,24.463Zm-25.733,-67.09l0.244,0l15.381,40.381l-31.006,0l15.381,-40.381Z" style="fill:#27aae1;fill-rule:nonzero;"/></g><path id="Baseline-S" d="M263,696l2773,0" style="fill:none;fill-rule:nonzero;stroke:#27aae1;stroke-width:0.58px;"/><path id="Capline-S" d="M263,625.541l2773,0" style="fill:none;fill-rule:nonzero;stroke:#27aae1;stroke-width:0.58px;"/><g id="H-reference1" serif:id="H-reference"><path d="M393.932,1126l2.734,0l-27.1,-70.459l-2.49,0l-27.099,70.459l2.685,0l9.278,-24.463l32.763,0l9.229,24.463Zm-25.733,-67.09l0.244,0l15.381,40.381l-31.006,0l15.381,-40.381Z" style="fill:#27aae1;fill-rule:nonzero;"/></g><path id="Baseline-M" d="M263,1126l2773,0" style="fill:none;fill-rule:nonzero;stroke:#27aae1;stroke-width:0.58px;"/><path id="Capline-M" d="M263,1055.54l2773,0" style="fill:none;fill-rule:nonzero;stroke:#27aae1;stroke-width:0.58px;"/><g id="H-reference2" serif:id="H-reference"><path d="M393.932,1556l2.734,0l-27.1,-70.459l-2.49,0l-27.099,70.459l2.685,0l9.278,-24.463l32.763,0l9.229,24.463Zm-25.733,-67.09l0.244,0l15.381,40.381l-31.006,0l15.381,-40.381Z" style="fill:#27aae1;fill-rule:nonzero;"/></g><path id="Baseline-L" d="M263,1556l2773,0" style="fill:none;fill-rule:nonzero;stroke:#27aae1;stroke-width:0.58px;"/><path id="Capline-L" d="M263,1485.54l2773,0" style="fill:none;fill-rule:nonzero;stroke:#27aae1;stroke-width:0.58px;"/><rect id="left-margin" x="1394.06" y="1030.79" width="12.451" height="119.336" style="fill:#00aeef;fill-opacity:0.4;"/><rect id="right-margin" x="1493.18" y="1030.79" width="12.451" height="119.336" style="fill:#00aeef;fill-opacity:0.4;"/></g><g id="Symbols"><g id="Black-L"><g id="Heavy-L"><g id="Bold-L"><g id="Semibold-L"><g id="Medium-L"><g id="Regular-L"><g id="Light-L"><g id="Thin-L"><g id="Ultralight-M"><g id="Ultralight-S"><g><path d="M2890.95,1585.48c-3.62,5.409 -7.573,9.188 -8.822,8.433l-8.925,-5.393c-1.249,-0.755 0.677,-5.758 4.297,-11.167l13.12,-19.6c5.742,-8.579 6.199,-9.776 6.199,-9.776l13.552,8.154l-6.301,9.749l-13.12,19.6Z" style="fill:none;stroke:#000;stroke-width:8px;stroke-linecap:round;stroke-linejoin:round;stroke-miterlimit:1.5;"/><path d="M2924.02,1547.91c1.45,-2.167 0.824,-5.015 -1.397,-6.357l-15.875,-9.593c-2.221,-1.342 -5.202,-0.673 -6.652,1.493l-5.254,7.85c-2.3,3.436 -3.056,3.666 -0.835,5.009l18.106,10.941c4.825,2.915 3.503,3.212 6.652,-1.493l5.255,-7.85Z" style="fill:none;stroke:#000;stroke-width:8px;stroke-linecap:round;stroke-linejoin:round;stroke-miterlimit:1.5;"/><path d="M2968.41,1466.93c9.991,-16.377 19.399,-29.232 19.314,-29.405l-3.475,-4.477l-5.45,-0.916c-0.085,-0.173 -9.101,12.62 -20.256,28.416l-20.608,27.886l-40.423,-56.302l-4.836,1.422l-3.992,3.971l40.191,64.519c0,0 -0.963,1.079 -9.809,14.579c-10.888,16.616 -13.187,14.711 -11.939,15.466c0,0 -0.06,0.099 14.441,8.861c2.712,1.639 -1.342,0.278 10.948,-16.2c5.824,-7.809 5.719,-7.964 5.719,-7.964l16.083,25.576l14.209,-9l-22.153,-32.184l22.036,-34.248Zm-25.115,57.82c-36.82,-57.938 -54.611,-87.225 -54.611,-87.225l3.992,-3.971l4.836,-1.422c0,0 30.069,40.983 48.867,69.069c10.055,15.023 18.671,27.281 21.247,30.926c0.511,0.723 0.914,1.283 0.914,1.283l-14.222,8.952c0,0 -3.236,-5.359 -11.023,-17.612Z" style="fill:none;stroke:#000;stroke-width:8px;stroke-linecap:round;stroke-linejoin:round;stroke-miterlimit:1.5;"/><path d="M2985.03,1587.41c3.581,5.409 7.492,9.187 8.727,8.433l8.828,-5.393c1.236,-0.755 -0.669,-5.759 -4.25,-11.168l-12.978,-19.6c-5.68,-8.578 -6.929,-10.279 -6.929,-10.279l-12.799,8.26c0,0 -1.356,-1.601 6.423,10.147l12.978,19.6Z" style="fill:none;stroke:#000;stroke-width:8px;stroke-linecap:round;stroke-linejoin:round;stroke-miterlimit:1.5;"/><path d="M2952.48,1549.09c-1.471,-2.142 -0.899,-5 1.275,-6.379l15.541,-9.855c2.174,-1.378 5.133,-0.759 6.604,1.383l5.328,7.762c2.332,3.397 3.083,3.615 0.909,4.994l-17.725,11.24c-4.722,2.995 -3.41,3.269 -6.603,-1.383l-5.329,-7.762Z" style="fill:none;stroke:#000;stroke-width:8px;stroke-linecap:round;stroke-linejoin:round;stroke-miterlimit:1.5;"/></g></g></g></g></g></g></g></g></g></g></g><g id="Heavy-L1" serif:id="Heavy-L"><g id="Bold-L1" serif:id="Bold-L"><g id="Semibold-L1" serif:id="Semibold-L"><g id="Medium-L1" serif:id="Medium-L"><g id="Regular-L1" serif:id="Regular-L"><g id="Light-L1" serif:id="Light-L"><g id="Thin-L1" serif:id="Thin-L"><g id="Ultralight-M1" serif:id="Ultralight-M"><g id="Ultralight-S1" serif:id="Ultralight-S"><g><path d="M2589.75,1585.48c-3.621,5.409 -7.574,9.188 -8.823,8.433l-8.924,-5.393c-1.249,-0.755 0.676,-5.758 4.297,-11.167l13.12,-19.6c5.742,-8.579 6.199,-9.776 6.199,-9.776l13.552,8.154l-6.302,9.749l-13.119,19.6Z" style="fill:none;stroke:#000;stroke-width:7px;stroke-linecap:round;stroke-linejoin:round;stroke-miterlimit:1.5;"/><path d="M2622.81,1547.91c1.45,-2.167 0.824,-5.015 -1.397,-6.357l-15.875,-9.593c-2.221,-1.342 -5.201,-0.673 -6.651,1.493l-5.255,7.85c-2.3,3.436 -3.055,3.666 -0.834,5.009l18.106,10.941c4.824,2.915 3.502,3.212 6.652,-1.493l5.254,-7.85Z" style="fill:none;stroke:#000;stroke-width:7px;stroke-linecap:round;stroke-linejoin:round;stroke-miterlimit:1.5;"/><path d="M2667.2,1466.93c9.991,-16.377 19.399,-29.232 19.314,-29.405l-3.475,-4.477l-5.45,-0.916c-0.086,-0.173 -9.102,12.62 -20.256,28.416l-20.608,27.886l-40.423,-56.302l-4.837,1.422l-3.992,3.971l40.192,64.519c0,0 -0.963,1.079 -9.809,14.579c-10.888,16.616 -13.188,14.711 -11.939,15.466c0,0 -0.06,0.099 14.44,8.861c2.712,1.639 -1.341,0.278 10.949,-16.2c5.824,-7.809 5.719,-7.964 5.719,-7.964l16.083,25.576l14.208,-9l-22.153,-32.184l22.037,-34.248Zm-25.115,57.82c-36.821,-57.938 -54.612,-87.225 -54.612,-87.225l3.992,-3.971l4.837,-1.422c0,0 30.068,40.983 48.867,69.069c10.054,15.023 18.671,27.281 21.247,30.926c0.51,0.723 0.913,1.283 0.913,1.283l-14.221,8.952c0,0 -3.236,-5.359 -11.023,-17.612Z" style="fill:none;stroke:#000;stroke-width:7px;stroke-linecap:round;stroke-linejoin:round;stroke-miterlimit:1.5;"/><path d="M2683.82,1587.41c3.582,5.409 7.492,9.187 8.728,8.433l8.828,-5.393c1.235,-0.755 -0.67,-5.759 -4.251,-11.168l-12.978,-19.6c-5.68,-8.578 -6.929,-10.279 -6.929,-10.279l-12.799,8.26c0,0 -1.355,-1.601 6.424,10.147l12.977,19.6Z" style="fill:none;stroke:#000;stroke-width:7px;stroke-linecap:round;stroke-linejoin:round;stroke-miterlimit:1.5;"/><path d="M2651.28,1549.09c-1.47,-2.142 -0.899,-5 1.276,-6.379l15.54,-9.855c2.175,-1.378 5.134,-0.759 6.604,1.383l5.329,7.762c2.332,3.397 3.083,3.615 0.909,4.994l-17.725,11.24c-4.723,2.995 -3.41,3.269 -6.604,-1.383l-5.329,-7.762Z" style="fill:none;stroke:#000;stroke-width:7px;stroke-linecap:round;stroke-linejoin:round;stroke-miterlimit:1.5;"/></g></g></g></g></g></g></g></g></g></g><g id="Bold-L2" serif:id="Bold-L"><g id="Semibold-L2" serif:id="Semibold-L"><g id="Medium-L2" serif:id="Medium-L"><g id="Regular-L2" serif:id="Regular-L"><g id="Light-L2" serif:id="Light-L"><g id="Thin-L2" serif:id="Thin-L"><g id="Ultralight-M2" serif:id="Ultralight-M"><g id="Ultralight-S2" serif:id="Ultralight-S"><g><path d="M2293.03,1585.48c-3.62,5.409 -7.573,9.188 -8.822,8.433l-8.925,-5.393c-1.249,-0.755 0.677,-5.758 4.297,-11.167l13.12,-19.6c5.742,-8.579 6.199,-9.776 6.199,-9.776l13.552,8.154l-6.301,9.749l-13.12,19.6Z" style="fill:none;stroke:#000;stroke-width:6px;stroke-linecap:round;stroke-linejoin:round;stroke-miterlimit:1.5;"/><path d="M2326.1,1547.91c1.45,-2.167 0.824,-5.015 -1.397,-6.357l-15.875,-9.593c-2.221,-1.342 -5.202,-0.673 -6.652,1.493l-5.254,7.85c-2.3,3.436 -3.056,3.666 -0.834,5.009l18.106,10.941c4.824,2.915 3.502,3.212 6.651,-1.493l5.255,-7.85Z" style="fill:none;stroke:#000;stroke-width:6px;stroke-linecap:round;stroke-linejoin:round;stroke-miterlimit:1.5;"/><path d="M2370.49,1466.93c9.991,-16.377 19.399,-29.232 19.314,-29.405l-3.475,-4.477l-5.45,-0.916c-0.085,-0.173 -9.101,12.62 -20.256,28.416l-20.608,27.886l-40.423,-56.302l-4.836,1.422l-3.992,3.971l40.192,64.519c0,0 -0.964,1.079 -9.81,14.579c-10.888,16.616 -13.187,14.711 -11.938,15.466c0,0 -0.061,0.099 14.44,8.861c2.712,1.639 -1.342,0.278 10.948,-16.2c5.825,-7.809 5.719,-7.964 5.719,-7.964l16.083,25.576l14.209,-9l-22.153,-32.184l22.036,-34.248Zm-25.115,57.82c-36.82,-57.938 -54.611,-87.225 -54.611,-87.225l3.992,-3.971l4.836,-1.422c0,0 30.069,40.983 48.867,69.069c10.055,15.023 18.671,27.281 21.247,30.926c0.511,0.723 0.914,1.283 0.914,1.283l-14.222,8.952c0,0 -3.236,-5.359 -11.023,-17.612Z" style="fill:none;stroke:#000;stroke-width:6px;stroke-linecap:round;stroke-linejoin:round;stroke-miterlimit:1.5;"/><path d="M2387.11,1587.41c3.581,5.409 7.492,9.187 8.727,8.433l8.829,-5.393c1.235,-0.755 -0.67,-5.759 -4.251,-11.168l-12.978,-19.6c-5.68,-8.578 -6.929,-10.279 -6.929,-10.279l-12.799,8.26c0,0 -1.356,-1.601 6.423,10.147l12.978,19.6Z" style="fill:none;stroke:#000;stroke-width:6px;stroke-linecap:round;stroke-linejoin:round;stroke-miterlimit:1.5;"/><path d="M2354.56,1549.09c-1.47,-2.142 -0.899,-5 1.275,-6.379l15.541,-9.855c2.174,-1.378 5.133,-0.759 6.604,1.383l5.328,7.762c2.332,3.397 3.083,3.615 0.909,4.994l-17.724,11.24c-4.723,2.995 -3.411,3.269 -6.604,-1.383l-5.329,-7.762Z" style="fill:none;stroke:#000;stroke-width:6px;stroke-linecap:round;stroke-linejoin:round;stroke-miterlimit:1.5;"/></g></g></g></g></g></g></g></g></g><g id="Semibold-L3" serif:id="Semibold-L"><g id="Medium-L3" serif:id="Medium-L"><g id="Regular-L3" serif:id="Regular-L"><g id="Light-L3" serif:id="Light-L"><g id="Thin-L3" serif:id="Thin-L"><g id="Ultralight-M3" serif:id="Ultralight-M"><g id="Ultralight-S3" serif:id="Ultralight-S"><g><path d="M1996.4,1585.48c-3.621,5.409 -7.574,9.188 -8.823,8.433l-8.924,-5.393c-1.249,-0.755 0.676,-5.758 4.297,-11.167l13.119,-19.6c5.742,-8.579 6.2,-9.776 6.2,-9.776l13.552,8.154l-6.302,9.749l-13.119,19.6Z" style="fill:none;stroke:#000;stroke-width:5px;stroke-linecap:round;stroke-linejoin:round;stroke-miterlimit:1.5;"/><path d="M2029.47,1547.91c1.45,-2.167 0.824,-5.015 -1.397,-6.357l-15.875,-9.593c-2.221,-1.342 -5.201,-0.673 -6.651,1.493l-5.255,7.85c-2.3,3.436 -3.055,3.666 -0.834,5.009l18.106,10.941c4.824,2.915 3.502,3.212 6.652,-1.493l5.254,-7.85Z" style="fill:none;stroke:#000;stroke-width:5px;stroke-linecap:round;stroke-linejoin:round;stroke-miterlimit:1.5;"/><path d="M2073.86,1466.93c9.992,-16.377 19.4,-29.232 19.315,-29.405l-3.475,-4.477l-5.45,-0.916c-0.086,-0.173 -9.102,12.62 -20.256,28.416l-20.608,27.886l-40.423,-56.302l-4.837,1.422l-3.992,3.971l40.192,64.519c0,0 -0.963,1.079 -9.809,14.579c-10.888,16.616 -13.188,14.711 -11.939,15.466c0,0 -0.06,0.099 14.44,8.861c2.712,1.639 -1.341,0.278 10.949,-16.2c5.824,-7.809 5.719,-7.964 5.719,-7.964l16.083,25.576l14.208,-9l-22.153,-32.184l22.036,-34.248Zm-25.114,57.82c-36.821,-57.938 -54.612,-87.225 -54.612,-87.225l3.992,-3.971l4.837,-1.422c0,0 30.068,40.983 48.867,69.069c10.054,15.023 18.671,27.281 21.247,30.926c0.51,0.723 0.913,1.283 0.913,1.283l-14.221,8.952c0,0 -3.237,-5.359 -11.023,-17.612Z" style="fill:none;stroke:#000;stroke-width:5px;stroke-linecap:round;stroke-linejoin:round;stroke-miterlimit:1.5;"/><path d="M2090.48,1587.41c3.582,5.409 7.492,9.187 8.727,8.433l8.829,-5.393c1.235,-0.755 -0.67,-5.759 -4.251,-11.168l-12.978,-19.6c-5.68,-8.578 -6.929,-10.279 -6.929,-10.279l-12.799,8.26c0,0 -1.355,-1.601 6.423,10.147l12.978,19.6Z" style="fill:none;stroke:#000;stroke-width:5px;stroke-linecap:round;stroke-linejoin:round;stroke-miterlimit:1.5;"/><path d="M2057.93,1549.09c-1.47,-2.142 -0.899,-5 1.276,-6.379l15.54,-9.855c2.174,-1.378 5.134,-0.759 6.604,1.383l5.329,7.762c2.332,3.397 3.083,3.615 0.909,4.994l-17.725,11.24c-4.723,2.995 -3.41,3.269 -6.604,-1.383l-5.329,-7.762Z" style="fill:none;stroke:#000;stroke-width:5px;stroke-linecap:round;stroke-linejoin:round;stroke-miterlimit:1.5;"/></g></g></g></g></g></g></g></g><g id="Medium-L4" serif:id="Medium-L"><g id="Regular-L4" serif:id="Regular-L"><g id="Light-L4" serif:id="Light-L"><g id="Thin-L4" serif:id="Thin-L"><g id="Ultralight-M4" serif:id="Ultralight-M"><g id="Ultralight-S4" serif:id="Ultralight-S"><g><path d="M1699.68,1585.48c-3.62,5.409 -7.574,9.188 -8.822,8.433l-8.925,-5.393c-1.249,-0.755 0.677,-5.758 4.297,-11.167l13.12,-19.6c5.742,-8.579 6.199,-9.776 6.199,-9.776l13.552,8.154l-6.301,9.749l-13.12,19.6Z" style="fill:none;stroke:#000;stroke-width:4px;stroke-linecap:round;stroke-linejoin:round;stroke-miterlimit:1.5;"/><path d="M1732.75,1547.91c1.45,-2.167 0.824,-5.015 -1.398,-6.357l-15.874,-9.593c-2.221,-1.342 -5.202,-0.673 -6.652,1.493l-5.255,7.85c-2.299,3.436 -3.055,3.666 -0.834,5.009l18.106,10.941c4.824,2.915 3.503,3.212 6.652,-1.493l5.255,-7.85Z" style="fill:none;stroke:#000;stroke-width:4px;stroke-linecap:round;stroke-linejoin:round;stroke-miterlimit:1.5;"/><path d="M1777.14,1466.93c9.991,-16.377 19.399,-29.232 19.314,-29.405l-3.475,-4.477l-5.45,-0.916c-0.085,-0.173 -9.101,12.62 -20.256,28.416l-20.608,27.886l-40.423,-56.302l-4.836,1.422l-3.992,3.971l40.191,64.519c0,0 -0.963,1.079 -9.809,14.579c-10.888,16.616 -13.187,14.711 -11.939,15.466c0,0 -0.06,0.099 14.44,8.861c2.713,1.639 -1.341,0.278 10.949,-16.2c5.824,-7.809 5.719,-7.964 5.719,-7.964l16.083,25.576l14.209,-9l-22.154,-32.184l22.037,-34.248Zm-25.115,57.82c-36.821,-57.938 -54.611,-87.225 -54.611,-87.225l3.992,-3.971l4.836,-1.422c0,0 30.069,40.983 48.867,69.069c10.054,15.023 18.671,27.281 21.247,30.926c0.511,0.723 0.914,1.283 0.914,1.283l-14.222,8.952c0,0 -3.236,-5.359 -11.023,-17.612Z" style="fill:none;stroke:#000;stroke-width:4px;stroke-linecap:round;stroke-linejoin:round;stroke-miterlimit:1.5;"/><path d="M1793.76,1587.41c3.581,5.409 7.492,9.187 8.727,8.433l8.828,-5.393c1.235,-0.755 -0.669,-5.759 -4.251,-11.168l-12.978,-19.6c-5.68,-8.578 -6.929,-10.279 -6.929,-10.279l-12.798,8.26c0,0 -1.356,-1.601 6.423,10.147l12.978,19.6Z" style="fill:none;stroke:#000;stroke-width:4px;stroke-linecap:round;stroke-linejoin:round;stroke-miterlimit:1.5;"/><path d="M1761.21,1549.09c-1.471,-2.142 -0.899,-5 1.275,-6.379l15.54,-9.855c2.175,-1.378 5.134,-0.759 6.604,1.383l5.329,7.762c2.332,3.397 3.083,3.615 0.909,4.994l-17.725,11.24c-4.722,2.995 -3.41,3.269 -6.604,-1.383l-5.328,-7.762Z" style="fill:none;stroke:#000;stroke-width:4px;stroke-linecap:round;stroke-linejoin:round;stroke-miterlimit:1.5;"/></g></g></g></g></g></g></g><g id="Regular-L5" serif:id="Regular-L"><g id="Light-L5" serif:id="Light-L"><g id="Thin-L5" serif:id="Thin-L"><g id="Ultralight-M5" serif:id="Ultralight-M"><g id="Ultralight-S5" serif:id="Ultralight-S"><g><path d="M1402.91,1585.48c-3.621,5.409 -7.574,9.188 -8.823,8.433l-8.924,-5.393c-1.249,-0.755 0.676,-5.758 4.297,-11.167l13.12,-19.6c5.742,-8.579 6.199,-9.776 6.199,-9.776l13.552,8.154l-6.302,9.749l-13.119,19.6Z" style="fill:none;stroke:#000;stroke-width:3px;stroke-linecap:round;stroke-linejoin:round;stroke-miterlimit:1.5;"/><path d="M1435.97,1547.91c1.45,-2.167 0.824,-5.015 -1.397,-6.357l-15.875,-9.593c-2.221,-1.342 -5.201,-0.673 -6.651,1.493l-5.255,7.85c-2.3,3.436 -3.055,3.666 -0.834,5.009l18.106,10.941c4.824,2.915 3.502,3.212 6.652,-1.493l5.254,-7.85Z" style="fill:none;stroke:#000;stroke-width:3px;stroke-linecap:round;stroke-linejoin:round;stroke-miterlimit:1.5;"/><path d="M1480.37,1466.93c9.991,-16.377 19.399,-29.232 19.314,-29.405l-3.475,-4.477l-5.45,-0.916c-0.086,-0.173 -9.102,12.62 -20.256,28.416l-20.608,27.886l-40.423,-56.302l-4.837,1.422l-3.992,3.971l40.192,64.519c0,0 -0.963,1.079 -9.809,14.579c-10.888,16.616 -13.188,14.711 -11.939,15.466c0,0 -0.06,0.099 14.44,8.861c2.712,1.639 -1.341,0.278 10.949,-16.2c5.824,-7.809 5.719,-7.964 5.719,-7.964l16.083,25.576l14.208,-9l-22.153,-32.184l22.037,-34.248Zm-25.115,57.82c-36.821,-57.938 -54.612,-87.225 -54.612,-87.225l3.992,-3.971l4.837,-1.422c0,0 30.068,40.983 48.867,69.069c10.054,15.023 18.671,27.281 21.247,30.926c0.51,0.723 0.913,1.283 0.913,1.283l-14.221,8.952c0,0 -3.236,-5.359 -11.023,-17.612Z" style="fill:none;stroke:#000;stroke-width:3px;stroke-linecap:round;stroke-linejoin:round;stroke-miterlimit:1.5;"/><path d="M1496.99,1587.41c3.582,5.409 7.492,9.187 8.728,8.433l8.828,-5.393c1.235,-0.755 -0.67,-5.759 -4.251,-11.168l-12.978,-19.6c-5.68,-8.578 -6.929,-10.279 -6.929,-10.279l-12.799,8.26c0,0 -1.355,-1.601 6.424,10.147l12.977,19.6Z" style="fill:none;stroke:#000;stroke-width:3px;stroke-linecap:round;stroke-linejoin:round;stroke-miterlimit:1.5;"/><path d="M1464.44,1549.09c-1.47,-2.142 -0.899,-5 1.276,-6.379l15.54,-9.855c2.175,-1.378 5.134,-0.759 6.604,1.383l5.329,7.762c2.332,3.397 3.083,3.615 0.909,4.994l-17.725,11.24c-4.723,2.995 -3.41,3.269 -6.604,-1.383l-5.329,-7.762Z" style="fill:none;stroke:#000;stroke-width:3px;stroke-linecap:round;stroke-linejoin:round;stroke-miterlimit:1.5;"/></g></g></g></g></g></g><g id="Light-L6" serif:id="Light-L"><g id="Thin-L6" serif:id="Thin-L"><g id="Ultralight-M6" serif:id="Ultralight-M"><g id="Ultralight-S6" serif:id="Ultralight-S"><g><path d="M1106.24,1585.48c-3.621,5.409 -7.574,9.188 -8.823,8.433l-8.924,-5.393c-1.249,-0.755 0.676,-5.758 4.297,-11.167l13.119,-19.6c5.742,-8.579 6.2,-9.776 6.2,-9.776l13.552,8.154l-6.302,9.749l-13.119,19.6Z" style="fill:none;stroke:#000;stroke-width:2px;stroke-linecap:round;stroke-linejoin:round;stroke-miterlimit:1.5;"/><path d="M1139.31,1547.91c1.45,-2.167 0.824,-5.015 -1.397,-6.357l-15.875,-9.593c-2.221,-1.342 -5.201,-0.673 -6.651,1.493l-5.255,7.85c-2.3,3.436 -3.055,3.666 -0.834,5.009l18.106,10.941c4.824,2.915 3.502,3.212 6.652,-1.493l5.254,-7.85Z" style="fill:none;stroke:#000;stroke-width:2px;stroke-linecap:round;stroke-linejoin:round;stroke-miterlimit:1.5;"/><path d="M1183.7,1466.93c9.992,-16.377 19.4,-29.232 19.315,-29.405l-3.475,-4.477l-5.45,-0.916c-0.086,-0.173 -9.102,12.62 -20.256,28.416l-20.608,27.886l-40.423,-56.302l-4.837,1.422l-3.992,3.971l40.192,64.519c0,0 -0.963,1.079 -9.809,14.579c-10.888,16.616 -13.188,14.711 -11.939,15.466c0,0 -0.06,0.099 14.44,8.861c2.712,1.639 -1.341,0.278 10.949,-16.2c5.824,-7.809 5.719,-7.964 5.719,-7.964l16.083,25.576l14.208,-9l-22.153,-32.184l22.036,-34.248Zm-25.114,57.82c-36.821,-57.938 -54.612,-87.225 -54.612,-87.225l3.992,-3.971l4.837,-1.422c0,0 30.068,40.983 48.867,69.069c10.054,15.023 18.671,27.281 21.247,30.926c0.51,0.723 0.913,1.283 0.913,1.283l-14.221,8.952c0,0 -3.237,-5.359 -11.023,-17.612Z" style="fill:none;stroke:#000;stroke-width:2px;stroke-linecap:round;stroke-linejoin:round;stroke-miterlimit:1.5;"/><path d="M1200.32,1587.41c3.582,5.409 7.492,9.187 8.727,8.433l8.829,-5.393c1.235,-0.755 -0.67,-5.759 -4.251,-11.168l-12.978,-19.6c-5.68,-8.578 -6.929,-10.279 -6.929,-10.279l-12.799,8.26c0,0 -1.355,-1.601 6.423,10.147l12.978,19.6Z" style="fill:none;stroke:#000;stroke-width:2px;stroke-linecap:round;stroke-linejoin:round;stroke-miterlimit:1.5;"/><path d="M1167.77,1549.09c-1.47,-2.142 -0.899,-5 1.276,-6.379l15.54,-9.855c2.174,-1.378 5.134,-0.759 6.604,1.383l5.329,7.762c2.332,3.397 3.083,3.615 0.909,4.994l-17.725,11.24c-4.723,2.995 -3.41,3.269 -6.604,-1.383l-5.329,-7.762Z" style="fill:none;stroke:#000;stroke-width:2px;stroke-linecap:round;stroke-linejoin:round;stroke-miterlimit:1.5;"/></g></g></g></g></g><g id="Thin-L7" serif:id="Thin-L"><g id="Ultralight-M7" serif:id="Ultralight-M"><g id="Ultralight-S7" serif:id="Ultralight-S"><g><path d="M809.482,1585.48c-3.62,5.409 -7.573,9.188 -8.822,8.433l-8.925,-5.393c-1.249,-0.755 0.677,-5.758 4.297,-11.167l13.12,-19.6c5.742,-8.579 6.199,-9.776 6.199,-9.776l13.552,8.154l-6.301,9.749l-13.12,19.6Z" style="fill:none;stroke:#000;stroke-width:1px;stroke-linecap:round;stroke-linejoin:round;stroke-miterlimit:1.5;"/><path d="M842.548,1547.91c1.45,-2.167 0.824,-5.015 -1.397,-6.357l-15.875,-9.593c-2.221,-1.342 -5.202,-0.673 -6.652,1.493l-5.254,7.85c-2.3,3.436 -3.056,3.666 -0.834,5.009l18.106,10.941c4.824,2.915 3.502,3.212 6.651,-1.493l5.255,-7.85Z" style="fill:none;stroke:#000;stroke-width:1px;stroke-linecap:round;stroke-linejoin:round;stroke-miterlimit:1.5;"/><path d="M886.94,1466.93c9.991,-16.377 19.399,-29.232 19.314,-29.405l-3.475,-4.477l-5.45,-0.916c-0.085,-0.173 -9.101,12.62 -20.256,28.416l-20.608,27.886l-40.423,-56.302l-4.836,1.422l-3.992,3.971l40.192,64.519c0,0 -0.964,1.079 -9.81,14.579c-10.888,16.616 -13.187,14.711 -11.938,15.466c0,0 -0.061,0.099 14.44,8.861c2.712,1.639 -1.342,0.278 10.948,-16.2c5.825,-7.809 5.719,-7.964 5.719,-7.964l16.083,25.576l14.209,-9l-22.153,-32.184l22.036,-34.248Zm-25.115,57.82c-36.82,-57.938 -54.611,-87.225 -54.611,-87.225l3.992,-3.971l4.836,-1.422c0,0 30.069,40.983 48.867,69.069c10.055,15.023 18.671,27.281 21.247,30.926c0.511,0.723 0.914,1.283 0.914,1.283l-14.222,8.952c0,0 -3.236,-5.359 -11.023,-17.612Z" style="fill:none;stroke:#000;stroke-width:1px;stroke-linecap:round;stroke-linejoin:round;stroke-miterlimit:1.5;"/><path d="M903.559,1587.41c3.581,5.409 7.492,9.187 8.727,8.433l8.829,-5.393c1.235,-0.755 -0.67,-5.759 -4.251,-11.168l-12.978,-19.6c-5.68,-8.578 -6.929,-10.279 -6.929,-10.279l-12.799,8.26c0,0 -1.356,-1.601 6.423,10.147l12.978,19.6Z" style="fill:none;stroke:#000;stroke-width:1px;stroke-linecap:round;stroke-linejoin:round;stroke-miterlimit:1.5;"/><path d="M871.012,1549.09c-1.47,-2.142 -0.899,-5 1.275,-6.379l15.541,-9.855c2.174,-1.378 5.133,-0.759 6.604,1.383l5.328,7.762c2.332,3.397 3.083,3.615 0.909,4.994l-17.724,11.24c-4.723,2.995 -3.411,3.269 -6.604,-1.383l-5.329,-7.762Z" style="fill:none;stroke:#000;stroke-width:1px;stroke-linecap:round;stroke-linejoin:round;stroke-miterlimit:1.5;"/></g></g></g></g><g id="Ultralight-L"><g id="Ultralight-M8" serif:id="Ultralight-M"><g id="Ultralight-S8" serif:id="Ultralight-S"><g><path d="M512.819,1585.48c-3.62,5.409 -7.573,9.188 -8.822,8.433l-8.925,-5.393c-1.249,-0.755 0.677,-5.758 4.297,-11.167l13.12,-19.6c5.742,-8.579 6.199,-9.776 6.199,-9.776l13.552,8.154l-6.301,9.749l-13.12,19.6Z" style="fill:none;stroke:#000;stroke-width:0.45px;stroke-linecap:round;stroke-linejoin:round;stroke-miterlimit:1.5;"/><path d="M545.885,1547.91c1.45,-2.167 0.824,-5.015 -1.397,-6.357l-15.875,-9.593c-2.221,-1.342 -5.202,-0.673 -6.652,1.493l-5.254,7.85c-2.3,3.436 -3.056,3.666 -0.835,5.009l18.107,10.941c4.824,2.915 3.502,3.212 6.651,-1.493l5.255,-7.85Z" style="fill:none;stroke:#000;stroke-width:0.45px;stroke-linecap:round;stroke-linejoin:round;stroke-miterlimit:1.5;"/><path d="M590.277,1466.93c9.991,-16.377 19.399,-29.232 19.314,-29.405l-3.475,-4.477l-5.45,-0.916c-0.085,-0.173 -9.101,12.62 -20.256,28.416l-20.608,27.886l-40.423,-56.302l-4.836,1.422l-3.992,3.971l40.191,64.519c0,0 -0.963,1.079 -9.809,14.579c-10.888,16.616 -13.187,14.711 -11.939,15.466c0,0 -0.06,0.099 14.441,8.861c2.712,1.639 -1.342,0.278 10.948,-16.2c5.824,-7.809 5.719,-7.964 5.719,-7.964l16.083,25.576l14.209,-9l-22.153,-32.184l22.036,-34.248Zm-25.115,57.82c-36.82,-57.938 -54.611,-87.225 -54.611,-87.225l3.992,-3.971l4.836,-1.422c0,0 30.069,40.983 48.867,69.069c10.055,15.023 18.671,27.281 21.247,30.926c0.511,0.723 0.914,1.283 0.914,1.283l-14.222,8.952c0,0 -3.236,-5.359 -11.023,-17.612Z" style="fill:none;stroke:#000;stroke-width:0.45px;stroke-linecap:round;stroke-linejoin:round;stroke-miterlimit:1.5;"/><path d="M606.896,1587.41c3.581,5.409 7.492,9.187 8.727,8.433l8.828,-5.393c1.236,-0.755 -0.669,-5.759 -4.25,-11.168l-12.978,-19.6c-5.68,-8.578 -6.929,-10.279 -6.929,-10.279l-12.799,8.26c0,0 -1.356,-1.601 6.423,10.147l12.978,19.6Z" style="fill:none;stroke:#000;stroke-width:0.45px;stroke-linecap:round;stroke-linejoin:round;stroke-miterlimit:1.5;"/><path d="M574.349,1549.09c-1.471,-2.142 -0.899,-5 1.275,-6.379l15.541,-9.855c2.174,-1.378 5.133,-0.759 6.604,1.383l5.328,7.762c2.332,3.397 3.083,3.615 0.909,4.994l-17.725,11.24c-4.722,2.995 -3.41,3.269 -6.603,-1.383l-5.329,-7.762Z" style="fill:none;stroke:#000;stroke-width:0.45px;stroke-linecap:round;stroke-linejoin:round;stroke-miterlimit:1.5;"/></g></g></g></g><g id="Black-M"><g id="Heavy-M"><g id="Bold-M"><g id="Medium-M"><g id="Regular-M"><g id="Light-M"><g id="Thin-M"><g id="Ultralight-M9" serif:id="Ultralight-M"><g id="Ultralight-S9" serif:id="Ultralight-S"><g><path d="M2894.99,1146.49c-2.962,4.426 -6.197,7.518 -7.219,6.901l-7.303,-4.413c-1.021,-0.618 0.554,-4.712 3.517,-9.138l10.735,-16.038c4.699,-7.02 5.073,-8 5.073,-8l11.089,6.672l-5.156,7.978l-10.736,16.038Z" style="fill:none;stroke:#000;stroke-width:8px;stroke-linecap:round;stroke-linejoin:round;stroke-miterlimit:1.5;"/><path d="M2922.04,1115.75c1.187,-1.772 0.674,-4.103 -1.143,-5.201l-12.99,-7.85c-1.818,-1.098 -4.256,-0.551 -5.443,1.222l-4.3,6.423c-1.881,2.812 -2.5,3 -0.682,4.099l14.815,8.953c3.948,2.385 2.866,2.628 5.443,-1.222l4.3,-6.424Z" style="fill:none;stroke:#000;stroke-width:8px;stroke-linecap:round;stroke-linejoin:round;stroke-miterlimit:1.5;"/><path d="M2958.37,1049.48c8.176,-13.401 15.874,-23.92 15.804,-24.062l-2.843,-3.663l-4.46,-0.75c-0.069,-0.141 -7.447,10.327 -16.575,23.252l-16.863,22.819l-33.077,-46.071l-3.957,1.164l-3.267,3.249l32.888,52.794c0,0 -0.788,0.884 -8.026,11.93c-8.91,13.596 -10.792,12.038 -9.77,12.655c0,0 -0.049,0.081 11.816,7.251c2.22,1.342 -1.097,0.228 8.959,-13.255c4.766,-6.39 4.68,-6.517 4.68,-6.517l13.16,20.927l11.627,-7.364l-18.128,-26.335l18.032,-28.024Zm-20.551,47.313c-30.129,-47.41 -44.687,-71.375 -44.687,-71.375l3.267,-3.249l3.957,-1.164c0,0 24.605,33.536 39.987,56.518c8.227,12.292 15.278,22.323 17.386,25.306c0.418,0.591 0.747,1.049 0.747,1.049l-11.637,7.325c0,0 -2.648,-4.385 -9.02,-14.41Z" style="fill:none;stroke:#000;stroke-width:8px;stroke-linecap:round;stroke-linejoin:round;stroke-miterlimit:1.5;"/><path d="M2971.97,1148.07c2.931,4.426 6.13,7.518 7.141,6.901l7.224,-4.413c1.011,-0.618 -0.548,-4.712 -3.478,-9.138l-10.62,-16.038c-4.647,-7.02 -5.67,-8.411 -5.67,-8.411l-10.472,6.758c0,0 -1.11,-1.31 5.255,8.303l10.62,16.038Z" style="fill:none;stroke:#000;stroke-width:8px;stroke-linecap:round;stroke-linejoin:round;stroke-miterlimit:1.5;"/><path d="M2945.33,1116.71c-1.204,-1.752 -0.736,-4.091 1.043,-5.219l12.717,-8.064c1.779,-1.129 4.2,-0.622 5.403,1.131l4.361,6.351c1.908,2.78 2.523,2.959 0.743,4.087l-14.503,9.197c-3.865,2.451 -2.791,2.676 -5.404,-1.131l-4.36,-6.352Z" style="fill:none;stroke:#000;stroke-width:8px;stroke-linecap:round;stroke-linejoin:round;stroke-miterlimit:1.5;"/></g></g></g></g></g></g></g></g></g></g><g id="Heavy-M1" serif:id="Heavy-M"><g id="Bold-M1" serif:id="Bold-M"><g id="Medium-M1" serif:id="Medium-M"><g id="Regular-M1" serif:id="Regular-M"><g id="Light-M1" serif:id="Light-M"><g id="Thin-M1" serif:id="Thin-M"><g id="Ultralight-M10" serif:id="Ultralight-M"><g id="Ultralight-S10" serif:id="Ultralight-S"><g><path d="M2598.48,1146.49c-2.963,4.426 -6.198,7.518 -7.219,6.901l-7.303,-4.413c-1.022,-0.618 0.554,-4.712 3.516,-9.138l10.735,-16.038c4.699,-7.02 5.073,-8 5.073,-8l11.089,6.672l-5.156,7.978l-10.735,16.038Z" style="fill:none;stroke:#000;stroke-width:7px;stroke-linecap:round;stroke-linejoin:round;stroke-miterlimit:1.5;"/><path d="M2625.53,1115.75c1.187,-1.772 0.675,-4.103 -1.143,-5.201l-12.99,-7.85c-1.817,-1.098 -4.256,-0.551 -5.443,1.222l-4.299,6.423c-1.882,2.812 -2.5,3 -0.683,4.099l14.816,8.953c3.947,2.385 2.866,2.628 5.443,-1.222l4.299,-6.424Z" style="fill:none;stroke:#000;stroke-width:7px;stroke-linecap:round;stroke-linejoin:round;stroke-miterlimit:1.5;"/><path d="M2661.86,1049.48c8.176,-13.401 15.875,-23.92 15.805,-24.062l-2.844,-3.663l-4.459,-0.75c-0.07,-0.141 -7.448,10.327 -16.575,23.252l-16.863,22.819l-33.077,-46.071l-3.958,1.164l-3.266,3.249l32.887,52.794c0,0 -0.788,0.884 -8.026,11.93c-8.91,13.596 -10.791,12.038 -9.769,12.655c0,0 -0.05,0.081 11.816,7.251c2.219,1.342 -1.098,0.228 8.959,-13.255c4.765,-6.39 4.679,-6.517 4.679,-6.517l13.161,20.927l11.626,-7.364l-18.127,-26.335l18.031,-28.024Zm-20.55,47.313c-30.13,-47.41 -44.687,-71.375 -44.687,-71.375l3.266,-3.249l3.958,-1.164c0,0 24.604,33.536 39.986,56.518c8.228,12.292 15.278,22.323 17.386,25.306c0.418,0.591 0.748,1.049 0.748,1.049l-11.637,7.325c0,0 -2.649,-4.385 -9.02,-14.41Z" style="fill:none;stroke:#000;stroke-width:7px;stroke-linecap:round;stroke-linejoin:round;stroke-miterlimit:1.5;"/><path d="M2675.46,1148.07c2.931,4.426 6.131,7.518 7.141,6.901l7.225,-4.413c1.01,-0.618 -0.548,-4.712 -3.479,-9.138l-10.619,-16.038c-4.648,-7.02 -5.67,-8.411 -5.67,-8.411l-10.473,6.758c0,0 -1.109,-1.31 5.256,8.303l10.619,16.038Z" style="fill:none;stroke:#000;stroke-width:7px;stroke-linecap:round;stroke-linejoin:round;stroke-miterlimit:1.5;"/><path d="M2648.83,1116.71c-1.203,-1.752 -0.736,-4.091 1.043,-5.219l12.717,-8.064c1.779,-1.129 4.2,-0.622 5.404,1.131l4.36,6.351c1.908,2.78 2.523,2.959 0.744,4.087l-14.504,9.197c-3.864,2.451 -2.79,2.676 -5.404,-1.131l-4.36,-6.352Z" style="fill:none;stroke:#000;stroke-width:7px;stroke-linecap:round;stroke-linejoin:round;stroke-miterlimit:1.5;"/></g></g></g></g></g></g></g></g></g><g id="Bold-M2" serif:id="Bold-M"><g id="Medium-M2" serif:id="Medium-M"><g id="Regular-M2" serif:id="Regular-M"><g id="Light-M2" serif:id="Light-M"><g id="Thin-M2" serif:id="Thin-M"><g id="Ultralight-M11" serif:id="Ultralight-M"><g id="Ultralight-S11" serif:id="Ultralight-S"><g><path d="M2301.72,1146.49c-2.963,4.426 -6.197,7.518 -7.219,6.901l-7.303,-4.413c-1.022,-0.618 0.554,-4.712 3.516,-9.138l10.736,-16.038c4.698,-7.02 5.073,-8 5.073,-8l11.089,6.672l-5.157,7.978l-10.735,16.038Z" style="fill:none;stroke:#000;stroke-width:6px;stroke-linecap:round;stroke-linejoin:round;stroke-miterlimit:1.5;"/><path d="M2328.77,1115.75c1.186,-1.772 0.674,-4.103 -1.144,-5.201l-12.99,-7.85c-1.817,-1.098 -4.256,-0.551 -5.442,1.222l-4.3,6.423c-1.882,2.812 -2.5,3 -0.683,4.099l14.816,8.953c3.948,2.385 2.866,2.628 5.443,-1.222l4.3,-6.424Z" style="fill:none;stroke:#000;stroke-width:6px;stroke-linecap:round;stroke-linejoin:round;stroke-miterlimit:1.5;"/><path d="M2365.1,1049.48c8.175,-13.401 15.874,-23.92 15.804,-24.062l-2.844,-3.663l-4.459,-0.75c-0.07,-0.141 -7.447,10.327 -16.575,23.252l-16.863,22.819l-33.077,-46.071l-3.958,1.164l-3.266,3.249l32.888,52.794c0,0 -0.788,0.884 -8.027,11.93c-8.909,13.596 -10.791,12.038 -9.769,12.655c0,0 -0.05,0.081 11.816,7.251c2.219,1.342 -1.098,0.228 8.959,-13.255c4.766,-6.39 4.679,-6.517 4.679,-6.517l13.161,20.927l11.626,-7.364l-18.127,-26.335l18.032,-28.024Zm-20.551,47.313c-30.129,-47.41 -44.687,-71.375 -44.687,-71.375l3.266,-3.249l3.958,-1.164c0,0 24.604,33.536 39.986,56.518c8.228,12.292 15.279,22.323 17.386,25.306c0.418,0.591 0.748,1.049 0.748,1.049l-11.637,7.325c0,0 -2.648,-4.385 -9.02,-14.41Z" style="fill:none;stroke:#000;stroke-width:6px;stroke-linecap:round;stroke-linejoin:round;stroke-miterlimit:1.5;"/><path d="M2378.7,1148.07c2.93,4.426 6.13,7.518 7.141,6.901l7.224,-4.413c1.011,-0.618 -0.548,-4.712 -3.479,-9.138l-10.619,-16.038c-4.648,-7.02 -5.67,-8.411 -5.67,-8.411l-10.473,6.758c0,0 -1.109,-1.31 5.256,8.303l10.62,16.038Z" style="fill:none;stroke:#000;stroke-width:6px;stroke-linecap:round;stroke-linejoin:round;stroke-miterlimit:1.5;"/><path d="M2352.06,1116.71c-1.203,-1.752 -0.735,-4.091 1.044,-5.219l12.716,-8.064c1.779,-1.129 4.201,-0.622 5.404,1.131l4.36,6.351c1.909,2.78 2.523,2.959 0.744,4.087l-14.504,9.197c-3.864,2.451 -2.79,2.676 -5.404,-1.131l-4.36,-6.352Z" style="fill:none;stroke:#000;stroke-width:6px;stroke-linecap:round;stroke-linejoin:round;stroke-miterlimit:1.5;"/></g></g></g></g></g></g></g></g><g id="Semibold-M"><g id="Medium-M3" serif:id="Medium-M"><g id="Regular-M3" serif:id="Regular-M"><g id="Light-M3" serif:id="Light-M"><g id="Thin-M3" serif:id="Thin-M"><g id="Ultralight-M12" serif:id="Ultralight-M"><g id="Ultralight-S12" serif:id="Ultralight-S"><g><path d="M2011.01,1146.49c-2.962,4.426 -6.197,7.518 -7.219,6.901l-7.303,-4.413c-1.022,-0.618 0.554,-4.712 3.517,-9.138l10.735,-16.038c4.699,-7.02 5.073,-8 5.073,-8l11.089,6.672l-5.156,7.978l-10.736,16.038Z" style="fill:none;stroke:#000;stroke-width:5px;stroke-linecap:round;stroke-linejoin:round;stroke-miterlimit:1.5;"/><path d="M2038.07,1115.75c1.186,-1.772 0.674,-4.103 -1.143,-5.201l-12.99,-7.85c-1.818,-1.098 -4.257,-0.551 -5.443,1.222l-4.3,6.423c-1.882,2.812 -2.5,3 -0.682,4.099l14.815,8.953c3.948,2.385 2.866,2.628 5.443,-1.222l4.3,-6.424Z" style="fill:none;stroke:#000;stroke-width:5px;stroke-linecap:round;stroke-linejoin:round;stroke-miterlimit:1.5;"/><path d="M2074.39,1049.48c8.176,-13.401 15.874,-23.92 15.804,-24.062l-2.843,-3.663l-4.46,-0.75c-0.07,-0.141 -7.447,10.327 -16.575,23.252l-16.863,22.819l-33.077,-46.071l-3.957,1.164l-3.267,3.249l32.888,52.794c0,0 -0.788,0.884 -8.027,11.93c-8.909,13.596 -10.791,12.038 -9.769,12.655c0,0 -0.049,0.081 11.816,7.251c2.219,1.342 -1.097,0.228 8.959,-13.255c4.766,-6.39 4.68,-6.517 4.68,-6.517l13.16,20.927l11.627,-7.364l-18.128,-26.335l18.032,-28.024Zm-20.551,47.313c-30.129,-47.41 -44.687,-71.375 -44.687,-71.375l3.267,-3.249l3.957,-1.164c0,0 24.605,33.536 39.987,56.518c8.227,12.292 15.278,22.323 17.386,25.306c0.417,0.591 0.747,1.049 0.747,1.049l-11.637,7.325c0,0 -2.648,-4.385 -9.02,-14.41Z" style="fill:none;stroke:#000;stroke-width:5px;stroke-linecap:round;stroke-linejoin:round;stroke-miterlimit:1.5;"/><path d="M2087.99,1148.07c2.93,4.426 6.13,7.518 7.141,6.901l7.224,-4.413c1.011,-0.618 -0.548,-4.712 -3.478,-9.138l-10.62,-16.038c-4.648,-7.02 -5.67,-8.411 -5.67,-8.411l-10.473,6.758c0,0 -1.109,-1.31 5.256,8.303l10.62,16.038Z" style="fill:none;stroke:#000;stroke-width:5px;stroke-linecap:round;stroke-linejoin:round;stroke-miterlimit:1.5;"/><path d="M2061.36,1116.71c-1.203,-1.752 -0.735,-4.091 1.044,-5.219l12.716,-8.064c1.78,-1.129 4.201,-0.622 5.404,1.131l4.36,6.351c1.909,2.78 2.523,2.959 0.744,4.087l-14.503,9.197c-3.865,2.451 -2.791,2.676 -5.404,-1.131l-4.361,-6.352Z" style="fill:none;stroke:#000;stroke-width:5px;stroke-linecap:round;stroke-linejoin:round;stroke-miterlimit:1.5;"/></g></g></g></g></g></g></g></g><g id="Medium-M4" serif:id="Medium-M"><g id="Regular-M4" serif:id="Regular-M"><g id="Light-M4" serif:id="Light-M"><g id="Thin-M4" serif:id="Thin-M"><g id="Ultralight-M13" serif:id="Ultralight-M"><g id="Ultralight-S13" serif:id="Ultralight-S"><g><path d="M1708.01,1146.49c-2.962,4.426 -6.197,7.518 -7.219,6.901l-7.303,-4.413c-1.022,-0.618 0.554,-4.712 3.517,-9.138l10.735,-16.038c4.699,-7.02 5.073,-8 5.073,-8l11.089,6.672l-5.156,7.978l-10.736,16.038Z" style="fill:none;stroke:#000;stroke-width:4px;stroke-linecap:round;stroke-linejoin:round;stroke-miterlimit:1.5;"/><path d="M1735.07,1115.75c1.186,-1.772 0.674,-4.103 -1.143,-5.201l-12.99,-7.85c-1.818,-1.098 -4.257,-0.551 -5.443,1.222l-4.3,6.423c-1.882,2.812 -2.5,3 -0.682,4.099l14.815,8.953c3.948,2.385 2.866,2.628 5.443,-1.222l4.3,-6.424Z" style="fill:none;stroke:#000;stroke-width:4px;stroke-linecap:round;stroke-linejoin:round;stroke-miterlimit:1.5;"/><path d="M1771.39,1049.48c8.176,-13.401 15.874,-23.92 15.804,-24.062l-2.843,-3.663l-4.46,-0.75c-0.07,-0.141 -7.447,10.327 -16.575,23.252l-16.863,22.819l-33.077,-46.071l-3.957,1.164l-3.267,3.249l32.888,52.794c0,0 -0.788,0.884 -8.027,11.93c-8.909,13.596 -10.791,12.038 -9.769,12.655c0,0 -0.049,0.081 11.816,7.251c2.219,1.342 -1.097,0.228 8.959,-13.255c4.766,-6.39 4.68,-6.517 4.68,-6.517l13.16,20.927l11.627,-7.364l-18.128,-26.335l18.032,-28.024Zm-20.551,47.313c-30.129,-47.41 -44.687,-71.375 -44.687,-71.375l3.267,-3.249l3.957,-1.164c0,0 24.605,33.536 39.987,56.518c8.227,12.292 15.278,22.323 17.386,25.306c0.417,0.591 0.747,1.049 0.747,1.049l-11.637,7.325c0,0 -2.648,-4.385 -9.02,-14.41Z" style="fill:none;stroke:#000;stroke-width:4px;stroke-linecap:round;stroke-linejoin:round;stroke-miterlimit:1.5;"/><path d="M1784.99,1148.07c2.93,4.426 6.13,7.518 7.141,6.901l7.224,-4.413c1.011,-0.618 -0.548,-4.712 -3.478,-9.138l-10.62,-16.038c-4.648,-7.02 -5.67,-8.411 -5.67,-8.411l-10.473,6.758c0,0 -1.109,-1.31 5.256,8.303l10.62,16.038Z" style="fill:none;stroke:#000;stroke-width:4px;stroke-linecap:round;stroke-linejoin:round;stroke-miterlimit:1.5;"/><path d="M1758.36,1116.71c-1.203,-1.752 -0.735,-4.091 1.044,-5.219l12.716,-8.064c1.78,-1.129 4.201,-0.622 5.404,1.131l4.36,6.351c1.909,2.78 2.523,2.959 0.744,4.087l-14.503,9.197c-3.865,2.451 -2.791,2.676 -5.404,-1.131l-4.361,-6.352Z" style="fill:none;stroke:#000;stroke-width:4px;stroke-linecap:round;stroke-linejoin:round;stroke-miterlimit:1.5;"/></g></g></g></g></g></g></g><g id="Regular-M5" serif:id="Regular-M"><g id="Light-M5" serif:id="Light-M"><g id="Thin-M5" serif:id="Thin-M"><g id="Ultralight-M14" serif:id="Ultralight-M"><g id="Ultralight-S14" serif:id="Ultralight-S"><g><path d="M1412.01,1146.48c-2.962,4.426 -6.197,7.518 -7.219,6.9l-7.303,-4.413c-1.022,-0.617 0.554,-4.712 3.517,-9.138l10.735,-16.038c4.699,-7.019 5.073,-7.999 5.073,-7.999l11.089,6.672l-5.156,7.978l-10.736,16.038Z" style="fill:none;stroke:#000;stroke-width:3px;stroke-linecap:round;stroke-linejoin:round;stroke-miterlimit:1.5;"/><path d="M1439.07,1115.75c1.186,-1.773 0.674,-4.104 -1.143,-5.202l-12.99,-7.85c-1.818,-1.098 -4.257,-0.55 -5.443,1.222l-4.3,6.424c-1.882,2.811 -2.5,3 -0.682,4.098l14.815,8.953c3.948,2.386 2.866,2.628 5.443,-1.222l4.3,-6.423Z" style="fill:none;stroke:#000;stroke-width:3px;stroke-linecap:round;stroke-linejoin:round;stroke-miterlimit:1.5;"/><path d="M1475.39,1049.48c8.176,-13.401 15.874,-23.92 15.804,-24.061l-2.843,-3.663l-4.46,-0.75c-0.07,-0.142 -7.447,10.327 -16.575,23.252l-16.863,22.818l-33.077,-46.07l-3.957,1.163l-3.267,3.25l32.888,52.794c0,0 -0.788,0.883 -8.027,11.93c-8.909,13.596 -10.791,12.037 -9.769,12.655c0,0 -0.049,0.081 11.816,7.251c2.219,1.341 -1.097,0.228 8.959,-13.256c4.766,-6.39 4.68,-6.517 4.68,-6.517l13.16,20.928l11.627,-7.365l-18.128,-26.334l18.032,-28.025Zm-20.551,47.313c-30.129,-47.41 -44.687,-71.374 -44.687,-71.374l3.267,-3.25l3.957,-1.163c0,0 24.605,33.535 39.987,56.518c8.227,12.292 15.278,22.323 17.386,25.305c0.417,0.592 0.747,1.05 0.747,1.05l-11.637,7.325c0,0 -2.648,-4.385 -9.02,-14.411Z" style="fill:none;stroke:#000;stroke-width:3px;stroke-linecap:round;stroke-linejoin:round;stroke-miterlimit:1.5;"/><path d="M1488.99,1148.07c2.93,4.426 6.13,7.518 7.141,6.9l7.224,-4.413c1.011,-0.617 -0.548,-4.712 -3.478,-9.138l-10.62,-16.038c-4.648,-7.019 -5.67,-8.411 -5.67,-8.411l-10.473,6.759c0,0 -1.109,-1.31 5.256,8.303l10.62,16.038Z" style="fill:none;stroke:#000;stroke-width:3px;stroke-linecap:round;stroke-linejoin:round;stroke-miterlimit:1.5;"/><path d="M1462.36,1116.71c-1.203,-1.753 -0.735,-4.092 1.044,-5.22l12.716,-8.064c1.78,-1.128 4.201,-0.621 5.404,1.132l4.36,6.351c1.909,2.78 2.523,2.958 0.744,4.087l-14.503,9.197c-3.865,2.45 -2.791,2.675 -5.404,-1.132l-4.361,-6.351Z" style="fill:none;stroke:#000;stroke-width:3px;stroke-linecap:round;stroke-linejoin:round;stroke-miterlimit:1.5;"/></g></g></g></g></g></g><g id="Light-M6" serif:id="Light-M"><g id="Thin-M6" serif:id="Thin-M"><g id="Ultralight-M15" serif:id="Ultralight-M"><g id="Ultralight-S15" serif:id="Ultralight-S"><g><path d="M1126.01,1146.48c-2.962,4.425 -6.197,7.517 -7.219,6.9l-7.303,-4.413c-1.022,-0.618 0.554,-4.712 3.517,-9.138l10.735,-16.038c4.699,-7.02 5.073,-7.999 5.073,-7.999l11.089,6.671l-5.156,7.978l-10.736,16.039Z" style="fill:none;stroke:#000;stroke-width:2px;stroke-linecap:round;stroke-linejoin:round;stroke-miterlimit:1.5;"/><path d="M1153.07,1115.74c1.186,-1.772 0.674,-4.103 -1.143,-5.201l-12.99,-7.85c-1.818,-1.098 -4.257,-0.551 -5.443,1.222l-4.3,6.423c-1.882,2.812 -2.5,3.001 -0.682,4.099l14.815,8.953c3.948,2.385 2.866,2.628 5.443,-1.222l4.3,-6.424Z" style="fill:none;stroke:#000;stroke-width:2px;stroke-linecap:round;stroke-linejoin:round;stroke-miterlimit:1.5;"/><path d="M1189.39,1049.48c8.176,-13.401 15.874,-23.92 15.804,-24.061l-2.843,-3.664l-4.46,-0.75c-0.07,-0.141 -7.447,10.327 -16.575,23.252l-16.863,22.819l-33.077,-46.071l-3.957,1.164l-3.267,3.25l32.888,52.793c0,0 -0.788,0.884 -8.027,11.93c-8.909,13.597 -10.791,12.038 -9.769,12.655c0,0 -0.049,0.082 11.816,7.252c2.219,1.341 -1.097,0.227 8.959,-13.256c4.766,-6.39 4.68,-6.517 4.68,-6.517l13.16,20.928l11.627,-7.365l-18.128,-26.335l18.032,-28.024Zm-20.551,47.313c-30.129,-47.41 -44.687,-71.374 -44.687,-71.374l3.267,-3.25l3.957,-1.164c0,0 24.605,33.536 39.987,56.518c8.227,12.293 15.278,22.323 17.386,25.306c0.417,0.591 0.747,1.05 0.747,1.05l-11.637,7.325c0,0 -2.648,-4.385 -9.02,-14.411Z" style="fill:none;stroke:#000;stroke-width:2px;stroke-linecap:round;stroke-linejoin:round;stroke-miterlimit:1.5;"/><path d="M1202.99,1148.07c2.93,4.426 6.13,7.517 7.141,6.9l7.224,-4.413c1.011,-0.618 -0.548,-4.712 -3.478,-9.138l-10.62,-16.038c-4.648,-7.02 -5.67,-8.411 -5.67,-8.411l-10.473,6.758c0,0 -1.109,-1.31 5.256,8.303l10.62,16.039Z" style="fill:none;stroke:#000;stroke-width:2px;stroke-linecap:round;stroke-linejoin:round;stroke-miterlimit:1.5;"/><path d="M1176.36,1116.71c-1.203,-1.753 -0.735,-4.092 1.044,-5.22l12.716,-8.064c1.78,-1.128 4.201,-0.621 5.404,1.131l4.36,6.352c1.909,2.779 2.523,2.958 0.744,4.086l-14.503,9.197c-3.865,2.451 -2.791,2.676 -5.404,-1.131l-4.361,-6.351Z" style="fill:none;stroke:#000;stroke-width:2px;stroke-linecap:round;stroke-linejoin:round;stroke-miterlimit:1.5;"/></g></g></g></g></g><g id="Thin-M7" serif:id="Thin-M"><g id="Ultralight-M16" serif:id="Ultralight-M"><g id="Ultralight-S16" serif:id="Ultralight-S"><g><path d="M818.012,1146.48c-2.962,4.425 -6.197,7.517 -7.219,6.9l-7.303,-4.413c-1.022,-0.618 0.554,-4.712 3.517,-9.138l10.735,-16.038c4.699,-7.02 5.073,-7.999 5.073,-7.999l11.089,6.671l-5.156,7.978l-10.736,16.039Z" style="fill:none;stroke:#000;stroke-width:1px;stroke-linecap:round;stroke-linejoin:round;stroke-miterlimit:1.5;"/><path d="M845.069,1115.74c1.186,-1.772 0.674,-4.103 -1.143,-5.201l-12.99,-7.85c-1.818,-1.098 -4.257,-0.551 -5.443,1.222l-4.3,6.423c-1.882,2.812 -2.5,3.001 -0.682,4.099l14.815,8.953c3.948,2.385 2.866,2.628 5.443,-1.222l4.3,-6.424Z" style="fill:none;stroke:#000;stroke-width:1px;stroke-linecap:round;stroke-linejoin:round;stroke-miterlimit:1.5;"/><path d="M881.394,1049.48c8.176,-13.401 15.874,-23.92 15.804,-24.061l-2.843,-3.664l-4.46,-0.75c-0.07,-0.141 -7.447,10.327 -16.575,23.252l-16.863,22.819l-33.077,-46.071l-3.957,1.164l-3.267,3.25l32.888,52.793c0,0 -0.788,0.884 -8.027,11.93c-8.909,13.597 -10.791,12.038 -9.769,12.655c0,0 -0.049,0.082 11.816,7.252c2.219,1.341 -1.097,0.227 8.959,-13.256c4.766,-6.39 4.68,-6.517 4.68,-6.517l13.16,20.928l11.627,-7.365l-18.128,-26.335l18.032,-28.024Zm-20.551,47.313c-30.129,-47.41 -44.687,-71.374 -44.687,-71.374l3.267,-3.25l3.957,-1.164c0,0 24.605,33.536 39.987,56.518c8.227,12.293 15.278,22.323 17.386,25.306c0.417,0.591 0.747,1.05 0.747,1.05l-11.637,7.325c0,0 -2.648,-4.385 -9.02,-14.411Z" style="fill:none;stroke:#000;stroke-width:1px;stroke-linecap:round;stroke-linejoin:round;stroke-miterlimit:1.5;"/><path d="M894.993,1148.07c2.93,4.426 6.13,7.517 7.141,6.9l7.224,-4.413c1.011,-0.618 -0.548,-4.712 -3.478,-9.138l-10.62,-16.038c-4.648,-7.02 -5.67,-8.411 -5.67,-8.411l-10.473,6.758c0,0 -1.109,-1.31 5.256,8.303l10.62,16.039Z" style="fill:none;stroke:#000;stroke-width:1px;stroke-linecap:round;stroke-linejoin:round;stroke-miterlimit:1.5;"/><path d="M868.36,1116.71c-1.203,-1.753 -0.735,-4.092 1.044,-5.22l12.716,-8.064c1.78,-1.128 4.201,-0.621 5.404,1.131l4.36,6.352c1.909,2.779 2.523,2.958 0.744,4.086l-14.503,9.197c-3.865,2.451 -2.791,2.676 -5.404,-1.131l-4.361,-6.351Z" style="fill:none;stroke:#000;stroke-width:1px;stroke-linecap:round;stroke-linejoin:round;stroke-miterlimit:1.5;"/></g></g></g></g><g id="Ultralight-M17" serif:id="Ultralight-M"><g id="Ultralight-S17" serif:id="Ultralight-S"><g><path d="M530.158,1146.48c-2.962,4.425 -6.197,7.517 -7.219,6.9l-7.303,-4.413c-1.021,-0.618 0.554,-4.712 3.517,-9.138l10.735,-16.038c4.699,-7.02 5.073,-7.999 5.073,-7.999l11.089,6.671l-5.156,7.978l-10.736,16.039Z" style="fill:none;stroke:#000;stroke-width:0.45px;stroke-linecap:round;stroke-linejoin:round;stroke-miterlimit:1.5;"/><path d="M557.215,1115.74c1.187,-1.772 0.674,-4.103 -1.143,-5.201l-12.99,-7.85c-1.818,-1.098 -4.256,-0.551 -5.443,1.222l-4.3,6.423c-1.881,2.812 -2.5,3.001 -0.682,4.099l14.816,8.953c3.947,2.385 2.865,2.628 5.442,-1.222l4.3,-6.424Z" style="fill:none;stroke:#000;stroke-width:0.45px;stroke-linecap:round;stroke-linejoin:round;stroke-miterlimit:1.5;"/><path d="M593.54,1049.48c8.176,-13.401 15.874,-23.92 15.804,-24.061l-2.843,-3.664l-4.46,-0.75c-0.069,-0.141 -7.447,10.327 -16.574,23.252l-16.864,22.819l-33.077,-46.071l-3.957,1.164l-3.267,3.25l32.888,52.793c0,0 -0.788,0.884 -8.026,11.93c-8.91,13.597 -10.792,12.038 -9.77,12.655c0,0 -0.049,0.082 11.816,7.252c2.22,1.341 -1.097,0.227 8.959,-13.256c4.766,-6.39 4.68,-6.517 4.68,-6.517l13.16,20.928l11.627,-7.365l-18.128,-26.335l18.032,-28.024Zm-20.55,47.313c-30.13,-47.41 -44.688,-71.374 -44.688,-71.374l3.267,-3.25l3.957,-1.164c0,0 24.605,33.536 39.987,56.518c8.227,12.293 15.278,22.323 17.386,25.306c0.418,0.591 0.747,1.05 0.747,1.05l-11.637,7.325c0,0 -2.648,-4.385 -9.019,-14.411Z" style="fill:none;stroke:#000;stroke-width:0.45px;stroke-linecap:round;stroke-linejoin:round;stroke-miterlimit:1.5;"/><path d="M607.139,1148.07c2.931,4.426 6.13,7.517 7.141,6.9l7.224,-4.413c1.011,-0.618 -0.548,-4.712 -3.478,-9.138l-10.62,-16.038c-4.647,-7.02 -5.669,-8.411 -5.669,-8.411l-10.473,6.758c0,0 -1.109,-1.31 5.256,8.303l10.619,16.039Z" style="fill:none;stroke:#000;stroke-width:0.45px;stroke-linecap:round;stroke-linejoin:round;stroke-miterlimit:1.5;"/><path d="M580.507,1116.71c-1.204,-1.753 -0.736,-4.092 1.043,-5.22l12.717,-8.064c1.779,-1.128 4.2,-0.621 5.403,1.131l4.361,6.352c1.908,2.779 2.523,2.958 0.743,4.086l-14.503,9.197c-3.865,2.451 -2.791,2.676 -5.404,-1.131l-4.36,-6.351Z" style="fill:none;stroke:#000;stroke-width:0.45px;stroke-linecap:round;stroke-linejoin:round;stroke-miterlimit:1.5;"/></g></g></g><g id="Black-S"><g id="Heavy-S"><g id="Semibold-S"><g id="Regular-S"><g id="Thin-S"><g><path d="M2903.15,709.779c-2.349,3.509 -4.913,5.96 -5.723,5.471l-5.789,-3.499c-0.81,-0.489 0.439,-3.735 2.787,-7.244l8.511,-12.714c3.724,-5.564 4.021,-6.341 4.021,-6.341l8.79,5.289l-4.087,6.325l-8.51,12.713Z" style="fill:none;stroke:#000;stroke-width:8px;stroke-linecap:round;stroke-linejoin:round;stroke-miterlimit:1.5;"/><path d="M2924.6,685.412c0.941,-1.405 0.535,-3.253 -0.906,-4.124l-10.298,-6.222c-1.44,-0.871 -3.374,-0.437 -4.314,0.968l-3.409,5.092c-1.491,2.229 -1.981,2.379 -0.541,3.249l11.745,7.097c3.129,1.891 2.272,2.084 4.315,-0.968l3.408,-5.092Z" style="fill:none;stroke:#000;stroke-width:8px;stroke-linecap:round;stroke-linejoin:round;stroke-miterlimit:1.5;"/><path d="M2953.39,632.88c6.481,-10.623 12.584,-18.962 12.528,-19.074l-2.254,-2.904l-3.535,-0.594c-0.055,-0.112 -5.904,8.186 -13.139,18.432l-13.368,18.089l-26.221,-36.521l-3.137,0.922l-2.59,2.576l26.071,41.851c0,0 -0.624,0.7 -6.363,9.457c-7.062,10.778 -8.554,9.543 -7.744,10.032c0,0 -0.039,0.064 9.367,5.748c1.759,1.063 -0.87,0.181 7.102,-10.508c3.778,-5.065 3.71,-5.166 3.71,-5.166l10.432,16.59l9.217,-5.838l-14.37,-20.876l14.294,-22.216Zm-16.291,37.506c-23.884,-37.583 -35.425,-56.58 -35.425,-56.58l2.59,-2.576l3.137,-0.922c0,0 19.505,26.584 31.698,44.803c6.522,9.744 12.112,17.696 13.782,20.06c0.332,0.469 0.593,0.832 0.593,0.832l-9.225,5.807c0,0 -2.099,-3.476 -7.15,-11.424Z" style="fill:none;stroke:#000;stroke-width:8px;stroke-linecap:round;stroke-linejoin:round;stroke-miterlimit:1.5;"/><path d="M2964.17,711.034c2.323,3.509 4.86,5.96 5.661,5.471l5.727,-3.499c0.801,-0.489 -0.435,-3.735 -2.758,-7.244l-8.418,-12.714c-3.684,-5.564 -4.495,-6.667 -4.495,-6.667l-8.302,5.358c0,0 -0.879,-1.039 4.167,6.581l8.418,12.714Z" style="fill:none;stroke:#000;stroke-width:8px;stroke-linecap:round;stroke-linejoin:round;stroke-miterlimit:1.5;"/><path d="M2943.06,686.178c-0.954,-1.39 -0.583,-3.244 0.827,-4.138l10.081,-6.393c1.41,-0.894 3.33,-0.492 4.283,0.897l3.457,5.035c1.513,2.204 2,2.345 0.59,3.24l-11.498,7.291c-3.063,1.942 -2.212,2.12 -4.284,-0.897l-3.456,-5.035Z" style="fill:none;stroke:#000;stroke-width:8px;stroke-linecap:round;stroke-linejoin:round;stroke-miterlimit:1.5;"/></g></g></g></g></g></g><g id="Heavy-S1" serif:id="Heavy-S"><g id="Semibold-S1" serif:id="Semibold-S"><g id="Regular-S1" serif:id="Regular-S"><g id="Thin-S1" serif:id="Thin-S"><g><path d="M2606.24,709.779c-2.348,3.509 -4.913,5.96 -5.723,5.471l-5.789,-3.499c-0.81,-0.489 0.439,-3.735 2.788,-7.244l8.51,-12.714c3.725,-5.564 4.021,-6.341 4.021,-6.341l8.791,5.289l-4.088,6.325l-8.51,12.713Z" style="fill:none;stroke:#000;stroke-width:6.5px;stroke-linecap:round;stroke-linejoin:round;stroke-miterlimit:1.5;"/><path d="M2627.69,685.412c0.94,-1.405 0.534,-3.253 -0.907,-4.124l-10.297,-6.222c-1.441,-0.871 -3.374,-0.437 -4.315,0.968l-3.408,5.092c-1.492,2.229 -1.982,2.379 -0.541,3.249l11.744,7.097c3.13,1.891 2.272,2.084 4.315,-0.968l3.409,-5.092Z" style="fill:none;stroke:#000;stroke-width:6.5px;stroke-linecap:round;stroke-linejoin:round;stroke-miterlimit:1.5;"/><path d="M2656.49,632.88c6.481,-10.623 12.584,-18.962 12.529,-19.074l-2.254,-2.904l-3.536,-0.594c-0.055,-0.112 -5.903,8.186 -13.139,18.432l-13.368,18.089l-26.221,-36.521l-3.137,0.922l-2.589,2.576l26.071,41.851c0,0 -0.625,0.7 -6.363,9.457c-7.063,10.778 -8.554,9.543 -7.744,10.032c0,0 -0.04,0.064 9.366,5.748c1.76,1.063 -0.87,0.181 7.102,-10.508c3.778,-5.065 3.71,-5.166 3.71,-5.166l10.433,16.59l9.216,-5.838l-14.37,-20.876l14.294,-22.216Zm-16.291,37.506c-23.884,-37.583 -35.424,-56.58 -35.424,-56.58l2.589,-2.576l3.137,-0.922c0,0 19.505,26.584 31.699,44.803c6.522,9.744 12.111,17.696 13.782,20.06c0.331,0.469 0.593,0.832 0.593,0.832l-9.225,5.807c0,0 -2.1,-3.476 -7.151,-11.424Z" style="fill:none;stroke:#000;stroke-width:6.5px;stroke-linecap:round;stroke-linejoin:round;stroke-miterlimit:1.5;"/><path d="M2667.27,711.034c2.323,3.509 4.859,5.96 5.66,5.471l5.727,-3.499c0.801,-0.489 -0.434,-3.735 -2.757,-7.244l-8.419,-12.714c-3.684,-5.564 -4.494,-6.667 -4.494,-6.667l-8.302,5.358c0,0 -0.88,-1.039 4.166,6.581l8.419,12.714Z" style="fill:none;stroke:#000;stroke-width:6.5px;stroke-linecap:round;stroke-linejoin:round;stroke-miterlimit:1.5;"/><path d="M2646.15,686.178c-0.953,-1.39 -0.583,-3.244 0.828,-4.138l10.08,-6.393c1.411,-0.894 3.33,-0.492 4.284,0.897l3.456,5.035c1.513,2.204 2,2.345 0.59,3.24l-11.497,7.291c-3.064,1.942 -2.212,2.12 -4.284,-0.897l-3.457,-5.035Z" style="fill:none;stroke:#000;stroke-width:6.5px;stroke-linecap:round;stroke-linejoin:round;stroke-miterlimit:1.5;"/></g></g></g></g></g><g id="Bold-S"><g id="Semibold-S2" serif:id="Semibold-S"><g id="Regular-S2" serif:id="Regular-S"><g id="Thin-S2" serif:id="Thin-S"><g><path d="M2316.1,709.787c-2.348,3.508 -4.912,5.959 -5.722,5.47l-5.789,-3.498c-0.81,-0.49 0.439,-3.736 2.787,-7.244l8.51,-12.714c3.725,-5.565 4.022,-6.341 4.022,-6.341l8.79,5.289l-4.087,6.324l-8.511,12.714Z" style="fill:none;stroke:#000;stroke-width:6px;stroke-linecap:round;stroke-linejoin:round;stroke-miterlimit:1.5;"/><path d="M2337.55,685.419c0.941,-1.405 0.534,-3.253 -0.906,-4.123l-10.298,-6.223c-1.441,-0.871 -3.374,-0.437 -4.314,0.969l-3.409,5.092c-1.492,2.228 -1.982,2.378 -0.541,3.249l11.745,7.097c3.129,1.891 2.272,2.083 4.314,-0.969l3.409,-5.092Z" style="fill:none;stroke:#000;stroke-width:6px;stroke-linecap:round;stroke-linejoin:round;stroke-miterlimit:1.5;"/><path d="M2366.34,632.887c6.481,-10.623 12.583,-18.961 12.528,-19.074l-2.254,-2.904l-3.535,-0.594c-0.056,-0.112 -5.904,8.186 -13.14,18.432l-13.367,18.089l-26.221,-36.521l-3.138,0.922l-2.589,2.576l26.071,41.851c0,0 -0.625,0.701 -6.363,9.457c-7.063,10.779 -8.554,9.543 -7.744,10.032c0,0 -0.039,0.065 9.367,5.749c1.759,1.063 -0.87,0.18 7.102,-10.509c3.778,-5.065 3.709,-5.166 3.709,-5.166l10.433,16.59l9.216,-5.838l-14.37,-20.876l14.295,-22.216Zm-16.291,37.506c-23.885,-37.582 -35.425,-56.58 -35.425,-56.58l2.589,-2.576l3.138,-0.922c0,0 19.504,26.585 31.698,44.803c6.522,9.744 12.111,17.696 13.782,20.06c0.331,0.469 0.593,0.832 0.593,0.832l-9.225,5.807c0,0 -2.099,-3.476 -7.15,-11.424Z" style="fill:none;stroke:#000;stroke-width:6px;stroke-linecap:round;stroke-linejoin:round;stroke-miterlimit:1.5;"/><path d="M2377.12,711.042c2.323,3.508 4.859,5.959 5.661,5.47l5.726,-3.499c0.802,-0.489 -0.434,-3.735 -2.757,-7.243l-8.418,-12.714c-3.685,-5.565 -4.495,-6.668 -4.495,-6.668l-8.302,5.358c0,0 -0.879,-1.038 4.166,6.582l8.419,12.714Z" style="fill:none;stroke:#000;stroke-width:6px;stroke-linecap:round;stroke-linejoin:round;stroke-miterlimit:1.5;"/><path d="M2356.01,686.185c-0.954,-1.389 -0.583,-3.243 0.827,-4.138l10.08,-6.392c1.411,-0.895 3.33,-0.493 4.284,0.897l3.457,5.035c1.512,2.203 2,2.345 0.589,3.239l-11.497,7.291c-3.063,1.943 -2.212,2.121 -4.284,-0.897l-3.456,-5.035Z" style="fill:none;stroke:#000;stroke-width:6px;stroke-linecap:round;stroke-linejoin:round;stroke-miterlimit:1.5;"/></g></g></g></g></g><g id="Semibold-S3" serif:id="Semibold-S"><g id="Regular-S3" serif:id="Regular-S"><g id="Thin-S3" serif:id="Thin-S"><g><path d="M2018.3,709.787c-2.349,3.508 -4.913,5.959 -5.723,5.47l-5.789,-3.498c-0.81,-0.49 0.439,-3.736 2.787,-7.244l8.51,-12.714c3.725,-5.565 4.022,-6.341 4.022,-6.341l8.79,5.289l-4.087,6.324l-8.51,12.714Z" style="fill:none;stroke:#000;stroke-width:5px;stroke-linecap:round;stroke-linejoin:round;stroke-miterlimit:1.5;"/><path d="M2039.75,685.419c0.941,-1.405 0.534,-3.253 -0.906,-4.123l-10.298,-6.223c-1.44,-0.871 -3.374,-0.437 -4.314,0.969l-3.409,5.092c-1.492,2.228 -1.982,2.378 -0.541,3.249l11.745,7.097c3.129,1.891 2.272,2.083 4.315,-0.969l3.408,-5.092Z" style="fill:none;stroke:#000;stroke-width:5px;stroke-linecap:round;stroke-linejoin:round;stroke-miterlimit:1.5;"/><path d="M2068.54,632.887c6.481,-10.623 12.583,-18.961 12.528,-19.074l-2.254,-2.904l-3.535,-0.594c-0.056,-0.112 -5.904,8.186 -13.139,18.432l-13.368,18.089l-26.221,-36.521l-3.137,0.922l-2.59,2.576l26.071,41.851c0,0 -0.625,0.701 -6.363,9.457c-7.063,10.779 -8.554,9.543 -7.744,10.032c0,0 -0.039,0.065 9.367,5.749c1.759,1.063 -0.87,0.18 7.102,-10.509c3.778,-5.065 3.709,-5.166 3.709,-5.166l10.433,16.59l9.217,-5.838l-14.371,-20.876l14.295,-22.216Zm-16.291,37.506c-23.885,-37.582 -35.425,-56.58 -35.425,-56.58l2.59,-2.576l3.137,-0.922c0,0 19.504,26.585 31.698,44.803c6.522,9.744 12.111,17.696 13.782,20.06c0.331,0.469 0.593,0.832 0.593,0.832l-9.225,5.807c0,0 -2.099,-3.476 -7.15,-11.424Z" style="fill:none;stroke:#000;stroke-width:5px;stroke-linecap:round;stroke-linejoin:round;stroke-miterlimit:1.5;"/><path d="M2079.32,711.042c2.323,3.508 4.86,5.959 5.661,5.47l5.727,-3.499c0.801,-0.489 -0.435,-3.735 -2.758,-7.243l-8.418,-12.714c-3.685,-5.565 -4.495,-6.668 -4.495,-6.668l-8.302,5.358c0,0 -0.879,-1.038 4.167,6.582l8.418,12.714Z" style="fill:none;stroke:#000;stroke-width:5px;stroke-linecap:round;stroke-linejoin:round;stroke-miterlimit:1.5;"/><path d="M2058.21,686.185c-0.954,-1.389 -0.583,-3.243 0.827,-4.138l10.081,-6.392c1.41,-0.895 3.329,-0.493 4.283,0.897l3.457,5.035c1.513,2.203 2,2.345 0.589,3.239l-11.497,7.291c-3.063,1.943 -2.212,2.121 -4.284,-0.897l-3.456,-5.035Z" style="fill:none;stroke:#000;stroke-width:5px;stroke-linecap:round;stroke-linejoin:round;stroke-miterlimit:1.5;"/></g></g></g></g><g id="Medium-S"><g id="Regular-S4" serif:id="Regular-S"><g id="Thin-S4" serif:id="Thin-S"><g><path d="M1710.1,709.786c-2.348,3.508 -4.912,5.959 -5.722,5.47l-5.789,-3.499c-0.81,-0.489 0.439,-3.735 2.787,-7.243l8.51,-12.714c3.725,-5.565 4.022,-6.341 4.022,-6.341l8.79,5.289l-4.087,6.324l-8.511,12.714Z" style="fill:none;stroke:#000;stroke-width:4px;stroke-linecap:round;stroke-linejoin:round;stroke-miterlimit:1.5;"/><path d="M1731.55,685.418c0.941,-1.405 0.534,-3.253 -0.906,-4.123l-10.298,-6.223c-1.441,-0.871 -3.374,-0.437 -4.314,0.969l-3.409,5.092c-1.492,2.228 -1.982,2.378 -0.541,3.249l11.745,7.097c3.129,1.891 2.272,2.083 4.314,-0.969l3.409,-5.092Z" style="fill:none;stroke:#000;stroke-width:4px;stroke-linecap:round;stroke-linejoin:round;stroke-miterlimit:1.5;"/><path d="M1760.34,632.886c6.481,-10.623 12.583,-18.962 12.528,-19.074l-2.254,-2.904l-3.535,-0.594c-0.056,-0.112 -5.904,8.186 -13.14,18.432l-13.367,18.089l-26.221,-36.521l-3.138,0.922l-2.589,2.576l26.071,41.851c0,0 -0.625,0.701 -6.363,9.457c-7.063,10.778 -8.554,9.543 -7.744,10.032c0,0 -0.039,0.065 9.367,5.749c1.759,1.063 -0.87,0.18 7.102,-10.509c3.778,-5.065 3.709,-5.166 3.709,-5.166l10.433,16.59l9.216,-5.838l-14.37,-20.876l14.295,-22.216Zm-16.291,37.506c-23.885,-37.583 -35.425,-56.58 -35.425,-56.58l2.589,-2.576l3.138,-0.922c0,0 19.504,26.584 31.698,44.803c6.522,9.744 12.111,17.696 13.782,20.06c0.331,0.469 0.593,0.832 0.593,0.832l-9.225,5.807c0,0 -2.099,-3.476 -7.15,-11.424Z" style="fill:none;stroke:#000;stroke-width:4px;stroke-linecap:round;stroke-linejoin:round;stroke-miterlimit:1.5;"/><path d="M1771.12,711.041c2.323,3.508 4.859,5.959 5.661,5.47l5.726,-3.499c0.802,-0.489 -0.434,-3.735 -2.757,-7.243l-8.418,-12.714c-3.685,-5.565 -4.495,-6.668 -4.495,-6.668l-8.302,5.358c0,0 -0.879,-1.039 4.166,6.582l8.419,12.714Z" style="fill:none;stroke:#000;stroke-width:4px;stroke-linecap:round;stroke-linejoin:round;stroke-miterlimit:1.5;"/><path d="M1750.01,686.184c-0.954,-1.389 -0.583,-3.244 0.827,-4.138l10.08,-6.392c1.411,-0.895 3.33,-0.493 4.284,0.897l3.457,5.034c1.512,2.204 2,2.346 0.589,3.24l-11.497,7.291c-3.063,1.942 -2.212,2.121 -4.284,-0.897l-3.456,-5.035Z" style="fill:none;stroke:#000;stroke-width:4px;stroke-linecap:round;stroke-linejoin:round;stroke-miterlimit:1.5;"/></g></g></g></g><g id="Regular-S5" serif:id="Regular-S"><g><path d="M1428.1,709.786c-2.348,3.508 -4.912,5.959 -5.722,5.47l-5.789,-3.499c-0.81,-0.489 0.439,-3.735 2.787,-7.243l8.51,-12.714c3.725,-5.565 4.022,-6.341 4.022,-6.341l8.79,5.289l-4.087,6.324l-8.511,12.714Z" style="fill:none;stroke:#000;stroke-width:3px;stroke-linecap:round;stroke-linejoin:round;stroke-miterlimit:1.5;"/><path d="M1449.55,685.418c0.941,-1.405 0.534,-3.253 -0.906,-4.123l-10.298,-6.223c-1.441,-0.871 -3.374,-0.437 -4.314,0.969l-3.409,5.092c-1.492,2.228 -1.982,2.378 -0.541,3.249l11.745,7.097c3.129,1.891 2.272,2.083 4.314,-0.969l3.409,-5.092Z" style="fill:none;stroke:#000;stroke-width:3px;stroke-linecap:round;stroke-linejoin:round;stroke-miterlimit:1.5;"/><path d="M1478.34,632.886c6.481,-10.623 12.583,-18.962 12.528,-19.074l-2.254,-2.904l-3.535,-0.594c-0.056,-0.112 -5.904,8.186 -13.14,18.432l-13.367,18.089l-26.221,-36.521l-3.138,0.922l-2.589,2.576l26.071,41.851c0,0 -0.625,0.701 -6.363,9.457c-7.063,10.778 -8.554,9.543 -7.744,10.032c0,0 -0.039,0.065 9.367,5.749c1.759,1.063 -0.87,0.18 7.102,-10.509c3.778,-5.065 3.709,-5.166 3.709,-5.166l10.433,16.59l9.216,-5.838l-14.37,-20.876l14.295,-22.216Zm-16.291,37.506c-23.885,-37.583 -35.425,-56.58 -35.425,-56.58l2.589,-2.576l3.138,-0.922c0,0 19.504,26.584 31.698,44.803c6.522,9.744 12.111,17.696 13.782,20.06c0.331,0.469 0.593,0.832 0.593,0.832l-9.225,5.807c0,0 -2.099,-3.476 -7.15,-11.424Z" style="fill:none;stroke:#000;stroke-width:3px;stroke-linecap:round;stroke-linejoin:round;stroke-miterlimit:1.5;"/><path d="M1489.12,711.041c2.323,3.508 4.859,5.959 5.661,5.47l5.726,-3.499c0.802,-0.489 -0.434,-3.735 -2.757,-7.243l-8.418,-12.714c-3.685,-5.565 -4.495,-6.668 -4.495,-6.668l-8.302,5.358c0,0 -0.879,-1.039 4.166,6.582l8.419,12.714Z" style="fill:none;stroke:#000;stroke-width:3px;stroke-linecap:round;stroke-linejoin:round;stroke-miterlimit:1.5;"/><path d="M1468.01,686.184c-0.954,-1.389 -0.583,-3.244 0.827,-4.138l10.08,-6.392c1.411,-0.895 3.33,-0.493 4.284,0.897l3.457,5.034c1.512,2.204 2,2.346 0.589,3.24l-11.497,7.291c-3.063,1.942 -2.212,2.121 -4.284,-0.897l-3.456,-5.035Z" style="fill:none;stroke:#000;stroke-width:3px;stroke-linecap:round;stroke-linejoin:round;stroke-miterlimit:1.5;"/></g></g><g id="Light-S"><g><path d="M1133.1,709.786c-2.348,3.508 -4.912,5.959 -5.722,5.47l-5.789,-3.499c-0.81,-0.489 0.439,-3.735 2.787,-7.243l8.51,-12.714c3.725,-5.565 4.022,-6.341 4.022,-6.341l8.79,5.289l-4.087,6.324l-8.511,12.714Z" style="fill:none;stroke:#000;stroke-width:2px;stroke-linecap:round;stroke-linejoin:round;stroke-miterlimit:1.5;"/><path d="M1154.55,685.418c0.941,-1.405 0.534,-3.253 -0.906,-4.123l-10.298,-6.223c-1.441,-0.871 -3.374,-0.437 -4.314,0.969l-3.409,5.092c-1.492,2.228 -1.982,2.378 -0.541,3.249l11.745,7.097c3.129,1.891 2.272,2.083 4.314,-0.969l3.409,-5.092Z" style="fill:none;stroke:#000;stroke-width:2px;stroke-linecap:round;stroke-linejoin:round;stroke-miterlimit:1.5;"/><path d="M1183.34,632.886c6.481,-10.623 12.583,-18.962 12.528,-19.074l-2.254,-2.904l-3.535,-0.594c-0.056,-0.112 -5.904,8.186 -13.14,18.432l-13.367,18.089l-26.221,-36.521l-3.138,0.922l-2.589,2.576l26.071,41.851c0,0 -0.625,0.701 -6.363,9.457c-7.063,10.778 -8.554,9.543 -7.744,10.032c0,0 -0.039,0.065 9.367,5.749c1.759,1.063 -0.87,0.18 7.102,-10.509c3.778,-5.065 3.709,-5.166 3.709,-5.166l10.433,16.59l9.216,-5.838l-14.37,-20.876l14.295,-22.216Zm-16.291,37.506c-23.885,-37.583 -35.425,-56.58 -35.425,-56.58l2.589,-2.576l3.138,-0.922c0,0 19.504,26.584 31.698,44.803c6.522,9.744 12.111,17.696 13.782,20.06c0.331,0.469 0.593,0.832 0.593,0.832l-9.225,5.807c0,0 -2.099,-3.476 -7.15,-11.424Z" style="fill:none;stroke:#000;stroke-width:2px;stroke-linecap:round;stroke-linejoin:round;stroke-miterlimit:1.5;"/><path d="M1194.12,711.041c2.323,3.508 4.859,5.959 5.661,5.47l5.726,-3.499c0.802,-0.489 -0.434,-3.735 -2.757,-7.243l-8.418,-12.714c-3.685,-5.565 -4.495,-6.668 -4.495,-6.668l-8.302,5.358c0,0 -0.879,-1.039 4.166,6.582l8.419,12.714Z" style="fill:none;stroke:#000;stroke-width:2px;stroke-linecap:round;stroke-linejoin:round;stroke-miterlimit:1.5;"/><path d="M1173.01,686.184c-0.954,-1.389 -0.583,-3.244 0.827,-4.138l10.08,-6.392c1.411,-0.895 3.33,-0.493 4.284,0.897l3.457,5.034c1.512,2.204 2,2.346 0.589,3.24l-11.497,7.291c-3.063,1.942 -2.212,2.121 -4.284,-0.897l-3.456,-5.035Z" style="fill:none;stroke:#000;stroke-width:2px;stroke-linecap:round;stroke-linejoin:round;stroke-miterlimit:1.5;"/></g></g><g id="Thin-S5" serif:id="Thin-S"><g><path d="M827.097,709.786c-2.348,3.508 -4.912,5.959 -5.722,5.47l-5.789,-3.499c-0.81,-0.489 0.439,-3.735 2.787,-7.243l8.51,-12.714c3.725,-5.565 4.022,-6.341 4.022,-6.341l8.79,5.289l-4.087,6.324l-8.511,12.714Z" style="fill:none;stroke:#000;stroke-width:1px;stroke-linecap:round;stroke-linejoin:round;stroke-miterlimit:1.5;"/><path d="M848.546,685.418c0.941,-1.405 0.534,-3.253 -0.906,-4.123l-10.298,-6.223c-1.441,-0.871 -3.374,-0.437 -4.314,0.969l-3.409,5.092c-1.492,2.228 -1.982,2.378 -0.541,3.249l11.745,7.097c3.129,1.891 2.272,2.083 4.314,-0.969l3.409,-5.092Z" style="fill:none;stroke:#000;stroke-width:1px;stroke-linecap:round;stroke-linejoin:round;stroke-miterlimit:1.5;"/><path d="M877.342,632.886c6.481,-10.623 12.583,-18.962 12.528,-19.074l-2.254,-2.904l-3.535,-0.594c-0.056,-0.112 -5.904,8.186 -13.14,18.432l-13.367,18.089l-26.221,-36.521l-3.138,0.922l-2.589,2.576l26.071,41.851c0,0 -0.625,0.701 -6.363,9.457c-7.063,10.778 -8.554,9.543 -7.744,10.032c0,0 -0.039,0.065 9.367,5.749c1.759,1.063 -0.87,0.18 7.102,-10.509c3.778,-5.065 3.709,-5.166 3.709,-5.166l10.433,16.59l9.216,-5.838l-14.37,-20.876l14.295,-22.216Zm-16.291,37.506c-23.885,-37.583 -35.425,-56.58 -35.425,-56.58l2.589,-2.576l3.138,-0.922c0,0 19.504,26.584 31.698,44.803c6.522,9.744 12.111,17.696 13.782,20.06c0.331,0.469 0.593,0.832 0.593,0.832l-9.225,5.807c0,0 -2.099,-3.476 -7.15,-11.424Z" style="fill:none;stroke:#000;stroke-width:1px;stroke-linecap:round;stroke-linejoin:round;stroke-miterlimit:1.5;"/><path d="M888.122,711.041c2.323,3.508 4.859,5.959 5.661,5.47l5.726,-3.499c0.802,-0.489 -0.434,-3.735 -2.757,-7.243l-8.418,-12.714c-3.685,-5.565 -4.495,-6.668 -4.495,-6.668l-8.302,5.358c0,0 -0.879,-1.039 4.166,6.582l8.419,12.714Z" style="fill:none;stroke:#000;stroke-width:1px;stroke-linecap:round;stroke-linejoin:round;stroke-miterlimit:1.5;"/><path d="M867.01,686.184c-0.954,-1.389 -0.583,-3.244 0.827,-4.138l10.08,-6.392c1.411,-0.895 3.33,-0.493 4.284,0.897l3.457,5.034c1.512,2.204 2,2.346 0.589,3.24l-11.497,7.291c-3.063,1.942 -2.212,2.121 -4.284,-0.897l-3.456,-5.035Z" style="fill:none;stroke:#000;stroke-width:1px;stroke-linecap:round;stroke-linejoin:round;stroke-miterlimit:1.5;"/></g></g><g id="Ultralight-S18" serif:id="Ultralight-S"><g><path d="M535.097,709.786c-2.348,3.508 -4.912,5.959 -5.722,5.47l-5.789,-3.499c-0.81,-0.489 0.439,-3.735 2.787,-7.243l8.51,-12.714c3.725,-5.565 4.022,-6.341 4.022,-6.341l8.79,5.289l-4.087,6.324l-8.511,12.714Z" style="fill:none;stroke:#000;stroke-width:0.45px;stroke-linecap:round;stroke-linejoin:round;stroke-miterlimit:1.5;"/><path d="M556.546,685.418c0.941,-1.405 0.534,-3.253 -0.906,-4.123l-10.298,-6.223c-1.441,-0.871 -3.374,-0.437 -4.314,0.969l-3.409,5.092c-1.492,2.228 -1.982,2.378 -0.541,3.249l11.745,7.097c3.129,1.891 2.272,2.083 4.314,-0.969l3.409,-5.092Z" style="fill:none;stroke:#000;stroke-width:0.45px;stroke-linecap:round;stroke-linejoin:round;stroke-miterlimit:1.5;"/><path d="M585.342,632.886c6.481,-10.623 12.583,-18.962 12.528,-19.074l-2.254,-2.904l-3.535,-0.594c-0.056,-0.112 -5.904,8.186 -13.14,18.432l-13.367,18.089l-26.221,-36.521l-3.138,0.922l-2.589,2.576l26.071,41.851c0,0 -0.625,0.701 -6.363,9.457c-7.063,10.778 -8.554,9.543 -7.744,10.032c0,0 -0.039,0.065 9.367,5.749c1.759,1.063 -0.87,0.18 7.102,-10.509c3.778,-5.065 3.709,-5.166 3.709,-5.166l10.433,16.59l9.216,-5.838l-14.37,-20.876l14.295,-22.216Zm-16.291,37.506c-23.885,-37.583 -35.425,-56.58 -35.425,-56.58l2.589,-2.576l3.138,-0.922c0,0 19.504,26.584 31.698,44.803c6.522,9.744 12.111,17.696 13.782,20.06c0.331,0.469 0.593,0.832 0.593,0.832l-9.225,5.807c0,0 -2.099,-3.476 -7.15,-11.424Z" style="fill:none;stroke:#000;stroke-width:0.45px;stroke-linecap:round;stroke-linejoin:round;stroke-miterlimit:1.5;"/><path d="M596.122,711.041c2.323,3.508 4.859,5.959 5.661,5.47l5.726,-3.499c0.802,-0.489 -0.434,-3.735 -2.757,-7.243l-8.418,-12.714c-3.685,-5.565 -4.495,-6.668 -4.495,-6.668l-8.302,5.358c0,0 -0.879,-1.039 4.166,6.582l8.419,12.714Z" style="fill:none;stroke:#000;stroke-width:0.45px;stroke-linecap:round;stroke-linejoin:round;stroke-miterlimit:1.5;"/><path d="M575.01,686.184c-0.954,-1.389 -0.583,-3.244 0.827,-4.138l10.08,-6.392c1.411,-0.895 3.33,-0.493 4.284,0.897l3.457,5.034c1.512,2.204 2,2.346 0.589,3.24l-11.497,7.291c-3.063,1.942 -2.212,2.121 -4.284,-0.897l-3.456,-5.035Z" style="fill:none;stroke:#000;stroke-width:0.45px;stroke-linecap:round;stroke-linejoin:round;stroke-miterlimit:1.5;"/></g></g></g></svg>